<?xml version="1.0" encoding="UTF-8" standalone="no"?>
<!DOCTYPE svg PUBLIC "-//W3C//DTD SVG 1.1//EN" "http://www.w3.org/Graphics/SVG/1.1/DTD/svg11.dtd">
<!-- Created with Vectornator (http://vectornator.io/) -->
<svg height="100%" stroke-miterlimit="10" style="fill-rule:nonzero;clip-rule:evenodd;stroke-linecap:round;stroke-linejoin:round;" version="1.1" viewBox="0 0 968.654 627.382" width="100%" xml:space="preserve" xmlns="http://www.w3.org/2000/svg" xmlns:vectornator="http://vectornator.io" xmlns:xlink="http://www.w3.org/1999/xlink">
<defs/>
<path d="M0 0L968.654 0L968.654 627.382L0 627.382L0 0Z" fill="#fd6666" fill-rule="nonzero" opacity="1" stroke="none"/>
<g id="Layer-1" vectornator:layerName="Layer 1">
<g opacity="1" vectornator:layerName="Group 7"/>
<g opacity="1" vectornator:layerName="Group 8">
<path d="M142.222 225.675L156.907 225.675L180.127 286.892L160.853 286.892L158.834 281.385L140.295 281.385L138.276 286.892L119.002 286.892L142.222 225.675ZM153.695 267.893L149.565 257.155L145.435 267.893L153.695 267.893Z" fill="#fccc8e" fill-rule="nonzero" opacity="1" stroke="none"/>
<path d="M212.096 225.675L233.206 225.675C237.121 225.675 240.747 226.195 244.081 227.236C247.416 228.276 250.307 229.805 252.754 231.824C255.202 233.844 257.114 236.337 258.491 239.304C259.867 242.272 260.556 245.683 260.556 249.538C260.556 252.597 260.127 255.197 259.271 257.339C258.414 259.48 257.466 261.255 256.425 262.662C255.202 264.253 253.825 265.599 252.295 266.7L263.768 286.892L240.823 286.892L231.645 271.381L231.645 286.892L212.096 286.892L212.096 225.675ZM231.645 255.779L232.655 255.779C234.98 255.779 236.953 255.259 238.575 254.218C240.196 253.178 241.007 251.434 241.007 248.987C241.007 246.54 240.196 244.796 238.575 243.756C236.953 242.715 234.98 242.195 232.655 242.195L231.645 242.195L231.645 255.779Z" fill="#fccc8e" fill-rule="nonzero" opacity="1" stroke="none"/>
<path d="M295.921 267.893C297.267 268.322 298.674 268.658 300.143 268.903C301.366 269.209 302.758 269.454 304.319 269.637C305.879 269.821 307.454 269.913 309.045 269.913C311.86 269.913 313.267 268.872 313.267 266.792C313.267 265.997 312.839 265.186 311.982 264.36C311.126 263.534 310.04 262.616 308.724 261.607C307.409 260.597 306.001 259.48 304.502 258.257C303.003 257.033 301.596 255.626 300.28 254.035C298.965 252.444 297.879 250.654 297.022 248.666C296.166 246.677 295.737 244.398 295.737 241.828C295.737 238.953 296.257 236.413 297.298 234.211C298.338 232.008 299.776 230.172 301.611 228.704C303.447 227.236 305.604 226.119 308.082 225.354C310.56 224.589 313.206 224.207 316.02 224.207C317.489 224.207 318.957 224.283 320.426 224.436C321.894 224.589 323.21 224.727 324.372 224.849C325.718 225.033 327.034 225.216 328.319 225.4L328.319 242.563C327.829 242.501 327.279 242.44 326.667 242.379C326.177 242.318 325.627 242.257 325.015 242.195C324.403 242.134 323.76 242.104 323.087 242.104C322.72 242.104 322.261 242.119 321.711 242.15C321.16 242.18 320.64 242.257 320.15 242.379C319.661 242.501 319.233 242.715 318.866 243.021C318.498 243.327 318.315 243.756 318.315 244.306C318.315 244.796 318.728 245.408 319.554 246.142C320.38 246.876 321.389 247.733 322.583 248.712C323.776 249.691 325.091 250.823 326.529 252.108C327.967 253.392 329.282 254.861 330.476 256.513C331.669 258.165 332.678 260.031 333.504 262.111C334.33 264.192 334.743 266.517 334.743 269.087C334.743 271.779 334.315 274.303 333.458 276.658C332.602 279.014 331.271 281.064 329.466 282.807C327.661 284.551 325.351 285.928 322.537 286.937C319.722 287.947 316.388 288.452 312.533 288.452C310.208 288.452 308.051 288.345 306.062 288.131C304.074 287.916 302.315 287.656 300.785 287.351C299.011 287.045 297.389 286.677 295.921 286.249L295.921 267.893Z" fill="#fccc8e" fill-rule="nonzero" opacity="1" stroke="none"/>
<path d="M418.415 225.675L439.157 225.675L439.157 286.892L418.415 286.892L418.415 225.675Z" fill="#fccc8e" fill-rule="nonzero" opacity="1" stroke="none"/>
<path d="M476.174 225.675L492.235 225.675L509.123 249.262L509.123 225.675L528.304 225.675L528.304 286.892L512.151 286.892L495.356 263.396L495.356 286.892L476.174 286.892L476.174 225.675Z" fill="#fccc8e" fill-rule="nonzero" opacity="1" stroke="none"/>
<path d="M565.322 225.675L601.391 225.675L601.391 241.737L584.871 241.737L584.871 248.528L601.115 248.528L601.115 263.763L584.871 263.763L584.871 286.892L565.322 286.892L565.322 225.675Z" fill="#fccc8e" fill-rule="nonzero" opacity="1" stroke="none"/>
<path d="M661.628 288.452C657.773 288.452 654.286 287.962 651.165 286.983C648.045 286.004 645.383 284.536 643.181 282.578C640.978 280.62 639.28 278.142 638.087 275.144C636.894 272.146 636.297 268.628 636.297 264.589L636.297 225.675L655.846 225.675L655.846 263.763C655.846 265.905 656.29 267.542 657.177 268.674C658.064 269.805 659.548 270.371 661.628 270.371C663.708 270.371 665.192 269.805 666.079 268.674C666.967 267.542 667.41 265.905 667.41 263.763L667.41 225.675L687.051 225.675L687.051 264.589C687.051 268.628 686.454 272.146 685.261 275.144C684.068 278.142 682.355 280.62 680.122 282.578C677.888 284.536 675.211 286.004 672.091 286.983C668.97 287.962 665.483 288.452 661.628 288.452Z" fill="#fccc8e" fill-rule="nonzero" opacity="1" stroke="none"/>
<path d="M721.865 267.893C723.212 268.322 724.619 268.658 726.087 268.903C727.311 269.209 728.703 269.454 730.263 269.637C731.823 269.821 733.399 269.913 734.99 269.913C737.804 269.913 739.212 268.872 739.212 266.792C739.212 265.997 738.783 265.186 737.927 264.36C737.07 263.534 735.984 262.616 734.669 261.607C733.353 260.597 731.946 259.48 730.447 258.257C728.948 257.033 727.54 255.626 726.225 254.035C724.909 252.444 723.823 250.654 722.967 248.666C722.11 246.677 721.682 244.398 721.682 241.828C721.682 238.953 722.202 236.413 723.242 234.211C724.282 232.008 725.72 230.172 727.556 228.704C729.391 227.236 731.548 226.119 734.026 225.354C736.504 224.589 739.15 224.207 741.965 224.207C743.433 224.207 744.902 224.283 746.37 224.436C747.839 224.589 749.154 224.727 750.317 224.849C751.663 225.033 752.978 225.216 754.263 225.4L754.263 242.563C753.774 242.501 753.223 242.44 752.611 242.379C752.122 242.318 751.571 242.257 750.959 242.195C750.347 242.134 749.705 242.104 749.032 242.104C748.665 242.104 748.206 242.119 747.655 242.15C747.105 242.18 746.585 242.257 746.095 242.379C745.606 242.501 745.177 242.715 744.81 243.021C744.443 243.327 744.259 243.756 744.259 244.306C744.259 244.796 744.672 245.408 745.498 246.142C746.324 246.876 747.334 247.733 748.527 248.712C749.72 249.691 751.036 250.823 752.474 252.108C753.912 253.392 755.227 254.861 756.42 256.513C757.613 258.165 758.623 260.031 759.449 262.111C760.275 264.192 760.688 266.517 760.688 269.087C760.688 271.779 760.26 274.303 759.403 276.658C758.546 279.014 757.216 281.064 755.411 282.807C753.606 284.551 751.296 285.928 748.481 286.937C745.667 287.947 742.332 288.452 738.477 288.452C736.152 288.452 733.996 288.345 732.007 288.131C730.018 287.916 728.259 287.656 726.73 287.351C724.955 287.045 723.334 286.677 721.865 286.249L721.865 267.893Z" fill="#fccc8e" fill-rule="nonzero" opacity="1" stroke="none"/>
<path d="M813.583 225.675L828.267 225.675L851.487 286.892L832.214 286.892L830.195 281.385L811.656 281.385L809.636 286.892L790.363 286.892L813.583 225.675ZM825.055 267.893L820.925 257.155L816.795 267.893L825.055 267.893Z" fill="#fccc8e" fill-rule="nonzero" opacity="1" stroke="none"/>
<path d="M70.8185 356.46L59.5298 356.46L59.5298 340.399L102.299 340.399L102.299 356.46L91.0098 356.46L91.0098 401.615L70.8185 401.615L70.8185 356.46Z" fill="#fccc8e" fill-rule="nonzero" opacity="1" stroke="none"/>
<path d="M105.511 340.399L125.06 340.399L125.06 361.232L135.981 361.232L135.981 340.399L155.622 340.399L155.622 401.615L135.981 401.615L135.981 378.946L125.06 378.946L125.06 401.615L105.511 401.615L105.511 340.399Z" fill="#fccc8e" fill-rule="nonzero" opacity="1" stroke="none"/>
<path d="M162.046 340.399L198.115 340.399L198.115 356.46L181.595 356.46L181.595 363.251L197.84 363.251L197.84 378.487L181.595 378.487L181.595 385.554L198.758 385.554L198.758 401.615L162.046 401.615L162.046 340.399Z" fill="#fccc8e" fill-rule="nonzero" opacity="1" stroke="none"/>
<path d="M240.793 340.399L255.477 340.399L278.697 401.615L259.424 401.615L257.404 396.108L238.865 396.108L236.846 401.615L217.573 401.615L240.793 340.399ZM252.265 382.617L248.135 371.879L244.005 382.617L252.265 382.617Z" fill="#fccc8e" fill-rule="nonzero" opacity="1" stroke="none"/>
<path d="M280.074 340.399L301.183 340.399C305.099 340.399 308.724 340.919 312.059 341.959C315.393 342.999 318.284 344.529 320.732 346.548C323.179 348.567 325.091 351.06 326.468 354.028C327.845 356.995 328.533 360.406 328.533 364.261C328.533 367.32 328.105 369.921 327.248 372.062C326.391 374.204 325.443 375.978 324.403 377.385C323.179 378.976 321.802 380.322 320.273 381.424L331.745 401.615L308.8 401.615L299.623 386.104L299.623 401.615L280.074 401.615L280.074 340.399ZM299.623 370.502L300.632 370.502C302.957 370.502 304.93 369.982 306.552 368.942C308.173 367.902 308.984 366.158 308.984 363.71C308.984 361.263 308.173 359.519 306.552 358.479C304.93 357.439 302.957 356.919 300.632 356.919L299.623 356.919L299.623 370.502Z" fill="#fccc8e" fill-rule="nonzero" opacity="1" stroke="none"/>
<path d="M340.739 356.46L329.451 356.46L329.451 340.399L372.22 340.399L372.22 356.46L360.931 356.46L360.931 401.615L340.739 401.615L340.739 356.46Z" fill="#fccc8e" fill-rule="nonzero" opacity="1" stroke="none"/>
<path d="M392.411 371.053C392.411 366.647 393.252 362.487 394.935 358.571C396.617 354.655 398.912 351.244 401.818 348.337C404.724 345.431 408.136 343.137 412.051 341.454C415.967 339.771 420.128 338.93 424.533 338.93C428.939 338.93 433.099 339.771 437.015 341.454C440.931 343.137 444.342 345.431 447.249 348.337C450.155 351.244 452.449 354.655 454.132 358.571C455.815 362.487 456.656 366.647 456.656 371.053C456.656 375.458 455.815 379.619 454.132 383.534C452.449 387.45 450.155 390.861 447.249 393.768C444.342 396.674 440.931 398.969 437.015 400.651C433.099 402.334 428.939 403.175 424.533 403.175C420.128 403.175 415.967 402.334 412.051 400.651C408.136 398.969 404.724 396.674 401.818 393.768C398.912 390.861 396.617 387.45 394.935 383.534C393.252 379.619 392.411 375.458 392.411 371.053ZM411.684 371.053C411.684 372.827 412.021 374.494 412.694 376.055C413.367 377.615 414.285 378.976 415.447 380.139C416.61 381.301 417.971 382.219 419.531 382.892C421.092 383.565 422.759 383.902 424.533 383.902C426.308 383.902 427.975 383.565 429.535 382.892C431.096 382.219 432.457 381.301 433.619 380.139C434.782 378.976 435.7 377.615 436.373 376.055C437.046 374.494 437.382 372.827 437.382 371.053C437.382 369.278 437.046 367.611 436.373 366.051C435.7 364.49 434.782 363.129 433.619 361.967C432.457 360.804 431.096 359.886 429.535 359.213C427.975 358.54 426.308 358.204 424.533 358.204C422.759 358.204 421.092 358.54 419.531 359.213C417.971 359.886 416.61 360.804 415.447 361.967C414.285 363.129 413.367 364.49 412.694 366.051C412.021 367.611 411.684 369.278 411.684 371.053Z" fill="#fccc8e" fill-rule="nonzero" opacity="1" stroke="none"/>
<path d="M461.704 340.399L497.773 340.399L497.773 356.46L481.253 356.46L481.253 363.251L497.497 363.251L497.497 378.487L481.253 378.487L481.253 401.615L461.704 401.615L461.704 340.399Z" fill="#fccc8e" fill-rule="nonzero" opacity="1" stroke="none"/>
<path d="M529.253 356.46L517.964 356.46L517.964 340.399L560.733 340.399L560.733 356.46L549.444 356.46L549.444 401.615L529.253 401.615L529.253 356.46Z" fill="#fccc8e" fill-rule="nonzero" opacity="1" stroke="none"/>
<path d="M563.945 340.399L583.494 340.399L583.494 361.232L594.416 361.232L594.416 340.399L614.056 340.399L614.056 401.615L594.416 401.615L594.416 378.946L583.494 378.946L583.494 401.615L563.945 401.615L563.945 340.399Z" fill="#fccc8e" fill-rule="nonzero" opacity="1" stroke="none"/>
<path d="M620.481 340.399L641.223 340.399L641.223 401.615L620.481 401.615L620.481 340.399Z" fill="#fccc8e" fill-rule="nonzero" opacity="1" stroke="none"/>
<path d="M647.647 340.399L663.708 340.399L680.596 363.986L680.596 340.399L699.777 340.399L699.777 401.615L683.624 401.615L666.829 378.12L666.829 401.615L647.647 401.615L647.647 340.399Z" fill="#fccc8e" fill-rule="nonzero" opacity="1" stroke="none"/>
<path d="M706.202 340.399L726.026 340.399L726.026 354.532L737.59 340.399L761.544 340.399L739.976 368.391L762.646 401.615L739.059 401.615L726.026 382.708L726.026 401.615L706.202 401.615L706.202 340.399Z" fill="#fccc8e" fill-rule="nonzero" opacity="1" stroke="none"/>
<path d="M764.481 340.399L785.223 340.399L785.223 401.615L764.481 401.615L764.481 340.399Z" fill="#fccc8e" fill-rule="nonzero" opacity="1" stroke="none"/>
<path d="M791.648 340.399L807.709 340.399L824.596 363.986L824.596 340.399L843.778 340.399L843.778 401.615L827.625 401.615L810.83 378.12L810.83 401.615L791.648 401.615L791.648 340.399Z" fill="#fccc8e" fill-rule="nonzero" opacity="1" stroke="none"/>
<path d="M889.209 361.232C888.107 360.253 886.73 359.504 885.078 358.984C883.426 358.464 881.805 358.204 880.214 358.204C878.44 358.204 876.818 358.525 875.35 359.167C873.881 359.81 872.612 360.697 871.541 361.829C870.47 362.961 869.629 364.322 869.017 365.913C868.405 367.504 868.099 369.217 868.099 371.053C868.099 372.888 868.436 374.601 869.109 376.192C869.782 377.783 870.7 379.144 871.862 380.276C873.025 381.408 874.386 382.295 875.946 382.938C877.507 383.58 879.174 383.902 880.948 383.902C883.029 383.902 884.925 383.458 886.639 382.571C888.352 381.684 889.82 380.475 891.044 378.946L885.537 378.946L885.537 366.097L909.124 366.097L909.124 386.471C907.717 388.98 906.035 391.259 904.077 393.309C902.119 395.359 899.931 397.118 897.514 398.586C895.098 400.055 892.482 401.187 889.667 401.982C886.853 402.777 883.947 403.175 880.948 403.175C876.543 403.175 872.382 402.349 868.467 400.697C864.551 399.045 861.14 396.781 858.233 393.905C855.327 391.03 853.032 387.634 851.35 383.718C849.667 379.802 848.826 375.58 848.826 371.053C848.826 366.647 849.621 362.487 851.212 358.571C852.803 354.655 854.99 351.244 857.774 348.337C860.558 345.431 863.862 343.137 867.686 341.454C871.511 339.771 875.625 338.93 880.031 338.93C883.457 338.93 886.425 339.267 888.933 339.94C891.442 340.613 893.553 341.378 895.266 342.234C897.285 343.213 898.968 344.284 900.314 345.446L889.209 361.232Z" fill="#fccc8e" fill-rule="nonzero" opacity="1" stroke="none"/>
</g>
</g>
</svg>
