<?xml version="1.0" encoding="UTF-8" standalone="no"?>
<!DOCTYPE svg PUBLIC "-//W3C//DTD SVG 1.1//EN" "http://www.w3.org/Graphics/SVG/1.1/DTD/svg11.dtd">
<!-- Created with Vectornator (http://vectornator.io/) -->
<svg height="100%" stroke-miterlimit="10" style="fill-rule:nonzero;clip-rule:evenodd;stroke-linecap:round;stroke-linejoin:round;" version="1.1" viewBox="0 0 567 104.895" width="100%" xml:space="preserve" xmlns="http://www.w3.org/2000/svg" xmlns:vectornator="http://vectornator.io" xmlns:xlink="http://www.w3.org/1999/xlink">
<defs/>
<path d="M0 0L567 0L567 104.895L0 104.895L0 0Z" fill="#ffffff" fill-rule="nonzero" opacity="1" stroke="none"/>
<clipPath id="ArtboardFrame">
<rect height="104.895" width="567" x="0" y="0"/>
</clipPath>
<g clip-path="url(#ArtboardFrame)" id="Layer-1" vectornator:layerName="Layer 1">
<path d="M8.86637e-14-0.144302L567-0.0519997L567 94.895C567 100.418 562.523 104.895 557 104.895L10 104.895C4.47715 104.895 1.77636e-15 100.418 9.27789e-15 94.895L8.86637e-14-0.144302Z" fill="#fccc8e" fill-rule="nonzero" opacity="1" stroke="none" vectornator:layerName="Rectangle 2"/>
<g opacity="1" vectornator:layerName="Group 13">
<g opacity="1" vectornator:layerName="Group 14">
<g opacity="1" vectornator:layerName="Group 14">
<g opacity="1" vectornator:layerName="Group 2">
<path d="M443.691-63.3711C464.812-63.3711 482.576-56.2652 496.986-41.6586C511.592-27.2494 518.698-9.48458 518.698 11.8332C518.698 32.7562 511.592 50.521 497.183 65.1276C482.971 79.5368 465.206 86.8401 443.889 86.8401C422.768 86.8401 405.004 79.5368 390.397 65.325C375.988 50.7184 368.684 32.9536 368.684 12.0306C368.684-9.0898 375.988-26.8546 390.397-41.4612C405.004-56.0678 422.768-63.3711 443.691-63.3711ZM443.691-54.2914C425.532-54.2914 409.938-47.975 396.911-34.9475C384.278-21.9199 377.764-6.32639 377.764 12.0306C377.764 30.1901 384.278 45.7837 396.911 58.6138C409.938 71.2466 425.532 77.7603 443.691 77.7603C462.246 77.7603 477.839 71.2466 490.669 58.6138C503.302 45.9811 509.618 30.3875 509.618 12.0306C509.618-6.52378 503.302-22.3147 490.472-34.9475C477.839-47.975 462.246-54.2914 443.691-54.2914ZM443.691-34.9475C457.114-34.9475 468.167-30.605 477.05-21.5252C486.129-12.8402 490.472-1.7865 490.472 11.6358C490.472 24.6633 485.932 35.717 476.852 44.7968C467.97 53.8766 456.916 58.4164 443.691 58.4164C430.664 58.4164 419.61 53.8766 410.53 44.7968C401.451 35.717 396.911 24.6633 396.911 11.6358C396.911-1.58911 401.451-12.6428 410.53-21.5252C419.61-30.605 430.664-34.9475 443.691-34.9475ZM443.889-25.6703C433.427-25.6703 424.545-22.1173 417.241-15.0114C410.136-7.90548 406.385 0.779532 406.385 11.4384C406.385 21.8999 409.938 30.7823 417.044 38.283C424.545 45.3889 433.427 49.1393 443.691 49.1393C454.35 49.1393 463.233 45.5863 470.339 38.4804C477.444 31.1771 480.997 22.2947 480.997 11.6358C480.997 0.976918 477.642-7.90548 470.536-15.0114C463.43-22.1173 454.548-25.6703 443.889-25.6703Z" fill="#131313" fill-rule="nonzero" opacity="1" stroke="none"/>
</g>
</g>
</g>
<path d="M431.076 11.7345C431.076 4.76723 436.724-0.880847 443.691-0.880847C450.659-0.880847 456.307 4.76723 456.307 11.7345C456.307 18.7018 450.659 24.3498 443.691 24.3498C436.724 24.3498 431.076 18.7018 431.076 11.7345Z" fill="#131313" fill-rule="nonzero" opacity="1" stroke="none" vectornator:layerName="Oval 2"/>
</g>
<g opacity="1" vectornator:layerName="Group 12"/>
<path d="M98.3917 5.41994L374.433 5.41994L374.433 122.864L98.3917 122.864L98.3917 5.41994Z" fill="#16a321" fill-rule="nonzero" opacity="0" stroke="none" vectornator:layerName="Rectangle 3"/>
<g fill="#131313" opacity="1" stroke="none" vectornator:layerName="Text 2">
<path d="M83.282 55.6272L83.282 44.3772L85.532 44.3772L85.532 46.6272L87.782 46.6272L87.782 48.8772L90.032 48.8772L90.032 51.1272L87.782 51.1272L87.782 48.8772L85.532 48.8772L85.532 55.6272L83.282 55.6272ZM92.282 55.6272L92.282 48.8772L90.032 48.8772L90.032 46.6272L92.282 46.6272L92.282 44.3772L94.532 44.3772L94.532 55.6272L92.282 55.6272Z"/>
<path d="M99.032 55.6272L99.032 53.3772L101.282 53.3772L101.282 46.6272L99.032 46.6272L99.032 44.3772L103.532 44.3772L103.532 53.3772L105.782 53.3772L105.782 55.6272L99.032 55.6272Z"/>
<path d="M110.282 55.6272L110.282 44.3772L112.532 44.3772L112.532 46.6272L114.782 46.6272L114.782 48.8772L117.032 48.8772L117.032 51.1272L119.282 51.1272L119.282 44.3772L121.532 44.3772L121.532 55.6272L119.282 55.6272L119.282 53.3772L117.032 53.3772L117.032 51.1272L114.782 51.1272L114.782 48.8772L112.532 48.8772L112.532 55.6272L110.282 55.6272Z"/>
<path d="M126.032 55.6272L126.032 53.3772L128.282 53.3772L128.282 46.6272L126.032 46.6272L126.032 44.3772L130.532 44.3772L130.532 53.3772L132.782 53.3772L132.782 55.6272L126.032 55.6272Z"/>
<path d="M137.282 55.6272L137.282 44.3772L144.032 44.3772L144.032 46.6272L146.282 46.6272L146.282 53.3772L144.032 53.3772L144.032 55.6272L137.282 55.6272ZM139.532 48.8772L143.942 48.8772L143.942 46.6272L139.532 46.6272L139.532 48.8772ZM139.532 53.3772L143.942 53.3772L143.942 51.1272L139.532 51.1272L139.532 53.3772Z"/>
<path d="M150.782 55.6272L150.782 44.3772L153.032 44.3772L153.032 53.3772L157.532 53.3772L157.532 55.6272L150.782 55.6272Z"/>
<path d="M164.282 55.6272L164.282 53.3772L162.032 53.3772L162.032 46.6272L164.282 46.6272L164.282 44.3772L168.782 44.3772L168.782 46.6272L171.032 46.6272L171.032 53.3772L168.782 53.3772L168.782 55.6272L164.282 55.6272ZM164.282 53.2872L168.782 53.2872L168.782 46.7172L164.282 46.7172L164.282 53.2872Z"/>
<path d="M175.532 55.6272L175.532 44.3772L177.782 44.3772L177.782 48.8772L180.032 48.8772L180.032 51.1272L182.282 51.1272L182.282 53.3772L184.532 53.3772L184.532 55.6272L182.282 55.6272L182.282 53.3772L180.032 53.3772L180.032 51.1272L177.782 51.1272L177.782 55.6272L175.532 55.6272ZM182.282 46.6272L182.282 44.3772L184.532 44.3772L184.532 46.6272L182.282 46.6272ZM180.032 48.8772L180.032 46.6272L182.282 46.6272L182.282 48.8772L180.032 48.8772Z"/>
<path d="M208.869 53.6497L206.891 55.6272L196.362 55.6272L196.362 45.1155L198.34 43.138L208.869 43.138L208.869 53.6497ZM206.382 55.1262L206.382 45.6165L196.863 45.6165L196.863 55.1262L206.382 55.1262Z"/>
<path d="M222.94 55.6272L222.94 53.3772L220.69 53.3772L220.69 46.6272L222.94 46.6272L222.94 44.3772L229.69 44.3772L229.69 46.6272L231.94 46.6272L231.94 53.3772L229.69 53.3772L229.69 55.6272L222.94 55.6272ZM225.19 53.2872L227.44 53.2872L227.44 46.7172L225.19 46.7172L225.19 53.2872Z"/>
<path d="M236.44 55.6272L236.44 53.3772L238.69 53.3772L238.69 46.6272L236.44 46.6272L236.44 44.3772L243.19 44.3772L243.19 53.3772L245.44 53.3772L245.44 55.6272L236.44 55.6272Z"/>
</g>
</g>
</svg>
