<?xml version="1.0" encoding="UTF-8" standalone="no"?>
<!DOCTYPE svg PUBLIC "-//W3C//DTD SVG 1.1//EN" "http://www.w3.org/Graphics/SVG/1.1/DTD/svg11.dtd">
<!-- Created with Vectornator (http://vectornator.io/) -->
<svg height="36.99999999999999mm" stroke-miterlimit="10" style="fill-rule:nonzero;clip-rule:evenodd;stroke-linecap:round;stroke-linejoin:round;" version="1.1" viewBox="0 0 567 104.895" width="200.0mm" xml:space="preserve" xmlns="http://www.w3.org/2000/svg" xmlns:xlink="http://www.w3.org/1999/xlink">
<defs/>
<clipPath id="ArtboardFrame">
<rect height="104.895" width="567" x="0" y="0"/>
</clipPath>
<g clip-path="url(#ArtboardFrame)" id="Layer-1">
<path d="M8.52651e-14 10C8.52651e-14 4.47715 4.47715-2.84217e-14 10-2.84217e-14L557 2.84217e-14C562.523 2.84217e-14 567 4.47715 567 10L567 94.895C567 100.418 562.523 104.895 557 104.895L10 104.895C4.47715 104.895 0 100.418 0 94.895L8.52651e-14 10Z" fill="#fccc8e" fill-rule="nonzero" opacity="1" stroke="none"/>
<g opacity="1">
<g fill="#fccc8e" opacity="1" stroke="none">
<path d="M112.185 134.826L111.353 134.826L111.657 132.602L112.505 132.602L112.633 131.658L111.801 131.658L112.105 129.434L112.937 129.434L113.161 127.866L115.417 127.866L115.193 129.434L115.737 129.434L115.961 127.866L118.217 127.866L117.993 129.434L118.825 129.434L118.521 131.658L117.689 131.658L117.545 132.602L118.377 132.602L118.073 134.826L117.241 134.826L117.017 136.394L114.761 136.394L114.985 134.826L114.441 134.826L114.217 136.394L111.961 136.394L112.185 134.826ZM114.745 132.602L115.289 132.602L115.433 131.658L114.889 131.658L114.745 132.602Z"/>
<path d="M129.253 133.21C129.253 135.023 128.874 136.41 128.117 137.37C127.359 138.33 126.303 138.81 124.949 138.81C123.594 138.81 122.538 138.33 121.781 137.37C121.023 136.41 120.645 135.023 120.645 133.21C120.645 131.396 121.023 130.01 121.781 129.05C122.538 128.09 123.594 127.61 124.949 127.61C126.303 127.61 127.359 128.09 128.117 129.05C128.874 130.01 129.253 131.396 129.253 133.21ZM125.973 133.21C125.973 131.535 125.631 130.698 124.949 130.698C124.266 130.698 123.925 131.535 123.925 133.21C123.925 134.884 124.266 135.722 124.949 135.722C125.631 135.722 125.973 134.884 125.973 133.21Z"/>
<path d="M133.633 130.842L130.705 130.842L131.889 127.866L138.401 127.866L134.193 138.538L130.593 138.538L133.633 130.842Z"/>
<path d="M112.193 150.53L117.713 150.53C118.737 150.53 119.685 150.666 120.557 150.938C121.429 151.21 122.185 151.61 122.825 152.138C123.465 152.666 123.965 153.318 124.325 154.094C124.685 154.87 124.865 155.762 124.865 156.77C124.865 157.57 124.753 158.25 124.529 158.81C124.305 159.37 124.057 159.834 123.785 160.202C123.465 160.618 123.105 160.97 122.705 161.258L125.705 166.538L119.705 166.538L117.305 162.482L117.305 166.538L112.193 166.538L112.193 150.53ZM117.305 158.402L117.569 158.402C118.177 158.402 118.693 158.266 119.117 157.994C119.541 157.722 119.753 157.266 119.753 156.626C119.753 155.986 119.541 155.53 119.117 155.258C118.693 154.986 118.177 154.85 117.569 154.85L117.305 154.85L117.305 158.402Z"/>
<path d="M127.685 150.53L137.117 150.53L137.117 154.73L132.797 154.73L132.797 156.506L137.045 156.506L137.045 160.49L132.797 160.49L132.797 162.338L137.285 162.338L137.285 166.538L127.685 166.538L127.685 150.53Z"/>
<path d="M142.337 154.73L139.385 154.73L139.385 150.53L150.569 150.53L150.569 154.73L147.617 154.73L147.617 166.538L142.337 166.538L142.337 154.73Z"/>
<path d="M152.909 150.53L158.021 150.53L158.021 155.978L160.877 155.978L160.877 150.53L166.013 150.53L166.013 166.538L160.877 166.538L160.877 160.61L158.021 160.61L158.021 166.538L152.909 166.538L152.909 150.53Z"/>
<path d="M169.193 150.53L174.617 150.53L174.617 166.538L169.193 166.538L169.193 150.53Z"/>
<path d="M177.797 150.53L181.997 150.53L186.413 156.698L186.413 150.53L191.429 150.53L191.429 166.538L187.205 166.538L182.813 160.394L182.813 166.538L177.797 166.538L177.797 150.53Z"/>
<path d="M194.609 150.53L199.793 150.53L199.793 154.226L202.817 150.53L209.081 150.53L203.441 157.85L209.369 166.538L203.201 166.538L199.793 161.594L199.793 166.538L194.609 166.538L194.609 150.53Z"/>
<path d="M211.349 150.53L216.773 150.53L216.773 166.538L211.349 166.538L211.349 150.53Z"/>
<path d="M219.953 150.53L224.153 150.53L228.569 156.698L228.569 150.53L233.585 150.53L233.585 166.538L229.361 166.538L224.969 160.394L224.969 166.538L219.953 166.538L219.953 150.53Z"/>
<path d="M246.965 155.978C246.677 155.722 246.317 155.526 245.885 155.39C245.453 155.254 245.029 155.186 244.613 155.186C244.149 155.186 243.725 155.27 243.341 155.438C242.957 155.606 242.625 155.838 242.345 156.134C242.065 156.43 241.845 156.786 241.685 157.202C241.525 157.618 241.445 158.066 241.445 158.546C241.445 159.026 241.533 159.474 241.709 159.89C241.885 160.306 242.125 160.662 242.429 160.958C242.733 161.254 243.089 161.486 243.497 161.654C243.905 161.822 244.341 161.906 244.805 161.906C245.349 161.906 245.845 161.79 246.293 161.558C246.741 161.326 247.125 161.01 247.445 160.61L246.005 160.61L246.005 157.25L252.173 157.25L252.173 162.578C251.805 163.234 251.365 163.83 250.853 164.366C250.341 164.902 249.769 165.362 249.137 165.746C248.505 166.13 247.821 166.426 247.085 166.634C246.349 166.842 245.589 166.946 244.805 166.946C243.653 166.946 242.565 166.73 241.541 166.298C240.517 165.866 239.625 165.274 238.865 164.522C238.105 163.77 237.505 162.882 237.065 161.858C236.625 160.834 236.405 159.73 236.405 158.546C236.405 157.394 236.613 156.306 237.029 155.282C237.445 154.258 238.017 153.366 238.745 152.606C239.473 151.846 240.337 151.246 241.337 150.806C242.337 150.366 243.413 150.146 244.565 150.146C245.461 150.146 246.237 150.234 246.893 150.41C247.549 150.586 248.101 150.786 248.549 151.01C249.077 151.266 249.517 151.546 249.869 151.85L246.965 155.978Z"/>
<path d="M112.193 196.538L112.193 180.53L116.633 180.53C118.137 180.53 119.477 180.698 120.653 181.034C121.829 181.37 122.821 181.874 123.629 182.546C124.437 183.218 125.053 184.054 125.477 185.054C125.901 186.054 126.113 187.21 126.113 188.522C126.113 189.834 125.901 190.99 125.477 191.99C125.053 192.99 124.437 193.826 123.629 194.498C122.821 195.17 121.829 195.678 120.653 196.022C119.477 196.366 118.137 196.538 116.633 196.538L112.193 196.538ZM117.305 191.978C118.505 191.978 119.433 191.694 120.089 191.126C120.745 190.558 121.073 189.69 121.073 188.522C121.073 187.354 120.745 186.49 120.089 185.93C119.433 185.37 118.505 185.09 117.305 185.09L117.305 191.978Z"/>
<path d="M128.933 180.53L138.365 180.53L138.365 184.73L134.045 184.73L134.045 186.506L138.293 186.506L138.293 190.49L134.045 190.49L134.045 192.338L138.533 192.338L138.533 196.538L128.933 196.538L128.933 180.53Z"/>
<path d="M141.473 180.53L150.905 180.53L150.905 184.73L146.585 184.73L146.585 186.506L150.833 186.506L150.833 190.49L146.585 190.49L146.585 196.538L141.473 196.538L141.473 180.53Z"/>
<path d="M153.725 180.53L159.149 180.53L159.149 196.538L153.725 196.538L153.725 180.53Z"/>
<path d="M172.901 180.53L175.613 187.49L178.349 180.53L183.941 180.53L177.701 196.538L173.549 196.538L167.309 180.53L172.901 180.53Z"/>
<path d="M187.673 180.53L191.513 180.53L197.585 196.538L192.545 196.538L192.017 195.098L187.169 195.098L186.641 196.538L181.601 196.538L187.673 180.53ZM190.673 191.57L189.593 188.762L188.513 191.57L190.673 191.57Z"/>
<path d="M199.445 180.53L204.773 180.53L204.773 192.338L209.189 192.338L209.189 196.538L199.445 196.538L199.445 180.53Z"/>
<path d="M218.081 196.946C217.073 196.946 216.161 196.818 215.345 196.562C214.529 196.306 213.833 195.922 213.257 195.41C212.681 194.898 212.237 194.25 211.925 193.466C211.613 192.682 211.457 191.762 211.457 190.706L211.457 180.53L216.569 180.53L216.569 190.49C216.569 191.05 216.685 191.478 216.917 191.774C217.149 192.07 217.537 192.218 218.081 192.218C218.625 192.218 219.013 192.07 219.245 191.774C219.477 191.478 219.593 191.05 219.593 190.49L219.593 180.53L224.729 180.53L224.729 190.706C224.729 191.762 224.573 192.682 224.261 193.466C223.949 194.25 223.501 194.898 222.917 195.41C222.333 195.922 221.633 196.306 220.817 196.562C220.001 196.818 219.089 196.946 218.081 196.946Z"/>
<path d="M227.837 180.53L237.269 180.53L237.269 184.73L232.949 184.73L232.949 186.506L237.197 186.506L237.197 190.49L232.949 190.49L232.949 192.338L237.437 192.338L237.437 196.538L227.837 196.538L227.837 180.53Z"/>
<path d="M239.945 191.57C240.297 191.682 240.665 191.77 241.049 191.834C241.369 191.914 241.733 191.978 242.141 192.026C242.549 192.074 242.961 192.098 243.377 192.098C244.113 192.098 244.481 191.826 244.481 191.282C244.481 191.074 244.369 190.862 244.145 190.646C243.921 190.43 243.637 190.19 243.293 189.926C242.949 189.662 242.581 189.37 242.189 189.05C241.797 188.73 241.429 188.362 241.085 187.946C240.741 187.53 240.457 187.062 240.233 186.542C240.009 186.022 239.897 185.426 239.897 184.754C239.897 184.002 240.033 183.338 240.305 182.762C240.577 182.186 240.953 181.706 241.433 181.322C241.913 180.938 242.477 180.646 243.125 180.446C243.773 180.246 244.465 180.146 245.201 180.146C245.585 180.146 245.969 180.166 246.353 180.206C246.737 180.246 247.081 180.282 247.385 180.314C247.737 180.362 248.081 180.41 248.417 180.458L248.417 184.946C248.289 184.93 248.145 184.914 247.985 184.898C247.857 184.882 247.713 184.866 247.553 184.85C247.393 184.834 247.225 184.826 247.049 184.826C246.953 184.826 246.833 184.83 246.689 184.838C246.545 184.846 246.409 184.866 246.281 184.898C246.153 184.93 246.041 184.986 245.945 185.066C245.849 185.146 245.801 185.258 245.801 185.402C245.801 185.53 245.909 185.69 246.125 185.882C246.341 186.074 246.605 186.298 246.917 186.554C247.229 186.81 247.573 187.106 247.949 187.442C248.325 187.778 248.669 188.162 248.981 188.594C249.293 189.026 249.557 189.514 249.773 190.058C249.989 190.602 250.097 191.21 250.097 191.882C250.097 192.586 249.985 193.246 249.761 193.862C249.537 194.478 249.189 195.014 248.717 195.47C248.245 195.926 247.641 196.286 246.905 196.55C246.169 196.814 245.297 196.946 244.289 196.946C243.681 196.946 243.117 196.918 242.597 196.862C242.077 196.806 241.617 196.738 241.217 196.658C240.753 196.578 240.329 196.482 239.945 196.37L239.945 191.57Z"/>
</g>
</g>
<g opacity="1"/>
<path d="M98.3917 5.41994L374.433 5.41994L374.433 122.864L98.3917 122.864L98.3917 5.41994Z" fill="#16a321" fill-rule="nonzero" opacity="0" stroke="none"/>
<g fill="#131313" opacity="1" stroke="none">
<path d="M83.657 58.6272L83.657 45.5022L86.282 45.5022L86.282 48.1272L88.907 48.1272L88.907 50.7522L91.532 50.7522L91.532 53.3772L88.907 53.3772L88.907 50.7522L86.282 50.7522L86.282 58.6272L83.657 58.6272ZM94.157 58.6272L94.157 50.7522L91.532 50.7522L91.532 48.1272L94.157 48.1272L94.157 45.5022L96.782 45.5022L96.782 58.6272L94.157 58.6272Z"/>
<path d="M102.032 58.6272L102.032 56.0022L104.657 56.0022L104.657 48.1272L102.032 48.1272L102.032 45.5022L107.282 45.5022L107.282 56.0022L109.907 56.0022L109.907 58.6272L102.032 58.6272Z"/>
<path d="M115.157 58.6272L115.157 45.5022L117.782 45.5022L117.782 48.1272L120.407 48.1272L120.407 50.7522L123.032 50.7522L123.032 53.3772L125.657 53.3772L125.657 45.5022L128.282 45.5022L128.282 58.6272L125.657 58.6272L125.657 56.0022L123.032 56.0022L123.032 53.3772L120.407 53.3772L120.407 50.7522L117.782 50.7522L117.782 58.6272L115.157 58.6272Z"/>
<path d="M133.532 58.6272L133.532 56.0022L136.157 56.0022L136.157 48.1272L133.532 48.1272L133.532 45.5022L138.782 45.5022L138.782 56.0022L141.407 56.0022L141.407 58.6272L133.532 58.6272Z"/>
<path d="M146.657 58.6272L146.657 45.5022L154.532 45.5022L154.532 48.1272L157.157 48.1272L157.157 56.0022L154.532 56.0022L154.532 58.6272L146.657 58.6272ZM149.282 50.7522L154.427 50.7522L154.427 48.1272L149.282 48.1272L149.282 50.7522ZM149.282 56.0022L154.427 56.0022L154.427 53.3772L149.282 53.3772L149.282 56.0022Z"/>
<path d="M162.407 58.6272L162.407 45.5022L165.032 45.5022L165.032 56.0022L170.282 56.0022L170.282 58.6272L162.407 58.6272Z"/>
<path d="M178.157 58.6272L178.157 56.0022L175.532 56.0022L175.532 48.1272L178.157 48.1272L178.157 45.5022L183.407 45.5022L183.407 48.1272L186.032 48.1272L186.032 56.0022L183.407 56.0022L183.407 58.6272L178.157 58.6272ZM178.157 55.8972L183.407 55.8972L183.407 48.2322L178.157 48.2322L178.157 55.8972Z"/>
<path d="M191.282 58.6272L191.282 45.5022L193.907 45.5022L193.907 50.7522L196.532 50.7522L196.532 53.3772L199.157 53.3772L199.157 56.0022L201.782 56.0022L201.782 58.6272L199.157 58.6272L199.157 56.0022L196.532 56.0022L196.532 53.3772L193.907 53.3772L193.907 58.6272L191.282 58.6272ZM199.157 48.1272L199.157 45.5022L201.782 45.5022L201.782 48.1272L199.157 48.1272ZM196.532 50.7522L196.532 48.1272L199.157 48.1272L199.157 50.7522L196.532 50.7522Z"/>
<path d="M230.175 56.3201L227.868 58.6272L215.584 58.6272L215.584 46.3635L217.891 44.0564L230.175 44.0564L230.175 56.3201ZM227.273 58.0427L227.273 46.948L216.168 46.948L216.168 58.0427L227.273 58.0427Z"/>
<path d="M246.592 58.6272L246.592 56.0022L243.967 56.0022L243.967 48.1272L246.592 48.1272L246.592 45.5022L254.467 45.5022L254.467 48.1272L257.092 48.1272L257.092 56.0022L254.467 56.0022L254.467 58.6272L246.592 58.6272ZM249.217 55.8972L251.842 55.8972L251.842 48.2322L249.217 48.2322L249.217 55.8972Z"/>
<path d="M264.967 58.6272L264.967 56.0022L262.342 56.0022L262.342 48.1272L264.967 48.1272L264.967 45.5022L272.842 45.5022L272.842 48.1272L267.592 48.1272L267.592 50.7522L272.842 50.7522L272.842 53.3772L275.467 53.3772L275.467 56.0022L272.842 56.0022L272.842 58.6272L264.967 58.6272ZM267.592 56.0022L270.217 56.0022L270.217 53.3772L267.592 53.3772L267.592 56.0022Z"/>
</g>
<g opacity="1">
<path d="M393.38 22.0003L393.38 16.2192L387.599 16.2192L387.599 10.4381L393.38 10.4381L393.38 4.657L387.599 4.657L387.599-1.12409L393.38-1.12409L393.38-6.90518L399.161-6.90518L399.161-1.12409L404.942-1.12409L404.942-6.90518L410.723-6.90518L410.723-1.12409L416.504-1.12409L416.504 4.657L410.723 4.657L410.723 10.4381L416.504 10.4381L416.504 16.2192L410.723 16.2192L410.723 22.0003L404.942 22.0003L404.942 16.2192L399.161 16.2192L399.161 22.0003L393.38 22.0003ZM399.161 10.4381L404.942 10.4381L404.942 4.657L399.161 4.657L399.161 10.4381Z" fill="#131313" fill-rule="nonzero" opacity="1" stroke="none"/>
<path d="M433.847 22.0003L433.847 16.2192L428.066 16.2192L428.066 10.4381L433.847 10.4381L433.847 4.657L428.066 4.657L428.066-1.12409L433.847-1.12409L433.847-6.90518L439.628-6.90518L439.628-1.12409L445.41-1.12409L445.41-6.90518L451.191-6.90518L451.191-1.12409L456.972-1.12409L456.972 4.657L451.191 4.657L451.191 10.4381L456.972 10.4381L456.972 16.2192L451.191 16.2192L451.191 22.0003L445.41 22.0003L445.41 16.2192L439.628 16.2192L439.628 22.0003L433.847 22.0003ZM439.628 10.4381L445.41 10.4381L445.41 4.657L439.628 4.657L439.628 10.4381Z" fill="#131313" fill-rule="nonzero" opacity="1" stroke="none"/>
<path d="M474.315 22.0003L474.315 16.2192L468.534 16.2192L468.534 10.4381L474.315 10.4381L474.315 4.657L468.534 4.657L468.534-1.12409L474.315-1.12409L474.315-6.90518L480.096-6.90518L480.096-1.12409L485.877-1.12409L485.877-6.90518L491.658-6.90518L491.658-1.12409L497.439-1.12409L497.439 4.657L491.658 4.657L491.658 10.4381L497.439 10.4381L497.439 16.2192L491.658 16.2192L491.658 22.0003L485.877 22.0003L485.877 16.2192L480.096 16.2192L480.096 22.0003L474.315 22.0003ZM480.096 10.4381L485.877 10.4381L485.877 4.657L480.096 4.657L480.096 10.4381Z" fill="#131313" fill-rule="nonzero" opacity="1" stroke="none"/>
<path d="M514.783 22.0003L514.783 16.2192L509.002 16.2192L509.002 10.4381L514.783 10.4381L514.783 4.657L509.002 4.657L509.002-1.12409L514.783-1.12409L514.783-6.90518L520.564-6.90518L520.564-1.12409L526.345-1.12409L526.345-6.90518L532.126-6.90518L532.126-1.12409L537.907-1.12409L537.907 4.657L532.126 4.657L532.126 10.4381L537.907 10.4381L537.907 16.2192L532.126 16.2192L532.126 22.0003L526.345 22.0003L526.345 16.2192L520.564 16.2192L520.564 22.0003L514.783 22.0003ZM520.564 10.4381L526.345 10.4381L526.345 4.657L520.564 4.657L520.564 10.4381Z" fill="#131313" fill-rule="nonzero" opacity="1" stroke="none"/>
<path d="M387.599 81.4629L387.599 52.5575L404.942 52.5575L404.942 58.3385L410.723 58.3385L410.723 64.1196L404.942 64.1196L404.942 69.9007L393.38 69.9007L393.38 81.4629L387.599 81.4629ZM393.38 64.1196L404.711 64.1196L404.711 58.3385L393.38 58.3385L393.38 64.1196Z" fill="#131313" fill-rule="nonzero" opacity="1" stroke="none"/>
<path d="M428.066 81.4629L428.066 75.6818L422.285 75.6818L422.285 58.3385L428.066 58.3385L428.066 52.5575L439.628 52.5575L439.628 58.3385L445.41 58.3385L445.41 75.6818L439.628 75.6818L439.628 81.4629L428.066 81.4629ZM428.066 75.4506L439.628 75.4506L439.628 58.5698L428.066 58.5698L428.066 75.4506Z" fill="#131313" fill-rule="nonzero" opacity="1" stroke="none"/>
<path d="M456.972 81.4629L456.972 52.5575L474.315 52.5575L474.315 58.3385L462.753 58.3385L462.753 64.1196L474.315 64.1196L474.315 69.9007L462.753 69.9007L462.753 75.6818L474.315 75.6818L474.315 81.4629L456.972 81.4629Z" fill="#131313" fill-rule="nonzero" opacity="1" stroke="none"/>
<path d="M485.877 81.4629L485.877 52.5575L491.658 52.5575L491.658 58.3385L497.439 58.3385L497.439 64.1196L503.22 64.1196L503.22 69.9007L497.439 69.9007L497.439 64.1196L491.658 64.1196L491.658 81.4629L485.877 81.4629ZM509.002 81.4629L509.002 64.1196L503.22 64.1196L503.22 58.3385L509.002 58.3385L509.002 52.5575L514.783 52.5575L514.783 81.4629L509.002 81.4629Z" fill="#131313" fill-rule="nonzero" opacity="1" stroke="none"/>
<path d="M532.126 58.3385L532.126 52.5575L549.469 52.5575L549.469 58.3385L532.126 58.3385ZM543.688 75.6818L543.688 69.9007L532.126 69.9007L532.126 64.1196L526.345 64.1196L526.345 58.3385L532.126 58.3385L532.126 64.1196L543.688 64.1196L543.688 69.9007L549.469 69.9007L549.469 75.6818L543.688 75.6818ZM526.345 81.4629L526.345 75.6818L543.688 75.6818L543.688 81.4629L526.345 81.4629Z" fill="#131313" fill-rule="nonzero" opacity="1" stroke="none"/>
</g>
</g>
</svg>
