<?xml version="1.0" encoding="UTF-8" standalone="no"?>
<!DOCTYPE svg PUBLIC "-//W3C//DTD SVG 1.1//EN" "http://www.w3.org/Graphics/SVG/1.1/DTD/svg11.dtd">
<!-- Created with Vectornator (http://vectornator.io/) -->
<svg height="37.000000000000156mm" stroke-miterlimit="10" style="fill-rule:nonzero;clip-rule:evenodd;stroke-linecap:round;stroke-linejoin:round;" version="1.1" viewBox="0 0 567 104.895" width="200.0mm" xml:space="preserve" xmlns="http://www.w3.org/2000/svg" xmlns:xlink="http://www.w3.org/1999/xlink">
<defs/>
<clipPath id="ArtboardFrame">
<rect height="104.895" width="567" x="0" y="0"/>
</clipPath>
<g clip-path="url(#ArtboardFrame)" id="Layer-1">
<path d="M8.86637e-14-0.144302L567-0.0519997L567 94.895C567 100.418 562.523 104.895 557 104.895L10 104.895C4.47715 104.895 1.77636e-15 100.418 9.27789e-15 94.895L8.86637e-14-0.144302Z" fill="#fccc8e" fill-rule="nonzero" opacity="1" stroke="none"/>
<g opacity="1">
<g opacity="1">
<g opacity="1">
<g opacity="1">
<path d="M443.691-63.3711C464.812-63.3711 482.576-56.2652 496.986-41.6586C511.592-27.2494 518.698-9.48458 518.698 11.8332C518.698 32.7562 511.592 50.521 497.183 65.1276C482.971 79.5368 465.206 86.8401 443.889 86.8401C422.768 86.8401 405.004 79.5368 390.397 65.325C375.988 50.7184 368.684 32.9536 368.684 12.0306C368.684-9.0898 375.988-26.8546 390.397-41.4612C405.004-56.0678 422.768-63.3711 443.691-63.3711ZM443.691-54.2914C425.532-54.2914 409.938-47.975 396.911-34.9475C384.278-21.9199 377.764-6.32639 377.764 12.0306C377.764 30.1901 384.278 45.7837 396.911 58.6138C409.938 71.2466 425.532 77.7603 443.691 77.7603C462.246 77.7603 477.839 71.2466 490.669 58.6138C503.302 45.9811 509.618 30.3875 509.618 12.0306C509.618-6.52378 503.302-22.3147 490.472-34.9475C477.839-47.975 462.246-54.2914 443.691-54.2914ZM443.691-34.9475C457.114-34.9475 468.167-30.605 477.05-21.5252C486.129-12.8402 490.472-1.7865 490.472 11.6358C490.472 24.6633 485.932 35.717 476.852 44.7968C467.97 53.8766 456.916 58.4164 443.691 58.4164C430.664 58.4164 419.61 53.8766 410.53 44.7968C401.451 35.717 396.911 24.6633 396.911 11.6358C396.911-1.58911 401.451-12.6428 410.53-21.5252C419.61-30.605 430.664-34.9475 443.691-34.9475ZM443.889-25.6703C433.427-25.6703 424.545-22.1173 417.241-15.0114C410.136-7.90548 406.385 0.779532 406.385 11.4384C406.385 21.8999 409.938 30.7823 417.044 38.283C424.545 45.3889 433.427 49.1393 443.691 49.1393C454.35 49.1393 463.233 45.5863 470.339 38.4804C477.444 31.1771 480.997 22.2947 480.997 11.6358C480.997 0.976918 477.642-7.90548 470.536-15.0114C463.43-22.1173 454.548-25.6703 443.889-25.6703Z" fill="#131313" fill-rule="nonzero" opacity="1" stroke="none"/>
</g>
</g>
</g>
<path d="M431.076 11.7345C431.076 4.76723 436.724-0.880847 443.691-0.880847C450.659-0.880847 456.307 4.76723 456.307 11.7345C456.307 18.7018 450.659 24.3498 443.691 24.3498C436.724 24.3498 431.076 18.7018 431.076 11.7345Z" fill="#131313" fill-rule="nonzero" opacity="1" stroke="none"/>
</g>
<g opacity="1"/>
<path d="M98.3917 5.41994L374.433 5.41994L374.433 122.864L98.3917 122.864L98.3917 5.41994Z" fill="#16a321" fill-rule="nonzero" opacity="0" stroke="none"/>
<g fill="#131313" opacity="1" stroke="none">
<path d="M83.657 58.6272L83.657 45.5022L86.282 45.5022L86.282 48.1272L88.907 48.1272L88.907 50.7522L91.532 50.7522L91.532 53.3772L88.907 53.3772L88.907 50.7522L86.282 50.7522L86.282 58.6272L83.657 58.6272ZM94.157 58.6272L94.157 50.7522L91.532 50.7522L91.532 48.1272L94.157 48.1272L94.157 45.5022L96.782 45.5022L96.782 58.6272L94.157 58.6272Z"/>
<path d="M102.032 58.6272L102.032 56.0022L104.657 56.0022L104.657 48.1272L102.032 48.1272L102.032 45.5022L107.282 45.5022L107.282 56.0022L109.907 56.0022L109.907 58.6272L102.032 58.6272Z"/>
<path d="M115.157 58.6272L115.157 45.5022L117.782 45.5022L117.782 48.1272L120.407 48.1272L120.407 50.7522L123.032 50.7522L123.032 53.3772L125.657 53.3772L125.657 45.5022L128.282 45.5022L128.282 58.6272L125.657 58.6272L125.657 56.0022L123.032 56.0022L123.032 53.3772L120.407 53.3772L120.407 50.7522L117.782 50.7522L117.782 58.6272L115.157 58.6272Z"/>
<path d="M133.532 58.6272L133.532 56.0022L136.157 56.0022L136.157 48.1272L133.532 48.1272L133.532 45.5022L138.782 45.5022L138.782 56.0022L141.407 56.0022L141.407 58.6272L133.532 58.6272Z"/>
<path d="M146.657 58.6272L146.657 45.5022L154.532 45.5022L154.532 48.1272L157.157 48.1272L157.157 56.0022L154.532 56.0022L154.532 58.6272L146.657 58.6272ZM149.282 50.7522L154.427 50.7522L154.427 48.1272L149.282 48.1272L149.282 50.7522ZM149.282 56.0022L154.427 56.0022L154.427 53.3772L149.282 53.3772L149.282 56.0022Z"/>
<path d="M162.407 58.6272L162.407 45.5022L165.032 45.5022L165.032 56.0022L170.282 56.0022L170.282 58.6272L162.407 58.6272Z"/>
<path d="M178.157 58.6272L178.157 56.0022L175.532 56.0022L175.532 48.1272L178.157 48.1272L178.157 45.5022L183.407 45.5022L183.407 48.1272L186.032 48.1272L186.032 56.0022L183.407 56.0022L183.407 58.6272L178.157 58.6272ZM178.157 55.8972L183.407 55.8972L183.407 48.2322L178.157 48.2322L178.157 55.8972Z"/>
<path d="M191.282 58.6272L191.282 45.5022L193.907 45.5022L193.907 50.7522L196.532 50.7522L196.532 53.3772L199.157 53.3772L199.157 56.0022L201.782 56.0022L201.782 58.6272L199.157 58.6272L199.157 56.0022L196.532 56.0022L196.532 53.3772L193.907 53.3772L193.907 58.6272L191.282 58.6272ZM199.157 48.1272L199.157 45.5022L201.782 45.5022L201.782 48.1272L199.157 48.1272ZM196.532 50.7522L196.532 48.1272L199.157 48.1272L199.157 50.7522L196.532 50.7522Z"/>
<path d="M230.175 56.3201L227.868 58.6272L215.584 58.6272L215.584 46.3635L217.891 44.0564L230.175 44.0564L230.175 56.3201ZM227.273 58.0427L227.273 46.948L216.168 46.948L216.168 58.0427L227.273 58.0427Z"/>
<path d="M246.592 58.6272L246.592 56.0022L243.967 56.0022L243.967 48.1272L246.592 48.1272L246.592 45.5022L254.467 45.5022L254.467 48.1272L257.092 48.1272L257.092 56.0022L254.467 56.0022L254.467 58.6272L246.592 58.6272ZM249.217 55.8972L251.842 55.8972L251.842 48.2322L249.217 48.2322L249.217 55.8972Z"/>
<path d="M262.342 58.6272L262.342 56.0022L264.967 56.0022L264.967 48.1272L262.342 48.1272L262.342 45.5022L270.217 45.5022L270.217 56.0022L272.842 56.0022L272.842 58.6272L262.342 58.6272Z"/>
</g>
</g>
</svg>
