<?xml version="1.0" encoding="UTF-8" standalone="no"?>
<!DOCTYPE svg PUBLIC "-//W3C//DTD SVG 1.1//EN" "http://www.w3.org/Graphics/SVG/1.1/DTD/svg11.dtd">
<!-- Created with Vectornator (http://vectornator.io/) -->
<svg height="100%" stroke-miterlimit="10" style="fill-rule:nonzero;clip-rule:evenodd;stroke-linecap:round;stroke-linejoin:round;" version="1.1" viewBox="0 0 567 104.895" width="100%" xml:space="preserve" xmlns="http://www.w3.org/2000/svg" xmlns:vectornator="http://vectornator.io" xmlns:xlink="http://www.w3.org/1999/xlink">
<defs>
<path d="M373.524-33.7533L373.524-19.8146C373.524-16.9464 373.524-12.6246 373.524-8.33573L361.351-8.33573L361.351 5.60295C361.351 16.051 361.351 36.9709 361.351 47.419L361.351 61.3577L373.524 61.3577C373.524 65.6465 373.524 69.9684 373.524 72.8366L373.524 86.7752L387.526 86.7752C436.408 86.7752 534.163 86.7752 583.046 86.7752L596.984 86.7752L596.984 72.8366C596.984 69.9684 596.984 65.6465 596.984 61.3577L609.22 61.3577L609.22 47.419C609.22 36.9709 609.22 16.051 609.22 5.60295L609.22-8.33573L596.984-8.33573C596.984-12.6246 596.984-16.9464 596.984-19.8146L596.984-33.7533L583.046-33.7533C534.163-33.7533 436.408-33.7533 387.526-33.7533L373.524-33.7533Z" id="Fill"/>
</defs>
<path d="M0 0L567 0L567 104.895L0 104.895L0 0Z" fill="#ffffff" fill-rule="nonzero" opacity="1" stroke="none"/>
<clipPath id="ArtboardFrame">
<rect height="104.895" width="567" x="0" y="0"/>
</clipPath>
<g clip-path="url(#ArtboardFrame)" id="Layer-1" vectornator:layerName="Layer 1">
<path d="M8.80426e-14 10C9.23706e-14 4.47715 4.47715-2.66454e-14 10-2.73133e-14L557 3.31404e-14C562.523 3.37508e-14 567 4.47715 567 10L567 94.895C567 100.418 562.523 104.895 557 104.895L10 104.895C4.47715 104.895 1.77636e-15 100.418 9.27789e-15 94.895L8.80426e-14 10Z" fill="#fccc8e" fill-rule="nonzero" opacity="1" stroke="none" vectornator:layerName="Rectangle 2"/>
<g opacity="1" vectornator:layerName="Group 11">
<g fill="#fccc8e" opacity="1" stroke="none" vectornator:layerName="Text 2">
<path d="M112.185 134.826L111.353 134.826L111.657 132.602L112.505 132.602L112.633 131.658L111.801 131.658L112.105 129.434L112.937 129.434L113.161 127.866L115.417 127.866L115.193 129.434L115.737 129.434L115.961 127.866L118.217 127.866L117.993 129.434L118.825 129.434L118.521 131.658L117.689 131.658L117.545 132.602L118.377 132.602L118.073 134.826L117.241 134.826L117.017 136.394L114.761 136.394L114.985 134.826L114.441 134.826L114.217 136.394L111.961 136.394L112.185 134.826ZM114.745 132.602L115.289 132.602L115.433 131.658L114.889 131.658L114.745 132.602Z"/>
<path d="M129.253 133.21C129.253 135.023 128.874 136.41 128.117 137.37C127.359 138.33 126.303 138.81 124.949 138.81C123.594 138.81 122.538 138.33 121.781 137.37C121.023 136.41 120.645 135.023 120.645 133.21C120.645 131.396 121.023 130.01 121.781 129.05C122.538 128.09 123.594 127.61 124.949 127.61C126.303 127.61 127.359 128.09 128.117 129.05C128.874 130.01 129.253 131.396 129.253 133.21ZM125.973 133.21C125.973 131.535 125.631 130.698 124.949 130.698C124.266 130.698 123.925 131.535 123.925 133.21C123.925 134.884 124.266 135.722 124.949 135.722C125.631 135.722 125.973 134.884 125.973 133.21Z"/>
<path d="M133.633 130.842L130.705 130.842L131.889 127.866L138.401 127.866L134.193 138.538L130.593 138.538L133.633 130.842Z"/>
<path d="M112.193 150.53L117.713 150.53C118.737 150.53 119.685 150.666 120.557 150.938C121.429 151.21 122.185 151.61 122.825 152.138C123.465 152.666 123.965 153.318 124.325 154.094C124.685 154.87 124.865 155.762 124.865 156.77C124.865 157.57 124.753 158.25 124.529 158.81C124.305 159.37 124.057 159.834 123.785 160.202C123.465 160.618 123.105 160.97 122.705 161.258L125.705 166.538L119.705 166.538L117.305 162.482L117.305 166.538L112.193 166.538L112.193 150.53ZM117.305 158.402L117.569 158.402C118.177 158.402 118.693 158.266 119.117 157.994C119.541 157.722 119.753 157.266 119.753 156.626C119.753 155.986 119.541 155.53 119.117 155.258C118.693 154.986 118.177 154.85 117.569 154.85L117.305 154.85L117.305 158.402Z"/>
<path d="M127.685 150.53L137.117 150.53L137.117 154.73L132.797 154.73L132.797 156.506L137.045 156.506L137.045 160.49L132.797 160.49L132.797 162.338L137.285 162.338L137.285 166.538L127.685 166.538L127.685 150.53Z"/>
<path d="M142.337 154.73L139.385 154.73L139.385 150.53L150.569 150.53L150.569 154.73L147.617 154.73L147.617 166.538L142.337 166.538L142.337 154.73Z"/>
<path d="M152.909 150.53L158.021 150.53L158.021 155.978L160.877 155.978L160.877 150.53L166.013 150.53L166.013 166.538L160.877 166.538L160.877 160.61L158.021 160.61L158.021 166.538L152.909 166.538L152.909 150.53Z"/>
<path d="M169.193 150.53L174.617 150.53L174.617 166.538L169.193 166.538L169.193 150.53Z"/>
<path d="M177.797 150.53L181.997 150.53L186.413 156.698L186.413 150.53L191.429 150.53L191.429 166.538L187.205 166.538L182.813 160.394L182.813 166.538L177.797 166.538L177.797 150.53Z"/>
<path d="M194.609 150.53L199.793 150.53L199.793 154.226L202.817 150.53L209.081 150.53L203.441 157.85L209.369 166.538L203.201 166.538L199.793 161.594L199.793 166.538L194.609 166.538L194.609 150.53Z"/>
<path d="M211.349 150.53L216.773 150.53L216.773 166.538L211.349 166.538L211.349 150.53Z"/>
<path d="M219.953 150.53L224.153 150.53L228.569 156.698L228.569 150.53L233.585 150.53L233.585 166.538L229.361 166.538L224.969 160.394L224.969 166.538L219.953 166.538L219.953 150.53Z"/>
<path d="M246.965 155.978C246.677 155.722 246.317 155.526 245.885 155.39C245.453 155.254 245.029 155.186 244.613 155.186C244.149 155.186 243.725 155.27 243.341 155.438C242.957 155.606 242.625 155.838 242.345 156.134C242.065 156.43 241.845 156.786 241.685 157.202C241.525 157.618 241.445 158.066 241.445 158.546C241.445 159.026 241.533 159.474 241.709 159.89C241.885 160.306 242.125 160.662 242.429 160.958C242.733 161.254 243.089 161.486 243.497 161.654C243.905 161.822 244.341 161.906 244.805 161.906C245.349 161.906 245.845 161.79 246.293 161.558C246.741 161.326 247.125 161.01 247.445 160.61L246.005 160.61L246.005 157.25L252.173 157.25L252.173 162.578C251.805 163.234 251.365 163.83 250.853 164.366C250.341 164.902 249.769 165.362 249.137 165.746C248.505 166.13 247.821 166.426 247.085 166.634C246.349 166.842 245.589 166.946 244.805 166.946C243.653 166.946 242.565 166.73 241.541 166.298C240.517 165.866 239.625 165.274 238.865 164.522C238.105 163.77 237.505 162.882 237.065 161.858C236.625 160.834 236.405 159.73 236.405 158.546C236.405 157.394 236.613 156.306 237.029 155.282C237.445 154.258 238.017 153.366 238.745 152.606C239.473 151.846 240.337 151.246 241.337 150.806C242.337 150.366 243.413 150.146 244.565 150.146C245.461 150.146 246.237 150.234 246.893 150.41C247.549 150.586 248.101 150.786 248.549 151.01C249.077 151.266 249.517 151.546 249.869 151.85L246.965 155.978Z"/>
<path d="M112.193 196.538L112.193 180.53L116.633 180.53C118.137 180.53 119.477 180.698 120.653 181.034C121.829 181.37 122.821 181.874 123.629 182.546C124.437 183.218 125.053 184.054 125.477 185.054C125.901 186.054 126.113 187.21 126.113 188.522C126.113 189.834 125.901 190.99 125.477 191.99C125.053 192.99 124.437 193.826 123.629 194.498C122.821 195.17 121.829 195.678 120.653 196.022C119.477 196.366 118.137 196.538 116.633 196.538L112.193 196.538ZM117.305 191.978C118.505 191.978 119.433 191.694 120.089 191.126C120.745 190.558 121.073 189.69 121.073 188.522C121.073 187.354 120.745 186.49 120.089 185.93C119.433 185.37 118.505 185.09 117.305 185.09L117.305 191.978Z"/>
<path d="M128.933 180.53L138.365 180.53L138.365 184.73L134.045 184.73L134.045 186.506L138.293 186.506L138.293 190.49L134.045 190.49L134.045 192.338L138.533 192.338L138.533 196.538L128.933 196.538L128.933 180.53Z"/>
<path d="M141.473 180.53L150.905 180.53L150.905 184.73L146.585 184.73L146.585 186.506L150.833 186.506L150.833 190.49L146.585 190.49L146.585 196.538L141.473 196.538L141.473 180.53Z"/>
<path d="M153.725 180.53L159.149 180.53L159.149 196.538L153.725 196.538L153.725 180.53Z"/>
<path d="M172.901 180.53L175.613 187.49L178.349 180.53L183.941 180.53L177.701 196.538L173.549 196.538L167.309 180.53L172.901 180.53Z"/>
<path d="M187.673 180.53L191.513 180.53L197.585 196.538L192.545 196.538L192.017 195.098L187.169 195.098L186.641 196.538L181.601 196.538L187.673 180.53ZM190.673 191.57L189.593 188.762L188.513 191.57L190.673 191.57Z"/>
<path d="M199.445 180.53L204.773 180.53L204.773 192.338L209.189 192.338L209.189 196.538L199.445 196.538L199.445 180.53Z"/>
<path d="M218.081 196.946C217.073 196.946 216.161 196.818 215.345 196.562C214.529 196.306 213.833 195.922 213.257 195.41C212.681 194.898 212.237 194.25 211.925 193.466C211.613 192.682 211.457 191.762 211.457 190.706L211.457 180.53L216.569 180.53L216.569 190.49C216.569 191.05 216.685 191.478 216.917 191.774C217.149 192.07 217.537 192.218 218.081 192.218C218.625 192.218 219.013 192.07 219.245 191.774C219.477 191.478 219.593 191.05 219.593 190.49L219.593 180.53L224.729 180.53L224.729 190.706C224.729 191.762 224.573 192.682 224.261 193.466C223.949 194.25 223.501 194.898 222.917 195.41C222.333 195.922 221.633 196.306 220.817 196.562C220.001 196.818 219.089 196.946 218.081 196.946Z"/>
<path d="M227.837 180.53L237.269 180.53L237.269 184.73L232.949 184.73L232.949 186.506L237.197 186.506L237.197 190.49L232.949 190.49L232.949 192.338L237.437 192.338L237.437 196.538L227.837 196.538L227.837 180.53Z"/>
<path d="M239.945 191.57C240.297 191.682 240.665 191.77 241.049 191.834C241.369 191.914 241.733 191.978 242.141 192.026C242.549 192.074 242.961 192.098 243.377 192.098C244.113 192.098 244.481 191.826 244.481 191.282C244.481 191.074 244.369 190.862 244.145 190.646C243.921 190.43 243.637 190.19 243.293 189.926C242.949 189.662 242.581 189.37 242.189 189.05C241.797 188.73 241.429 188.362 241.085 187.946C240.741 187.53 240.457 187.062 240.233 186.542C240.009 186.022 239.897 185.426 239.897 184.754C239.897 184.002 240.033 183.338 240.305 182.762C240.577 182.186 240.953 181.706 241.433 181.322C241.913 180.938 242.477 180.646 243.125 180.446C243.773 180.246 244.465 180.146 245.201 180.146C245.585 180.146 245.969 180.166 246.353 180.206C246.737 180.246 247.081 180.282 247.385 180.314C247.737 180.362 248.081 180.41 248.417 180.458L248.417 184.946C248.289 184.93 248.145 184.914 247.985 184.898C247.857 184.882 247.713 184.866 247.553 184.85C247.393 184.834 247.225 184.826 247.049 184.826C246.953 184.826 246.833 184.83 246.689 184.838C246.545 184.846 246.409 184.866 246.281 184.898C246.153 184.93 246.041 184.986 245.945 185.066C245.849 185.146 245.801 185.258 245.801 185.402C245.801 185.53 245.909 185.69 246.125 185.882C246.341 186.074 246.605 186.298 246.917 186.554C247.229 186.81 247.573 187.106 247.949 187.442C248.325 187.778 248.669 188.162 248.981 188.594C249.293 189.026 249.557 189.514 249.773 190.058C249.989 190.602 250.097 191.21 250.097 191.882C250.097 192.586 249.985 193.246 249.761 193.862C249.537 194.478 249.189 195.014 248.717 195.47C248.245 195.926 247.641 196.286 246.905 196.55C246.169 196.814 245.297 196.946 244.289 196.946C243.681 196.946 243.117 196.918 242.597 196.862C242.077 196.806 241.617 196.738 241.217 196.658C240.753 196.578 240.329 196.482 239.945 196.37L239.945 191.57Z"/>
</g>
</g>
<g opacity="1" vectornator:layerName="Group 12"/>
<path d="M98.3917 5.41994L374.433 5.41994L374.433 122.864L98.3917 122.864L98.3917 5.41994Z" fill="#16a321" fill-rule="nonzero" opacity="0" stroke="none" vectornator:layerName="Rectangle 3"/>
<g fill="#131313" opacity="1" stroke="none" vectornator:layerName="Text 2">
<path d="M83.282 55.6272L83.282 44.3772L85.532 44.3772L85.532 46.6272L87.782 46.6272L87.782 48.8772L90.032 48.8772L90.032 51.1272L87.782 51.1272L87.782 48.8772L85.532 48.8772L85.532 55.6272L83.282 55.6272ZM92.282 55.6272L92.282 48.8772L90.032 48.8772L90.032 46.6272L92.282 46.6272L92.282 44.3772L94.532 44.3772L94.532 55.6272L92.282 55.6272Z"/>
<path d="M99.032 55.6272L99.032 53.3772L101.282 53.3772L101.282 46.6272L99.032 46.6272L99.032 44.3772L103.532 44.3772L103.532 53.3772L105.782 53.3772L105.782 55.6272L99.032 55.6272Z"/>
<path d="M110.282 55.6272L110.282 44.3772L112.532 44.3772L112.532 46.6272L114.782 46.6272L114.782 48.8772L117.032 48.8772L117.032 51.1272L119.282 51.1272L119.282 44.3772L121.532 44.3772L121.532 55.6272L119.282 55.6272L119.282 53.3772L117.032 53.3772L117.032 51.1272L114.782 51.1272L114.782 48.8772L112.532 48.8772L112.532 55.6272L110.282 55.6272Z"/>
<path d="M126.032 55.6272L126.032 53.3772L128.282 53.3772L128.282 46.6272L126.032 46.6272L126.032 44.3772L130.532 44.3772L130.532 53.3772L132.782 53.3772L132.782 55.6272L126.032 55.6272Z"/>
<path d="M137.282 55.6272L137.282 44.3772L144.032 44.3772L144.032 46.6272L146.282 46.6272L146.282 53.3772L144.032 53.3772L144.032 55.6272L137.282 55.6272ZM139.532 48.8772L143.942 48.8772L143.942 46.6272L139.532 46.6272L139.532 48.8772ZM139.532 53.3772L143.942 53.3772L143.942 51.1272L139.532 51.1272L139.532 53.3772Z"/>
<path d="M150.782 55.6272L150.782 44.3772L153.032 44.3772L153.032 53.3772L157.532 53.3772L157.532 55.6272L150.782 55.6272Z"/>
<path d="M164.282 55.6272L164.282 53.3772L162.032 53.3772L162.032 46.6272L164.282 46.6272L164.282 44.3772L168.782 44.3772L168.782 46.6272L171.032 46.6272L171.032 53.3772L168.782 53.3772L168.782 55.6272L164.282 55.6272ZM164.282 53.2872L168.782 53.2872L168.782 46.7172L164.282 46.7172L164.282 53.2872Z"/>
<path d="M175.532 55.6272L175.532 44.3772L177.782 44.3772L177.782 48.8772L180.032 48.8772L180.032 51.1272L182.282 51.1272L182.282 53.3772L184.532 53.3772L184.532 55.6272L182.282 55.6272L182.282 53.3772L180.032 53.3772L180.032 51.1272L177.782 51.1272L177.782 55.6272L175.532 55.6272ZM182.282 46.6272L182.282 44.3772L184.532 44.3772L184.532 46.6272L182.282 46.6272ZM180.032 48.8772L180.032 46.6272L182.282 46.6272L182.282 48.8772L180.032 48.8772Z"/>
<path d="M208.869 53.6497L206.891 55.6272L196.362 55.6272L196.362 45.1155L198.34 43.138L208.869 43.138L208.869 53.6497ZM206.382 55.1262L206.382 45.6165L196.863 45.6165L196.863 55.1262L206.382 55.1262Z"/>
<path d="M222.94 55.6272L222.94 53.3772L220.69 53.3772L220.69 46.6272L222.94 46.6272L222.94 44.3772L229.69 44.3772L229.69 46.6272L231.94 46.6272L231.94 53.3772L229.69 53.3772L229.69 55.6272L222.94 55.6272ZM225.19 53.2872L227.44 53.2872L227.44 46.7172L225.19 46.7172L225.19 53.2872Z"/>
<path d="M236.44 55.6272L236.44 53.3772L243.19 53.3772L243.19 51.1272L236.44 51.1272L236.44 44.3772L247.69 44.3772L247.69 46.6272L240.94 46.6272L240.94 48.8772L245.44 48.8772L245.44 51.1272L247.69 51.1272L247.69 53.3772L245.44 53.3772L245.44 55.6272L236.44 55.6272Z"/>
</g>
<g opacity="1" vectornator:layerName="Group 13">
<g opacity="1" vectornator:layerName="Group 13">
<g opacity="1" vectornator:layerName="Curve 2">
<use fill="#fccc8e" fill-rule="nonzero" stroke="none" xlink:href="#Fill"/>
<mask height="120.529" id="StrokeMask" maskUnits="userSpaceOnUse" width="247.869" x="361.351" y="-33.7533">
<rect fill="#000000" height="120.529" stroke="none" width="247.869" x="361.351" y="-33.7533"/>
<use fill="#ffffff" fill-rule="evenodd" stroke="none" xlink:href="#Fill"/>
</mask>
<use fill="none" mask="url(#StrokeMask)" stroke="#131313" stroke-linecap="butt" stroke-linejoin="miter" stroke-width="6.02" xlink:href="#Fill"/>
</g>
<path d="M386.711-20.2708L386.711 5.13327L374.502 5.13327L374.502 46.9255L386.711 46.9255L386.711 72.3296L582.242 72.3296L582.242 46.9255L594.451 46.9255L594.451 5.13327L582.242 5.13327L582.242-20.2708L386.711-20.2708ZM401.738-5.24436C425.959-5.24436 542.994-5.24436 567.216-5.24436L567.216 20.1597L579.425 20.1597L579.425 31.8991L567.216 31.8991L567.216 57.3031L401.738 57.3031L401.738 31.8991L389.529 31.8991L389.529 20.1597L401.738 20.1597L401.738-5.24436Z" fill="#131313" fill-rule="nonzero" opacity="1" stroke="none" vectornator:layerName="Curve 1"/>
<g opacity="1" vectornator:layerName="Group 15">
<path d="M476.771 17.8308L468.438 17.8308L468.438 5.97412L500.01 5.97412L500.01 17.8308L491.677 17.8308L491.677 51.1649L476.771 51.1649L476.771 17.8308Z" fill="#131313" fill-rule="nonzero" opacity="1" stroke="none"/>
</g>
</g>
</g>
</g>
</svg>
