<?xml version="1.0" encoding="UTF-8" standalone="no"?>
<!DOCTYPE svg PUBLIC "-//W3C//DTD SVG 1.1//EN" "http://www.w3.org/Graphics/SVG/1.1/DTD/svg11.dtd">
<!-- Created with Vectornator (http://vectornator.io/) -->
<svg height="100%" stroke-miterlimit="10" style="fill-rule:nonzero;clip-rule:evenodd;stroke-linecap:round;stroke-linejoin:round;" version="1.1" viewBox="0 0 379.89 226.8" width="100%" xml:space="preserve" xmlns="http://www.w3.org/2000/svg" xmlns:vectornator="http://vectornator.io" xmlns:xlink="http://www.w3.org/1999/xlink">
<defs/>
<g id="Layer-1" vectornator:layerName="Layer 1">
<path d="M5.5249 15.8985C5.5249 10.3757 10.0021 5.89853 15.5249 5.89853L364.365 5.89853C369.888 5.89853 374.365 10.3757 374.365 15.8985L374.365 210.901C374.365 216.424 369.888 220.901 364.365 220.901L15.5249 220.901C10.0021 220.901 5.5249 216.424 5.5249 210.901L5.5249 15.8985Z" fill="#fccc8e" fill-rule="nonzero" opacity="1" stroke="none" vectornator:layerName="Rectangle 2"/>
<path d="M5.5249 112.705L374.365 112.705L374.365 210.708C374.365 216.231 369.888 220.708 364.365 220.708L15.5249 220.708C10.0021 220.708 5.5249 216.231 5.5249 210.708L5.5249 112.705Z" fill="#131313" fill-rule="nonzero" opacity="1" stroke="none" vectornator:layerName="Rectangle 5"/>
<g opacity="1" vectornator:layerName="Group 11">
<g opacity="1" vectornator:layerName="Group 10">
<path d="M20.5768 154.056L36.1742 138.458L98.564 138.458L98.564 190.45L83.7415 205.894L20.5768 206.047L20.5768 154.056Z" fill="#fccc8e" fill-rule="nonzero" opacity="1" stroke="none" vectornator:layerName="Curve 4"/>
<g opacity="1" vectornator:layerName="Group 9">
<path d="M29.4287 165.11L32.951 165.11L36.4333 170.234L39.8955 165.11L44.58 165.108L44.58 178.482L39.155 178.459L39.155 173.656L36.4333 177.658L33.6915 173.656L33.6915 178.459L29.4287 178.459L29.4287 165.11Z" fill="#131313" fill-rule="nonzero" opacity="1" stroke="none"/>
<path d="M47.0424 165.11L51.5653 165.11L51.5653 178.459L47.0424 178.459L47.0424 165.11Z" fill="#131313" fill-rule="nonzero" opacity="1" stroke="none"/>
<path d="M55.1899 165.11L58.6922 165.11L62.3745 170.254L62.3745 165.11L67.3128 165.108L67.3128 178.482L63.035 178.459L59.3726 173.336L59.3726 178.459L55.1899 178.459L55.1899 165.11Z" fill="#131313" fill-rule="nonzero" opacity="1" stroke="none"/>
<path d="M69.7011 165.108L74.7048 165.11L74.7048 178.459L69.7011 178.482L69.7011 165.108Z" fill="#131313" fill-rule="nonzero" opacity="1" stroke="none"/>
<path d="M29.4287 181.788L34.6521 181.788C35.3192 181.788 35.9296 181.864 36.4833 182.018C37.037 182.171 37.5106 182.398 37.9042 182.698C38.2978 182.998 38.6047 183.372 38.8248 183.819C39.045 184.266 39.155 184.79 39.155 185.39C39.155 185.817 39.1017 186.181 38.9949 186.481C38.8882 186.781 38.7748 187.031 38.6547 187.231C38.5079 187.471 38.3412 187.672 38.1544 187.832C38.4479 188.018 38.7147 188.259 38.9549 188.552C39.155 188.806 39.3385 189.126 39.5053 189.513C39.672 189.9 39.7554 190.373 39.7554 190.934C39.7554 191.574 39.642 192.154 39.4152 192.675C39.1884 193.195 38.8648 193.639 38.4446 194.006C38.0243 194.373 37.5106 194.653 36.9036 194.846C36.2965 195.04 35.6194 195.136 34.8722 195.136L29.4287 195.136L29.4287 181.788ZM34.0317 191.994C35.0457 191.994 35.5527 191.607 35.5527 190.834C35.5527 190.06 35.0457 189.673 34.0317 189.673L33.5514 189.673L33.5514 191.994L34.0317 191.994ZM35.0324 185.85C35.0324 185.237 34.6988 184.93 34.0317 184.93L33.5514 184.93L33.5514 186.771L34.0317 186.771C34.6988 186.771 35.0324 186.464 35.0324 185.85Z" fill="#131313" fill-rule="nonzero" opacity="1" stroke="none"/>
<path d="M40.2113 181.788L44.6542 181.788L44.6542 191.634L48.3365 191.634L48.3365 195.136L40.2113 195.136L40.2113 181.788Z" fill="#131313" fill-rule="nonzero" opacity="1" stroke="none"/>
<path d="M48.2921 188.472C48.2921 187.511 48.4755 186.604 48.8424 185.75C49.2093 184.896 49.7097 184.153 50.3434 183.519C50.9772 182.885 51.721 182.385 52.5749 182.018C53.4287 181.651 54.336 181.467 55.2966 181.467C56.2572 181.467 57.1645 181.651 58.0184 182.018C58.8723 182.385 59.6161 182.885 60.2498 183.519C60.8836 184.153 61.3839 184.896 61.7508 185.75C62.1177 186.604 62.3012 187.511 62.3012 188.472C62.3012 189.433 62.1177 190.34 61.7508 191.194C61.3839 192.048 60.8836 192.792 60.2498 193.425C59.6161 194.059 58.8723 194.559 58.0184 194.926C57.1645 195.293 56.2572 195.477 55.2966 195.477C54.336 195.477 53.4287 195.293 52.5749 194.926C51.721 194.559 50.9772 194.059 50.3434 193.425C49.7097 192.792 49.2093 192.048 48.8424 191.194C48.4755 190.34 48.2921 189.433 48.2921 188.472ZM52.4948 188.472C52.4948 188.859 52.5682 189.223 52.7149 189.563C52.8617 189.903 53.0618 190.2 53.3153 190.453C53.5688 190.707 53.8657 190.907 54.2059 191.054C54.5461 191.2 54.9097 191.274 55.2966 191.274C55.6835 191.274 56.0471 191.2 56.3873 191.054C56.7276 190.907 57.0244 190.707 57.2779 190.453C57.5314 190.2 57.7315 189.903 57.8783 189.563C58.0251 189.223 58.0984 188.859 58.0984 188.472C58.0984 188.085 58.0251 187.722 57.8783 187.381C57.7315 187.041 57.5314 186.744 57.2779 186.491C57.0244 186.237 56.7276 186.037 56.3873 185.89C56.0471 185.744 55.6835 185.67 55.2966 185.67C54.9097 185.67 54.5461 185.744 54.2059 185.89C53.8657 186.037 53.5688 186.237 53.3153 186.491C53.0618 186.744 52.8617 187.041 52.7149 187.381C52.5682 187.722 52.4948 188.085 52.4948 188.472Z" fill="#131313" fill-rule="nonzero" opacity="1" stroke="none"/>
<path d="M62.9572 181.788L67.28 181.788L67.28 184.87L69.8016 181.788L75.025 181.788L70.3219 187.892L75.2651 195.136L70.1218 195.136L67.28 191.014L67.28 195.136L62.9572 195.136L62.9572 181.788Z" fill="#131313" fill-rule="nonzero" opacity="1" stroke="none"/>
</g>
</g>
<g fill="#fccc8e" opacity="1" stroke="none" vectornator:layerName="Text 2">
<path d="M112.185 134.826L111.353 134.826L111.657 132.602L112.505 132.602L112.633 131.658L111.801 131.658L112.105 129.434L112.937 129.434L113.161 127.866L115.417 127.866L115.193 129.434L115.737 129.434L115.961 127.866L118.217 127.866L117.993 129.434L118.825 129.434L118.521 131.658L117.689 131.658L117.545 132.602L118.377 132.602L118.073 134.826L117.241 134.826L117.017 136.394L114.761 136.394L114.985 134.826L114.441 134.826L114.217 136.394L111.961 136.394L112.185 134.826ZM114.745 132.602L115.289 132.602L115.433 131.658L114.889 131.658L114.745 132.602Z"/>
<path d="M129.253 133.21C129.253 135.023 128.874 136.41 128.117 137.37C127.359 138.33 126.303 138.81 124.949 138.81C123.594 138.81 122.538 138.33 121.781 137.37C121.023 136.41 120.645 135.023 120.645 133.21C120.645 131.396 121.023 130.01 121.781 129.05C122.538 128.09 123.594 127.61 124.949 127.61C126.303 127.61 127.359 128.09 128.117 129.05C128.874 130.01 129.253 131.396 129.253 133.21ZM125.973 133.21C125.973 131.535 125.631 130.698 124.949 130.698C124.266 130.698 123.925 131.535 123.925 133.21C123.925 134.884 124.266 135.722 124.949 135.722C125.631 135.722 125.973 134.884 125.973 133.21Z"/>
<path d="M131.953 132.026L130.513 130.346L132.849 127.866L135.409 127.866L135.409 138.538L131.953 138.538L131.953 132.026Z"/>
<path d="M111.833 160.546C111.833 159.266 112.057 158.11 112.505 157.078C112.953 156.046 113.561 155.162 114.329 154.426C115.097 153.69 115.993 153.126 117.017 152.734C118.041 152.342 119.129 152.146 120.281 152.146C121.193 152.146 122.005 152.234 122.717 152.41C123.429 152.586 124.041 152.786 124.553 153.01C125.145 153.266 125.657 153.546 126.089 153.85L123.569 158.29C123.313 158.098 123.033 157.914 122.729 157.738C122.457 157.61 122.133 157.486 121.757 157.366C121.381 157.246 120.953 157.186 120.473 157.186C119.977 157.186 119.521 157.274 119.105 157.45C118.689 157.626 118.325 157.866 118.013 158.17C117.701 158.474 117.457 158.83 117.281 159.238C117.105 159.646 117.017 160.082 117.017 160.546C117.017 161.01 117.109 161.446 117.293 161.854C117.477 162.262 117.729 162.618 118.049 162.922C118.369 163.226 118.745 163.466 119.177 163.642C119.609 163.818 120.081 163.906 120.593 163.906C121.105 163.906 121.561 163.842 121.961 163.714C122.361 163.586 122.697 163.442 122.969 163.282C123.289 163.106 123.569 162.898 123.809 162.658L126.329 167.098C125.897 167.45 125.385 167.762 124.793 168.034C124.281 168.258 123.665 168.466 122.945 168.658C122.225 168.85 121.401 168.946 120.473 168.946C119.225 168.946 118.073 168.742 117.017 168.334C115.961 167.926 115.049 167.354 114.281 166.618C113.513 165.882 112.913 164.998 112.481 163.966C112.049 162.934 111.833 161.794 111.833 160.546Z"/>
<path d="M126.629 160.546C126.629 159.394 126.849 158.306 127.289 157.282C127.729 156.258 128.329 155.366 129.089 154.606C129.849 153.846 130.741 153.246 131.765 152.806C132.789 152.366 133.877 152.146 135.029 152.146C136.181 152.146 137.269 152.366 138.293 152.806C139.317 153.246 140.209 153.846 140.969 154.606C141.729 155.366 142.329 156.258 142.769 157.282C143.209 158.306 143.429 159.394 143.429 160.546C143.429 161.698 143.209 162.786 142.769 163.81C142.329 164.834 141.729 165.726 140.969 166.486C140.209 167.246 139.317 167.846 138.293 168.286C137.269 168.726 136.181 168.946 135.029 168.946C133.877 168.946 132.789 168.726 131.765 168.286C130.741 167.846 129.849 167.246 129.089 166.486C128.329 165.726 127.729 164.834 127.289 163.81C126.849 162.786 126.629 161.698 126.629 160.546ZM131.669 160.546C131.669 161.01 131.757 161.446 131.933 161.854C132.109 162.262 132.349 162.618 132.653 162.922C132.957 163.226 133.313 163.466 133.721 163.642C134.129 163.818 134.565 163.906 135.029 163.906C135.493 163.906 135.929 163.818 136.337 163.642C136.745 163.466 137.101 163.226 137.405 162.922C137.709 162.618 137.949 162.262 138.125 161.854C138.301 161.446 138.389 161.01 138.389 160.546C138.389 160.082 138.301 159.646 138.125 159.238C137.949 158.83 137.709 158.474 137.405 158.17C137.101 157.866 136.745 157.626 136.337 157.45C135.929 157.274 135.493 157.186 135.029 157.186C134.565 157.186 134.129 157.274 133.721 157.45C133.313 157.626 132.957 157.866 132.653 158.17C132.349 158.474 132.109 158.83 131.933 159.238C131.757 159.646 131.669 160.082 131.669 160.546Z"/>
<path d="M146.249 152.53L150.473 152.53L154.649 158.674L158.801 152.53L163.025 152.53L163.025 168.538L157.913 168.538L157.913 162.778L154.649 167.578L151.361 162.778L151.361 168.538L146.249 168.538L146.249 152.53Z"/>
<path d="M178.661 158.626C178.661 159.73 178.469 160.67 178.085 161.446C177.701 162.222 177.177 162.85 176.513 163.33C175.849 163.81 175.073 164.162 174.185 164.386C173.297 164.61 172.341 164.722 171.317 164.722L171.317 168.538L166.205 168.538L166.205 152.53L171.317 152.53C172.341 152.53 173.297 152.642 174.185 152.866C175.073 153.09 175.849 153.442 176.513 153.922C177.177 154.402 177.701 155.03 178.085 155.806C178.469 156.582 178.661 157.522 178.661 158.626ZM171.317 160.402L171.533 160.402C172.205 160.402 172.689 160.246 172.985 159.934C173.281 159.622 173.429 159.186 173.429 158.626C173.429 158.066 173.281 157.63 172.985 157.318C172.689 157.006 172.205 156.85 171.533 156.85L171.317 156.85L171.317 160.402Z"/>
<path d="M187.913 168.946C186.905 168.946 185.993 168.818 185.177 168.562C184.361 168.306 183.665 167.922 183.089 167.41C182.513 166.898 182.069 166.25 181.757 165.466C181.445 164.682 181.289 163.762 181.289 162.706L181.289 152.53L186.401 152.53L186.401 162.49C186.401 163.05 186.517 163.478 186.749 163.774C186.981 164.07 187.369 164.218 187.913 164.218C188.457 164.218 188.845 164.07 189.077 163.774C189.309 163.478 189.425 163.05 189.425 162.49L189.425 152.53L194.561 152.53L194.561 162.706C194.561 163.762 194.405 164.682 194.093 165.466C193.781 166.25 193.333 166.898 192.749 167.41C192.165 167.922 191.465 168.306 190.649 168.562C189.833 168.818 188.921 168.946 187.913 168.946Z"/>
<path d="M199.781 156.73L196.829 156.73L196.829 152.53L208.013 152.53L208.013 156.73L205.061 156.73L205.061 168.538L199.781 168.538L199.781 156.73Z"/>
<path d="M213.305 152.53L217.145 152.53L223.217 168.538L218.177 168.538L217.649 167.098L212.801 167.098L212.273 168.538L207.233 168.538L213.305 152.53ZM216.305 163.57L215.225 160.762L214.145 163.57L216.305 163.57Z"/>
<path d="M225.389 156.73L222.437 156.73L222.437 152.53L233.621 152.53L233.621 156.73L230.669 156.73L230.669 168.538L225.389 168.538L225.389 156.73Z"/>
<path d="M235.961 152.53L241.385 152.53L241.385 168.538L235.961 168.538L235.961 152.53Z"/>
<path d="M244.205 160.546C244.205 159.394 244.425 158.306 244.865 157.282C245.305 156.258 245.905 155.366 246.665 154.606C247.425 153.846 248.317 153.246 249.341 152.806C250.365 152.366 251.453 152.146 252.605 152.146C253.757 152.146 254.845 152.366 255.869 152.806C256.893 153.246 257.785 153.846 258.545 154.606C259.305 155.366 259.905 156.258 260.345 157.282C260.785 158.306 261.005 159.394 261.005 160.546C261.005 161.698 260.785 162.786 260.345 163.81C259.905 164.834 259.305 165.726 258.545 166.486C257.785 167.246 256.893 167.846 255.869 168.286C254.845 168.726 253.757 168.946 252.605 168.946C251.453 168.946 250.365 168.726 249.341 168.286C248.317 167.846 247.425 167.246 246.665 166.486C245.905 165.726 245.305 164.834 244.865 163.81C244.425 162.786 244.205 161.698 244.205 160.546ZM249.245 160.546C249.245 161.01 249.333 161.446 249.509 161.854C249.685 162.262 249.925 162.618 250.229 162.922C250.533 163.226 250.889 163.466 251.297 163.642C251.705 163.818 252.141 163.906 252.605 163.906C253.069 163.906 253.505 163.818 253.913 163.642C254.321 163.466 254.677 163.226 254.981 162.922C255.285 162.618 255.525 162.262 255.701 161.854C255.877 161.446 255.965 161.01 255.965 160.546C255.965 160.082 255.877 159.646 255.701 159.238C255.525 158.83 255.285 158.474 254.981 158.17C254.677 157.866 254.321 157.626 253.913 157.45C253.505 157.274 253.069 157.186 252.605 157.186C252.141 157.186 251.705 157.274 251.297 157.45C250.889 157.626 250.533 157.866 250.229 158.17C249.925 158.474 249.685 158.83 249.509 159.238C249.333 159.646 249.245 160.082 249.245 160.546Z"/>
<path d="M263.825 152.53L268.025 152.53L272.441 158.698L272.441 152.53L277.457 152.53L277.457 168.538L273.233 168.538L268.841 162.394L268.841 168.538L263.825 168.538L263.825 152.53Z"/>
<path d="M285.389 152.53L289.229 152.53L295.301 168.538L290.261 168.538L289.733 167.098L284.885 167.098L284.357 168.538L279.317 168.538L285.389 152.53ZM288.389 163.57L287.309 160.762L286.229 163.57L288.389 163.57Z"/>
<path d="M297.161 152.53L302.489 152.53L302.489 164.338L306.905 164.338L306.905 168.538L297.161 168.538L297.161 152.53Z"/>
<path d="M114.305 186.73L111.353 186.73L111.353 182.53L122.537 182.53L122.537 186.73L119.585 186.73L119.585 198.538L114.305 198.538L114.305 186.73Z"/>
<path d="M124.877 182.53L129.989 182.53L129.989 187.978L132.845 187.978L132.845 182.53L137.981 182.53L137.981 198.538L132.845 198.538L132.845 192.61L129.989 192.61L129.989 198.538L124.877 198.538L124.877 182.53Z"/>
<path d="M141.161 182.53L146.585 182.53L146.585 198.538L141.161 198.538L141.161 182.53Z"/>
<path d="M149.765 182.53L153.965 182.53L158.381 188.698L158.381 182.53L163.397 182.53L163.397 198.538L159.173 198.538L154.781 192.394L154.781 198.538L149.765 198.538L149.765 182.53Z"/>
<path d="M166.577 182.53L171.761 182.53L171.761 186.226L174.785 182.53L181.049 182.53L175.409 189.85L181.337 198.538L175.169 198.538L171.761 193.594L171.761 198.538L166.577 198.538L166.577 182.53Z"/>
<path d="M183.317 182.53L188.741 182.53L188.741 198.538L183.317 198.538L183.317 182.53Z"/>
<path d="M191.921 182.53L196.121 182.53L200.537 188.698L200.537 182.53L205.553 182.53L205.553 198.538L201.329 198.538L196.937 192.394L196.937 198.538L191.921 198.538L191.921 182.53Z"/>
<path d="M218.933 187.978C218.645 187.722 218.285 187.526 217.853 187.39C217.421 187.254 216.997 187.186 216.581 187.186C216.117 187.186 215.693 187.27 215.309 187.438C214.925 187.606 214.593 187.838 214.313 188.134C214.033 188.43 213.813 188.786 213.653 189.202C213.493 189.618 213.413 190.066 213.413 190.546C213.413 191.026 213.501 191.474 213.677 191.89C213.853 192.306 214.093 192.662 214.397 192.958C214.701 193.254 215.057 193.486 215.465 193.654C215.873 193.822 216.309 193.906 216.773 193.906C217.317 193.906 217.813 193.79 218.261 193.558C218.709 193.326 219.093 193.01 219.413 192.61L217.973 192.61L217.973 189.25L224.141 189.25L224.141 194.578C223.773 195.234 223.333 195.83 222.821 196.366C222.309 196.902 221.737 197.362 221.105 197.746C220.473 198.13 219.789 198.426 219.053 198.634C218.317 198.842 217.557 198.946 216.773 198.946C215.621 198.946 214.533 198.73 213.509 198.298C212.485 197.866 211.593 197.274 210.833 196.522C210.073 195.77 209.473 194.882 209.033 193.858C208.593 192.834 208.373 191.73 208.373 190.546C208.373 189.394 208.581 188.306 208.997 187.282C209.413 186.258 209.985 185.366 210.713 184.606C211.441 183.846 212.305 183.246 213.305 182.806C214.305 182.366 215.381 182.146 216.533 182.146C217.429 182.146 218.205 182.234 218.861 182.41C219.517 182.586 220.069 182.786 220.517 183.01C221.045 183.266 221.485 183.546 221.837 183.85L218.933 187.978Z"/>
<path d="M232.901 190.546C232.901 189.394 233.121 188.306 233.561 187.282C234.001 186.258 234.601 185.366 235.361 184.606C236.121 183.846 237.013 183.246 238.037 182.806C239.061 182.366 240.149 182.146 241.301 182.146C242.453 182.146 243.541 182.366 244.565 182.806C245.589 183.246 246.481 183.846 247.241 184.606C248.001 185.366 248.601 186.258 249.041 187.282C249.481 188.306 249.701 189.394 249.701 190.546C249.701 191.698 249.481 192.786 249.041 193.81C248.601 194.834 248.001 195.726 247.241 196.486C246.481 197.246 245.589 197.846 244.565 198.286C243.541 198.726 242.453 198.946 241.301 198.946C240.149 198.946 239.061 198.726 238.037 198.286C237.013 197.846 236.121 197.246 235.361 196.486C234.601 195.726 234.001 194.834 233.561 193.81C233.121 192.786 232.901 191.698 232.901 190.546ZM237.941 190.546C237.941 191.01 238.029 191.446 238.205 191.854C238.381 192.262 238.621 192.618 238.925 192.922C239.229 193.226 239.585 193.466 239.993 193.642C240.401 193.818 240.837 193.906 241.301 193.906C241.765 193.906 242.201 193.818 242.609 193.642C243.017 193.466 243.373 193.226 243.677 192.922C243.981 192.618 244.221 192.262 244.397 191.854C244.573 191.446 244.661 191.01 244.661 190.546C244.661 190.082 244.573 189.646 244.397 189.238C244.221 188.83 243.981 188.474 243.677 188.17C243.373 187.866 243.017 187.626 242.609 187.45C242.201 187.274 241.765 187.186 241.301 187.186C240.837 187.186 240.401 187.274 239.993 187.45C239.585 187.626 239.229 187.866 238.925 188.17C238.621 188.474 238.381 188.83 238.205 189.238C238.029 189.646 237.941 190.082 237.941 190.546Z"/>
<path d="M252.521 182.53L258.041 182.53C259.065 182.53 260.013 182.666 260.885 182.938C261.757 183.21 262.513 183.61 263.153 184.138C263.793 184.666 264.293 185.318 264.653 186.094C265.013 186.87 265.193 187.762 265.193 188.77C265.193 189.57 265.081 190.25 264.857 190.81C264.633 191.37 264.385 191.834 264.113 192.202C263.793 192.618 263.433 192.97 263.033 193.258L266.033 198.538L260.033 198.538L257.633 194.482L257.633 198.538L252.521 198.538L252.521 182.53ZM257.633 190.402L257.897 190.402C258.505 190.402 259.021 190.266 259.445 189.994C259.869 189.722 260.081 189.266 260.081 188.626C260.081 187.986 259.869 187.53 259.445 187.258C259.021 186.986 258.505 186.85 257.897 186.85L257.633 186.85L257.633 190.402Z"/>
<path d="M268.013 182.53L273.437 182.53L273.437 198.538L268.013 198.538L268.013 182.53Z"/>
<path d="M286.817 187.978C286.529 187.722 286.169 187.526 285.737 187.39C285.305 187.254 284.881 187.186 284.465 187.186C284.001 187.186 283.577 187.27 283.193 187.438C282.809 187.606 282.477 187.838 282.197 188.134C281.917 188.43 281.697 188.786 281.537 189.202C281.377 189.618 281.297 190.066 281.297 190.546C281.297 191.026 281.385 191.474 281.561 191.89C281.737 192.306 281.977 192.662 282.281 192.958C282.585 193.254 282.941 193.486 283.349 193.654C283.757 193.822 284.193 193.906 284.657 193.906C285.201 193.906 285.697 193.79 286.145 193.558C286.593 193.326 286.977 193.01 287.297 192.61L285.857 192.61L285.857 189.25L292.025 189.25L292.025 194.578C291.657 195.234 291.217 195.83 290.705 196.366C290.193 196.902 289.621 197.362 288.989 197.746C288.357 198.13 287.673 198.426 286.937 198.634C286.201 198.842 285.441 198.946 284.657 198.946C283.505 198.946 282.417 198.73 281.393 198.298C280.369 197.866 279.477 197.274 278.717 196.522C277.957 195.77 277.357 194.882 276.917 193.858C276.477 192.834 276.257 191.73 276.257 190.546C276.257 189.394 276.465 188.306 276.881 187.282C277.297 186.258 277.869 185.366 278.597 184.606C279.325 183.846 280.189 183.246 281.189 182.806C282.189 182.366 283.265 182.146 284.417 182.146C285.313 182.146 286.089 182.234 286.745 182.41C287.401 182.586 287.953 182.786 288.401 183.01C288.929 183.266 289.369 183.546 289.721 183.85L286.817 187.978Z"/>
<path d="M294.845 182.53L300.269 182.53L300.269 198.538L294.845 198.538L294.845 182.53Z"/>
<path d="M303.449 182.53L307.649 182.53L312.065 188.698L312.065 182.53L317.081 182.53L317.081 198.538L312.857 198.538L308.465 192.394L308.465 198.538L303.449 198.538L303.449 182.53Z"/>
<path d="M319.829 193.57C320.181 193.682 320.549 193.77 320.933 193.834C321.253 193.914 321.617 193.978 322.025 194.026C322.433 194.074 322.845 194.098 323.261 194.098C323.997 194.098 324.365 193.826 324.365 193.282C324.365 193.074 324.253 192.862 324.029 192.646C323.805 192.43 323.521 192.19 323.177 191.926C322.833 191.662 322.465 191.37 322.073 191.05C321.681 190.73 321.313 190.362 320.969 189.946C320.625 189.53 320.341 189.062 320.117 188.542C319.893 188.022 319.781 187.426 319.781 186.754C319.781 186.002 319.917 185.338 320.189 184.762C320.461 184.186 320.837 183.706 321.317 183.322C321.797 182.938 322.361 182.646 323.009 182.446C323.657 182.246 324.349 182.146 325.085 182.146C325.469 182.146 325.853 182.166 326.237 182.206C326.621 182.246 326.965 182.282 327.269 182.314C327.621 182.362 327.965 182.41 328.301 182.458L328.301 186.946C328.173 186.93 328.029 186.914 327.869 186.898C327.741 186.882 327.597 186.866 327.437 186.85C327.277 186.834 327.109 186.826 326.933 186.826C326.837 186.826 326.717 186.83 326.573 186.838C326.429 186.846 326.293 186.866 326.165 186.898C326.037 186.93 325.925 186.986 325.829 187.066C325.733 187.146 325.685 187.258 325.685 187.402C325.685 187.53 325.793 187.69 326.009 187.882C326.225 188.074 326.489 188.298 326.801 188.554C327.113 188.81 327.457 189.106 327.833 189.442C328.209 189.778 328.553 190.162 328.865 190.594C329.177 191.026 329.441 191.514 329.657 192.058C329.873 192.602 329.981 193.21 329.981 193.882C329.981 194.586 329.869 195.246 329.645 195.862C329.421 196.478 329.073 197.014 328.601 197.47C328.129 197.926 327.525 198.286 326.789 198.55C326.053 198.814 325.181 198.946 324.173 198.946C323.565 198.946 323.001 198.918 322.481 198.862C321.961 198.806 321.501 198.738 321.101 198.658C320.637 198.578 320.213 198.482 319.829 198.37L319.829 193.57Z"/>
</g>
</g>
<g opacity="1" vectornator:layerName="Group 12"/>
<path d="M98.3917 5.41994L374.433 5.41994L374.433 122.864L98.3917 122.864L98.3917 5.41994Z" fill="#16a321" fill-rule="nonzero" opacity="0" stroke="none" vectornator:layerName="Rectangle 3"/>
<g opacity="1" vectornator:layerName="Group 13">
<g opacity="1" vectornator:layerName="Group 14">
<g opacity="1" vectornator:layerName="Group 14">
<g opacity="1" vectornator:layerName="Group 2">
<path d="M189.945 21.0893C200.394 21.0893 209.184 24.605 216.313 31.8317C223.54 38.9608 227.055 47.7501 227.055 58.2973C227.055 68.6491 223.54 77.4384 216.411 84.6652C209.379 91.7943 200.59 95.4077 190.043 95.4077C179.593 95.4077 170.804 91.7943 163.577 84.7628C156.448 77.5361 152.835 68.7468 152.835 58.395C152.835 47.9455 156.448 39.1562 163.577 31.9294C170.804 24.7027 179.593 21.0893 189.945 21.0893ZM189.945 25.5816C180.96 25.5816 173.245 28.7067 166.8 35.1521C160.55 41.5976 157.327 49.3127 157.327 58.395C157.327 67.3796 160.55 75.0946 166.8 81.4424C173.245 87.6926 180.96 90.9153 189.945 90.9153C199.125 90.9153 206.84 87.6926 213.188 81.4424C219.438 75.1923 222.563 67.4772 222.563 58.395C222.563 49.215 219.438 41.4023 213.09 35.1521C206.84 28.7067 199.125 25.5816 189.945 25.5816ZM189.945 35.1521C196.586 35.1521 202.055 37.3006 206.449 41.7929C210.942 46.0899 213.09 51.5588 213.09 58.1996C213.09 64.6451 210.844 70.114 206.352 74.6063C201.957 79.0986 196.488 81.3448 189.945 81.3448C183.5 81.3448 178.031 79.0986 173.538 74.6063C169.046 70.114 166.8 64.6451 166.8 58.1996C166.8 51.6565 169.046 46.1876 173.538 41.7929C178.031 37.3006 183.5 35.1521 189.945 35.1521ZM190.043 39.7421C184.867 39.7421 180.472 41.5 176.859 45.0157C173.343 48.5314 171.487 52.8284 171.487 58.102C171.487 63.2779 173.245 67.6725 176.761 71.3836C180.472 74.8993 184.867 76.7548 189.945 76.7548C195.219 76.7548 199.613 74.997 203.129 71.4812C206.645 67.8679 208.403 63.4732 208.403 58.1996C208.403 52.9261 206.742 48.5314 203.227 45.0157C199.711 41.5 195.316 39.7421 190.043 39.7421Z" fill="#131313" fill-rule="nonzero" opacity="1" stroke="none"/>
</g>
</g>
</g>
<path d="M183.703 58.2485C183.703 54.8013 186.498 52.0069 189.945 52.0069C193.392 52.0069 196.187 54.8013 196.187 58.2485C196.187 61.6956 193.392 64.49 189.945 64.49C186.498 64.49 183.703 61.6956 183.703 58.2485Z" fill="#131313" fill-rule="nonzero" opacity="1" stroke="none" vectornator:layerName="Oval 2"/>
</g>
</g>
</svg>
