<?xml version="1.0" encoding="UTF-8" standalone="no"?>
<!DOCTYPE svg PUBLIC "-//W3C//DTD SVG 1.1//EN" "http://www.w3.org/Graphics/SVG/1.1/DTD/svg11.dtd">
<!-- Created with Vectornator (http://vectornator.io/) -->
<svg height="100%" stroke-miterlimit="10" style="fill-rule:nonzero;clip-rule:evenodd;stroke-linecap:round;stroke-linejoin:round;" version="1.1" viewBox="0 0 836.051 354.426" width="100%" xml:space="preserve" xmlns="http://www.w3.org/2000/svg" xmlns:vectornator="http://vectornator.io" xmlns:xlink="http://www.w3.org/1999/xlink">
<defs/>
<path d="M0 0L836.051 0L836.051 354.426L0 354.426L0 0Z" fill="#fd6666" fill-rule="nonzero" opacity="1" stroke="none"/>
<g id="Layer-1" vectornator:layerName="Layer 1">
<g opacity="1" vectornator:layerName="Group 4">
<g opacity="1" vectornator:layerName="Group 3">
<path d="M292.373 287.131C287.711 287.131 283.494 286.539 279.72 285.355C275.947 284.171 272.728 282.395 270.064 280.028C267.4 277.66 265.347 274.663 263.904 271.038C262.461 267.412 261.74 263.157 261.74 258.274L261.74 211.215L285.381 211.215L285.381 257.275C285.381 259.865 285.917 261.844 286.99 263.213C288.063 264.582 289.857 265.266 292.373 265.266C294.889 265.266 296.683 264.582 297.756 263.213C298.829 261.844 299.365 259.865 299.365 257.275L299.365 211.215L323.117 211.215L323.117 258.274C323.117 263.157 322.395 267.412 320.952 271.038C319.51 274.663 317.438 277.66 314.737 280.028C312.036 282.395 308.799 284.171 305.026 285.355C301.252 286.539 297.034 287.131 292.373 287.131Z" fill="#fccc8e" fill-rule="nonzero" opacity="1" stroke="none"/>
<path d="M333.636 211.215L353.059 211.215L373.481 239.739L373.481 211.215L396.678 211.215L396.678 285.244L377.144 285.244L356.833 256.831L356.833 285.244L333.636 285.244L333.636 211.215Z" fill="#fccc8e" fill-rule="nonzero" opacity="1" stroke="none"/>
<path d="M407.53 211.215L432.169 211.215L432.169 265.821L452.591 265.821L452.591 285.244L407.53 285.244L407.53 211.215Z" fill="#fccc8e" fill-rule="nonzero" opacity="1" stroke="none"/>
<path d="M457.894 248.285C457.894 242.958 458.911 237.926 460.946 233.191C462.981 228.455 465.756 224.33 469.27 220.815C472.785 217.301 476.91 214.526 481.645 212.491C486.381 210.456 491.412 209.439 496.74 209.439C502.067 209.439 507.099 210.456 511.834 212.491C516.57 214.526 520.695 217.301 524.21 220.815C527.724 224.33 530.499 228.455 532.534 233.191C534.569 237.926 535.586 242.958 535.586 248.285C535.586 253.612 534.569 258.644 532.534 263.379C530.499 268.115 527.724 272.24 524.21 275.755C520.695 279.269 516.57 282.044 511.834 284.079C507.099 286.114 502.067 287.131 496.74 287.131C491.412 287.131 486.381 286.114 481.645 284.079C476.91 282.044 472.785 279.269 469.27 275.755C465.756 272.24 462.981 268.115 460.946 263.379C458.911 258.644 457.894 253.612 457.894 248.285ZM481.202 248.285C481.202 250.431 481.608 252.447 482.422 254.334C483.236 256.221 484.346 257.867 485.752 259.273C487.158 260.679 488.804 261.789 490.691 262.603C492.578 263.416 494.594 263.823 496.74 263.823C498.886 263.823 500.902 263.416 502.789 262.603C504.676 261.789 506.322 260.679 507.728 259.273C509.134 257.867 510.244 256.221 511.057 254.334C511.871 252.447 512.278 250.431 512.278 248.285C512.278 246.139 511.871 244.123 511.057 242.236C510.244 240.349 509.134 238.703 507.728 237.297C506.322 235.891 504.676 234.781 502.789 233.967C500.902 233.154 498.886 232.747 496.74 232.747C494.594 232.747 492.578 233.154 490.691 233.967C488.804 234.781 487.158 235.891 485.752 237.297C484.346 238.703 483.236 240.349 482.422 242.236C481.608 244.123 481.202 246.139 481.202 248.285Z" fill="#fccc8e" fill-rule="nonzero" opacity="1" stroke="none"/>
<path d="M543.108 248.285C543.108 242.366 544.144 237.02 546.216 232.247C548.288 227.475 551.1 223.387 554.651 219.983C558.203 216.579 562.346 213.971 567.082 212.158C571.818 210.345 576.849 209.439 582.176 209.439C586.394 209.439 590.149 209.846 593.442 210.66C596.734 211.474 599.565 212.399 601.932 213.435C604.67 214.618 607.038 215.913 609.036 217.319L597.382 237.852C596.198 236.964 594.903 236.113 593.497 235.299C592.239 234.707 590.741 234.134 589.002 233.579C587.263 233.024 585.284 232.747 583.064 232.747C580.771 232.747 578.662 233.154 576.738 233.967C574.814 234.781 573.131 235.891 571.688 237.297C570.245 238.703 569.117 240.349 568.303 242.236C567.489 244.123 567.082 246.139 567.082 248.285C567.082 250.431 567.507 252.447 568.358 254.334C569.209 256.221 570.375 257.867 571.855 259.273C573.334 260.679 575.073 261.789 577.071 262.603C579.069 263.416 581.252 263.823 583.619 263.823C585.987 263.823 588.096 263.527 589.946 262.935C591.795 262.344 593.349 261.678 594.607 260.938C596.087 260.124 597.382 259.162 598.492 258.052L610.146 278.585C608.148 280.213 605.78 281.656 603.042 282.913C600.675 283.949 597.826 284.911 594.496 285.799C591.167 286.687 587.356 287.131 583.064 287.131C577.293 287.131 571.966 286.188 567.082 284.301C562.199 282.414 557.981 279.769 554.429 276.365C550.878 272.961 548.103 268.873 546.105 264.101C544.107 259.328 543.108 254.056 543.108 248.285Z" fill="#fccc8e" fill-rule="nonzero" opacity="1" stroke="none"/>
<path d="M616.003 211.215L639.977 211.215L639.977 228.307L653.961 211.215L682.929 211.215L656.847 245.066L684.261 285.244L655.737 285.244L639.977 262.381L639.977 285.244L616.003 285.244L616.003 211.215Z" fill="#fccc8e" fill-rule="nonzero" opacity="1" stroke="none"/>
<path d="M687.566 262.27C689.194 262.787 690.896 263.194 692.672 263.49C694.152 263.86 695.835 264.156 697.722 264.378C699.609 264.6 701.514 264.711 703.438 264.711C706.841 264.711 708.543 263.453 708.543 260.938C708.543 259.976 708.025 258.995 706.989 257.996C705.953 256.998 704.64 255.888 703.049 254.667C701.458 253.446 699.757 252.096 697.944 250.616C696.131 249.136 694.429 247.434 692.838 245.51C691.247 243.586 689.934 241.422 688.898 239.017C687.862 236.613 687.344 233.856 687.344 230.749C687.344 227.271 687.973 224.2 689.231 221.537C690.489 218.873 692.228 216.653 694.448 214.877C696.667 213.102 699.276 211.751 702.272 210.826C705.269 209.901 708.469 209.439 711.873 209.439C713.649 209.439 715.424 209.531 717.2 209.716C718.976 209.901 720.567 210.068 721.973 210.216C723.601 210.438 725.191 210.66 726.745 210.882L726.745 231.637C726.153 231.563 725.487 231.489 724.747 231.415C724.156 231.341 723.49 231.267 722.75 231.193C722.01 231.119 721.233 231.082 720.419 231.082C719.975 231.082 719.42 231.1 718.754 231.137C718.088 231.174 717.459 231.267 716.867 231.415C716.275 231.563 715.757 231.822 715.313 232.192C714.869 232.562 714.648 233.08 714.648 233.745C714.648 234.337 715.147 235.077 716.146 235.965C717.145 236.853 718.366 237.889 719.808 239.073C721.251 240.257 722.842 241.626 724.581 243.18C726.32 244.733 727.911 246.509 729.353 248.507C730.796 250.505 732.017 252.762 733.016 255.277C734.015 257.793 734.514 260.605 734.514 263.712C734.514 266.968 733.997 270.02 732.961 272.869C731.925 275.718 730.315 278.196 728.133 280.305C725.95 282.414 723.157 284.079 719.753 285.3C716.349 286.521 712.317 287.131 707.655 287.131C704.844 287.131 702.235 287.002 699.831 286.743C697.426 286.484 695.299 286.169 693.449 285.799C691.303 285.429 689.342 284.985 687.566 284.467L687.566 262.27Z" fill="#fccc8e" fill-rule="nonzero" opacity="1" stroke="none"/>
</g>
<g opacity="1" vectornator:layerName="Group 2">
<path d="M69.5758 110.462L112.742 67.2952L285.408 67.2952L285.408 211.183L244.386 253.926L69.5758 254.349L69.5758 110.462Z" fill="#fccc8e" fill-rule="nonzero" opacity="1" stroke="none" vectornator:layerName="Curve 4"/>
<g opacity="1" vectornator:layerName="Group 9">
<path d="M94.0739 141.056L103.822 141.056L113.459 155.235L123.041 141.056L136.006 141.05L136.006 178.063L120.992 177.999L120.992 164.706L113.459 175.783L105.871 164.706L105.871 177.999L94.0739 177.999L94.0739 141.056Z" fill="#fd6666" fill-rule="nonzero" opacity="1" stroke="none"/>
<path d="M142.82 141.056L155.338 141.056L155.338 177.999L142.82 177.999L142.82 141.056Z" fill="#fd6666" fill-rule="nonzero" opacity="1" stroke="none"/>
<path d="M165.369 141.056L175.061 141.056L185.252 155.29L185.252 141.056L198.919 141.05L198.919 178.063L187.08 177.999L176.944 163.82L176.944 177.999L165.369 177.999L165.369 141.056Z" fill="#fd6666" fill-rule="nonzero" opacity="1" stroke="none"/>
<path d="M205.529 141.05L219.377 141.056L219.377 177.999L205.529 178.063L205.529 141.05Z" fill="#fd6666" fill-rule="nonzero" opacity="1" stroke="none"/>
<path d="M94.0739 187.211L108.53 187.211C110.376 187.211 112.065 187.423 113.598 187.848C115.13 188.273 116.441 188.9 117.53 189.731C118.619 190.562 119.469 191.596 120.078 192.833C120.687 194.07 120.992 195.519 120.992 197.181C120.992 198.362 120.844 199.369 120.549 200.199C120.253 201.03 119.939 201.722 119.607 202.276C119.201 202.941 118.739 203.495 118.222 203.938C119.035 204.455 119.773 205.119 120.438 205.932C120.992 206.633 121.499 207.52 121.961 208.59C122.423 209.661 122.653 210.972 122.653 212.523C122.653 214.295 122.339 215.901 121.712 217.341C121.084 218.782 120.189 220.009 119.025 221.025C117.862 222.04 116.441 222.815 114.761 223.351C113.081 223.886 111.207 224.154 109.139 224.154L94.0739 224.154L94.0739 187.211ZM106.813 215.458C109.619 215.458 111.022 214.388 111.022 212.246C111.022 210.104 109.619 209.033 106.813 209.033L105.483 209.033L105.483 215.458L106.813 215.458ZM109.582 198.455C109.582 196.756 108.659 195.907 106.813 195.907L105.483 195.907L105.483 201.002L106.813 201.002C108.659 201.002 109.582 200.153 109.582 198.455Z" fill="#fd6666" fill-rule="nonzero" opacity="1" stroke="none"/>
<path d="M123.915 187.211L136.211 187.211L136.211 214.461L146.402 214.461L146.402 224.154L123.915 224.154L123.915 187.211Z" fill="#fd6666" fill-rule="nonzero" opacity="1" stroke="none"/>
<path d="M146.279 205.71C146.279 203.052 146.786 200.541 147.802 198.178C148.817 195.815 150.202 193.756 151.956 192.002C153.71 190.248 155.768 188.864 158.131 187.848C160.495 186.833 163.005 186.325 165.664 186.325C168.323 186.325 170.833 186.833 173.197 187.848C175.56 188.864 177.618 190.248 179.372 192.002C181.126 193.756 182.511 195.815 183.526 198.178C184.542 200.541 185.049 203.052 185.049 205.71C185.049 208.369 184.542 210.88 183.526 213.243C182.511 215.606 181.126 217.665 179.372 219.418C177.618 221.172 175.56 222.557 173.197 223.572C170.833 224.588 168.323 225.096 165.664 225.096C163.005 225.096 160.495 224.588 158.131 223.572C155.768 222.557 153.71 221.172 151.956 219.418C150.202 217.665 148.817 215.606 147.802 213.243C146.786 210.88 146.279 208.369 146.279 205.71ZM157.91 205.71C157.91 206.781 158.113 207.787 158.519 208.729C158.925 209.67 159.479 210.492 160.181 211.194C160.882 211.895 161.704 212.449 162.645 212.855C163.587 213.261 164.593 213.464 165.664 213.464C166.735 213.464 167.741 213.261 168.683 212.855C169.624 212.449 170.446 211.895 171.147 211.194C171.849 210.492 172.403 209.67 172.809 208.729C173.215 207.787 173.418 206.781 173.418 205.71C173.418 204.639 173.215 203.633 172.809 202.692C172.403 201.75 171.849 200.929 171.147 200.227C170.446 199.525 169.624 198.972 168.683 198.565C167.741 198.159 166.735 197.956 165.664 197.956C164.593 197.956 163.587 198.159 162.645 198.565C161.704 198.972 160.882 199.525 160.181 200.227C159.479 200.929 158.925 201.75 158.519 202.692C158.113 203.633 157.91 204.639 157.91 205.71Z" fill="#fd6666" fill-rule="nonzero" opacity="1" stroke="none"/>
<path d="M186.865 187.211L198.828 187.211L198.828 195.741L205.807 187.211L220.263 187.211L207.247 204.104L220.928 224.154L206.693 224.154L198.828 212.744L198.828 224.154L186.865 224.154L186.865 187.211Z" fill="#fd6666" fill-rule="nonzero" opacity="1" stroke="none"/>
</g>
</g>
</g>
</g>
</svg>
