<?xml version="1.0" encoding="UTF-8" standalone="no"?>
<!DOCTYPE svg PUBLIC "-//W3C//DTD SVG 1.1//EN" "http://www.w3.org/Graphics/SVG/1.1/DTD/svg11.dtd">
<!-- Created with Vectornator (http://vectornator.io/) -->
<svg height="100%" stroke-miterlimit="10" style="fill-rule:nonzero;clip-rule:evenodd;stroke-linecap:round;stroke-linejoin:round;" version="1.1" viewBox="0 0 623.049 355.621" width="100%" xml:space="preserve" xmlns="http://www.w3.org/2000/svg" xmlns:vectornator="http://vectornator.io" xmlns:xlink="http://www.w3.org/1999/xlink">
<defs/>
<path d="M0 0L623.049 0L623.049 355.621L0 355.621L0 0Z" fill="#000000" fill-rule="nonzero" opacity="1" stroke="none"/>
<g id="Layer-1" vectornator:layerName="Layer 1">
<g opacity="1" vectornator:layerName="Group 1">
<path d="M34.7705 201.83L34.7705 153.719L48.1145 153.719C52.6346 153.719 56.6618 154.224 60.1962 155.234C63.7305 156.244 66.7119 157.758 69.1403 159.778C71.5687 161.798 73.42 164.31 74.6943 167.316C75.9686 170.321 76.6057 173.795 76.6057 177.738C76.6057 181.681 75.9686 185.156 74.6943 188.161C73.42 191.167 71.5687 193.679 69.1403 195.699C66.7119 197.718 63.7305 199.245 60.1962 200.279C56.6618 201.313 52.6346 201.83 48.1145 201.83L34.7705 201.83ZM43.8588 194.328L43.8588 161.221L48.1145 161.221C54.2214 161.221 58.97 162.603 62.3601 165.368C65.7502 168.133 67.4452 172.257 67.4452 177.738C67.4452 183.22 65.7502 187.356 62.3601 190.145C58.97 192.934 54.2214 194.328 48.1145 194.328L43.8588 194.328ZM41.9834 196.059L48.1145 196.059C55.1351 196.059 60.4366 194.46 64.0191 191.263C67.6015 188.065 69.3927 183.557 69.3927 177.738C69.3927 171.92 67.6015 167.424 64.0191 164.25C60.4366 161.076 55.1351 159.49 48.1145 159.49L41.9834 159.49L41.9834 196.059ZM50.1341 188.125C53.7406 188.125 56.5296 187.272 58.5011 185.564C60.4727 183.857 61.4585 181.249 61.4585 177.738C61.4585 174.228 60.4727 171.631 58.5011 169.948C56.5296 168.265 53.7406 167.424 50.1341 167.424L50.1341 188.125Z" fill="#ffe587" fill-rule="nonzero" opacity="1" stroke="none"/>
<path d="M100.609 153.719L128.956 153.719L128.956 166.342L115.973 166.342L115.973 171.679L128.739 171.679L128.739 183.653L115.973 183.653L115.973 189.207L129.461 189.207L129.461 201.83L100.609 201.83L100.609 153.719ZM124.123 196.059L124.123 194.328L109.697 194.328L109.697 178.532L123.402 178.532L123.402 176.801L109.697 176.801L109.697 161.221L124.123 161.221L124.123 159.49L107.822 159.49L107.822 196.059L124.123 196.059Z" fill="#ffe587" fill-rule="nonzero" opacity="1" stroke="none"/>
<path d="M153.825 153.719L182.172 153.719L182.172 166.342L169.188 166.342L169.188 171.679L181.955 171.679L181.955 183.653L169.188 183.653L169.188 201.83L153.825 201.83L153.825 153.719ZM162.913 196.059L162.913 178.532L176.618 178.532L176.618 176.801L162.913 176.801L162.913 161.221L177.339 161.221L177.339 159.49L161.038 159.49L161.038 196.059L162.913 196.059Z" fill="#ffe587" fill-rule="nonzero" opacity="1" stroke="none"/>
<path d="M206.175 153.719L222.476 153.719L222.476 201.83L206.175 201.83L206.175 153.719ZM215.263 196.059L215.263 159.49L213.388 159.49L213.388 196.059L215.263 196.059Z" fill="#ffe587" fill-rule="nonzero" opacity="1" stroke="none"/>
<path d="M282.023 153.719L310.37 153.719L310.37 166.342L297.387 166.342L297.387 171.679L310.154 171.679L310.154 183.653L297.387 183.653L297.387 189.207L310.875 189.207L310.875 201.83L282.023 201.83L282.023 153.719Z" fill="#ffe587" fill-rule="nonzero" opacity="1" stroke="none"/>
<path d="M341.586 166.342L332.714 166.342L332.714 153.719L366.327 153.719L366.327 166.342L357.455 166.342L357.455 201.83L341.586 201.83L341.586 166.342Z" fill="#ffe587" fill-rule="nonzero" opacity="1" stroke="none"/>
<path d="M388.888 153.719L404.251 153.719L404.251 170.093L412.835 170.093L412.835 153.719L428.27 153.719L428.27 201.83L412.835 201.83L412.835 184.014L404.251 184.014L404.251 201.83L388.888 201.83L388.888 153.719Z" fill="#ffe587" fill-rule="nonzero" opacity="1" stroke="none"/>
<path d="M453.355 153.719L469.657 153.719L469.657 201.83L453.355 201.83L453.355 153.719Z" fill="#ffe587" fill-rule="nonzero" opacity="1" stroke="none"/>
<path d="M493.66 177.811C493.66 173.964 494.333 170.489 495.68 167.388C497.026 164.286 498.853 161.629 501.161 159.417C503.47 157.205 506.162 155.51 509.24 154.332C512.318 153.154 515.587 152.565 519.05 152.565C521.791 152.565 524.231 152.83 526.371 153.359C528.511 153.887 530.35 154.489 531.889 155.162C533.668 155.931 535.207 156.773 536.505 157.686L528.931 171.03C528.162 170.453 527.321 169.9 526.407 169.371C525.589 168.987 524.616 168.614 523.486 168.253C522.356 167.893 521.069 167.712 519.627 167.712C518.136 167.712 516.766 167.977 515.515 168.506C514.265 169.035 513.171 169.756 512.233 170.67C511.296 171.583 510.562 172.653 510.033 173.879C509.504 175.106 509.24 176.416 509.24 177.811C509.24 179.205 509.517 180.515 510.07 181.742C510.623 182.968 511.38 184.038 512.342 184.951C513.303 185.865 514.433 186.586 515.732 187.115C517.03 187.644 518.449 187.909 519.987 187.909C521.526 187.909 522.897 187.716 524.099 187.332C525.301 186.947 526.311 186.514 527.128 186.033C528.09 185.504 528.931 184.879 529.653 184.158L537.226 197.502C535.928 198.56 534.389 199.498 532.61 200.315C531.071 200.988 529.22 201.613 527.056 202.19C524.892 202.767 522.416 203.056 519.627 203.056C515.876 203.056 512.414 202.443 509.24 201.217C506.066 199.99 503.325 198.271 501.017 196.059C498.709 193.847 496.906 191.191 495.607 188.089C494.309 184.987 493.66 181.561 493.66 177.811Z" fill="#ffe587" fill-rule="nonzero" opacity="1" stroke="none"/>
<path d="M557.767 186.899C558.825 187.235 559.931 187.5 561.085 187.692C562.047 187.933 563.141 188.125 564.367 188.269C565.593 188.414 566.832 188.486 568.082 188.486C570.294 188.486 571.4 187.668 571.4 186.033C571.4 185.408 571.063 184.771 570.39 184.122C569.717 183.473 568.863 182.751 567.829 181.958C566.796 181.165 565.69 180.287 564.511 179.325C563.333 178.364 562.227 177.258 561.193 176.007C560.16 174.757 559.306 173.35 558.633 171.788C557.96 170.225 557.623 168.434 557.623 166.414C557.623 164.154 558.032 162.158 558.849 160.427C559.667 158.696 560.797 157.254 562.239 156.099C563.682 154.945 565.377 154.068 567.325 153.467C569.272 152.866 571.352 152.565 573.564 152.565C574.718 152.565 575.872 152.625 577.026 152.745C578.18 152.866 579.214 152.974 580.128 153.07C581.185 153.214 582.219 153.359 583.229 153.503L583.229 166.991C582.844 166.943 582.412 166.895 581.931 166.847C581.546 166.799 581.113 166.751 580.632 166.703C580.152 166.654 579.647 166.63 579.118 166.63C578.829 166.63 578.469 166.642 578.036 166.666C577.603 166.691 577.194 166.751 576.81 166.847C576.425 166.943 576.088 167.111 575.8 167.352C575.511 167.592 575.367 167.929 575.367 168.362C575.367 168.746 575.692 169.227 576.341 169.804C576.99 170.381 577.783 171.054 578.721 171.824C579.659 172.593 580.693 173.483 581.823 174.493C582.953 175.502 583.986 176.656 584.924 177.955C585.862 179.253 586.655 180.72 587.304 182.355C587.954 183.99 588.278 185.817 588.278 187.837C588.278 189.952 587.942 191.936 587.268 193.787C586.595 195.639 585.549 197.249 584.131 198.62C582.712 199.99 580.897 201.072 578.685 201.866C576.473 202.659 573.852 203.056 570.823 203.056C568.996 203.056 567.3 202.972 565.738 202.803C564.175 202.635 562.792 202.431 561.59 202.19C560.196 201.95 558.921 201.661 557.767 201.325L557.767 186.899Z" fill="#ffe587" fill-rule="nonzero" opacity="1" stroke="none"/>
</g>
</g>
</svg>
