<?xml version="1.0" encoding="UTF-8" standalone="no"?>
<!DOCTYPE svg PUBLIC "-//W3C//DTD SVG 1.1//EN" "http://www.w3.org/Graphics/SVG/1.1/DTD/svg11.dtd">
<!-- Created with Vectornator (http://vectornator.io/) -->
<svg height="100%" stroke-miterlimit="10" style="fill-rule:nonzero;clip-rule:evenodd;stroke-linecap:round;stroke-linejoin:round;" version="1.1" viewBox="0 0 1486.57 948.736" width="100%" xml:space="preserve" xmlns="http://www.w3.org/2000/svg" xmlns:vectornator="http://vectornator.io" xmlns:xlink="http://www.w3.org/1999/xlink">
<defs/>
<path d="M0 0L1486.57 0L1486.57 948.736L0 948.736L0 0Z" fill="#000000" fill-rule="nonzero" opacity="1" stroke="none"/>
<g id="Layer-1" vectornator:layerName="Layer 1">
<g opacity="1" vectornator:layerName="Group 1">
<path d="M285.339 583.402L285.339 365.334L459.795 365.334L459.795 408.947L503.408 408.947L503.408 539.789L459.795 539.789L459.795 583.402L285.339 583.402ZM372.567 539.789L414.436 539.789L414.436 408.947L372.567 408.947L372.567 539.789Z" fill="#9fd9c3" fill-rule="nonzero" opacity="1" stroke="none"/>
<path d="M590.636 583.402L590.636 365.334L765.091 365.334L765.091 408.947L677.863 408.947L677.863 452.561L765.091 452.561L765.091 496.175L677.863 496.175L677.863 539.789L765.091 539.789L765.091 583.402L590.636 583.402Z" fill="#9fd9c3" fill-rule="nonzero" opacity="1" stroke="none"/>
<path d="M852.318 583.402L852.318 365.334L1026.77 365.334L1026.77 408.947L939.546 408.947L939.546 452.561L1026.77 452.561L1026.77 496.175L939.546 496.175L939.546 583.402L852.318 583.402Z" fill="#9fd9c3" fill-rule="nonzero" opacity="1" stroke="none"/>
<path d="M1114 583.402L1114 365.334L1201.23 365.334L1201.23 583.402L1114 583.402Z" fill="#9fd9c3" fill-rule="nonzero" opacity="1" stroke="none"/>
</g>
</g>
</svg>
