<?xml version="1.0" encoding="UTF-8" standalone="no"?>
<!DOCTYPE svg PUBLIC "-//W3C//DTD SVG 1.1//EN" "http://www.w3.org/Graphics/SVG/1.1/DTD/svg11.dtd">
<!-- Created with Vectornator (http://vectornator.io/) -->
<svg height="100%" stroke-miterlimit="10" style="fill-rule:nonzero;clip-rule:evenodd;stroke-linecap:round;stroke-linejoin:round;" version="1.1" viewBox="0 0 1486.57 948.736" width="100%" xml:space="preserve" xmlns="http://www.w3.org/2000/svg" xmlns:vectornator="http://vectornator.io" xmlns:xlink="http://www.w3.org/1999/xlink">
<defs/>
<path d="M0 0L1486.57 0L1486.57 948.736L0 948.736L0 0Z" fill="#000000" fill-rule="nonzero" opacity="1" stroke="none"/>
<g id="Layer-1" vectornator:layerName="Layer 1">
<g opacity="1" vectornator:layerName="Group 1">
<path d="M311.284 432.368L311.284 352.368L375.284 352.368L375.284 368.368L391.284 368.368L391.284 416.368L375.284 416.368L375.284 432.368L311.284 432.368ZM343.284 416.368L358.644 416.368L358.644 368.368L343.284 368.368L343.284 416.368Z" fill="#9fd9c3" fill-rule="nonzero" opacity="1" stroke="none"/>
<path d="M463.284 432.368L463.284 352.368L495.284 352.368L495.284 432.368L463.284 432.368Z" fill="#9fd9c3" fill-rule="nonzero" opacity="1" stroke="none"/>
<path d="M583.284 432.368L583.284 416.368L567.284 416.368L567.284 368.368L583.284 368.368L583.284 352.368L647.284 352.368L647.284 368.368L599.284 368.368L599.284 416.368L615.284 416.368L615.284 384.368L647.284 384.368L647.284 416.368L631.284 416.368L631.284 432.368L583.284 432.368Z" fill="#9fd9c3" fill-rule="nonzero" opacity="1" stroke="none"/>
<path d="M719.284 432.368L719.284 352.368L751.284 352.368L751.284 432.368L719.284 432.368Z" fill="#9fd9c3" fill-rule="nonzero" opacity="1" stroke="none"/>
<path d="M839.284 432.368L839.284 368.368L823.284 368.368L823.284 352.368L887.284 352.368L887.284 368.368L871.284 368.368L871.284 432.368L839.284 432.368Z" fill="#9fd9c3" fill-rule="nonzero" opacity="1" stroke="none"/>
<path d="M959.284 432.368L959.284 368.368L975.284 368.368L975.284 352.368L1023.28 352.368L1023.28 368.368L1039.28 368.368L1039.28 432.368L1007.28 432.368L1007.28 400.368L991.284 400.368L991.284 432.368L959.284 432.368ZM991.284 384.368L1007.28 384.368L1007.28 369.008L991.284 369.008L991.284 384.368Z" fill="#9fd9c3" fill-rule="nonzero" opacity="1" stroke="none"/>
<path d="M1111.28 432.368L1111.28 352.368L1143.28 352.368L1143.28 416.368L1175.28 416.368L1175.28 432.368L1111.28 432.368Z" fill="#9fd9c3" fill-rule="nonzero" opacity="1" stroke="none"/>
<path d="M327.284 532.368L327.284 516.368L375.284 516.368L375.284 532.368L327.284 532.368ZM359.284 580.368L359.284 564.368L327.284 564.368L327.284 548.368L311.284 548.368L311.284 532.368L327.284 532.368L327.284 548.368L359.284 548.368L359.284 564.368L375.284 564.368L375.284 580.368L359.284 580.368ZM311.284 596.368L311.284 580.368L359.284 580.368L359.284 596.368L311.284 596.368Z" fill="#9fd9c3" fill-rule="nonzero" opacity="1" stroke="none"/>
<path d="M407.284 596.368L407.284 516.368L423.284 516.368L423.284 596.368L407.284 596.368Z" fill="#9fd9c3" fill-rule="nonzero" opacity="1" stroke="none"/>
<path d="M471.284 532.368L471.284 516.368L519.284 516.368L519.284 532.368L471.284 532.368ZM455.284 580.368L455.284 532.368L471.284 532.368L471.284 580.368L455.284 580.368ZM503.284 580.368L503.284 564.368L487.284 564.368L487.284 548.368L519.284 548.368L519.284 580.368L503.284 580.368ZM471.284 596.368L471.284 580.368L503.284 580.368L503.284 596.368L471.284 596.368Z" fill="#9fd9c3" fill-rule="nonzero" opacity="1" stroke="none"/>
<path d="M551.284 596.368L551.284 516.368L567.284 516.368L567.284 532.368L583.284 532.368L583.284 548.368L599.284 548.368L599.284 564.368L615.284 564.368L615.284 516.368L631.284 516.368L631.284 596.368L615.284 596.368L615.284 580.368L599.284 580.368L599.284 564.368L583.284 564.368L583.284 548.368L567.284 548.368L567.284 596.368L551.284 596.368Z" fill="#9fd9c3" fill-rule="nonzero" opacity="1" stroke="none"/>
<path d="M663.284 596.368L663.284 532.368L679.284 532.368L679.284 516.368L711.284 516.368L711.284 532.368L727.284 532.368L727.284 596.368L711.284 596.368L711.284 564.368L679.284 564.368L679.284 596.368L663.284 596.368ZM679.284 548.368L711.284 548.368L711.284 533.008L679.284 533.008L679.284 548.368Z" fill="#9fd9c3" fill-rule="nonzero" opacity="1" stroke="none"/>
<path d="M775.284 596.368L775.284 532.368L759.284 532.368L759.284 516.368L807.284 516.368L807.284 532.368L791.284 532.368L791.284 596.368L775.284 596.368Z" fill="#9fd9c3" fill-rule="nonzero" opacity="1" stroke="none"/>
<path d="M855.284 596.368L855.284 580.368L839.284 580.368L839.284 516.368L855.284 516.368L855.284 580.368L887.284 580.368L887.284 596.368L855.284 596.368ZM887.284 580.368L887.284 516.368L903.284 516.368L903.284 580.368L887.284 580.368Z" fill="#9fd9c3" fill-rule="nonzero" opacity="1" stroke="none"/>
<path d="M935.284 596.368L935.284 516.368L983.284 516.368L983.284 532.368L999.284 532.368L999.284 548.368L983.284 548.368L983.284 580.368L999.284 580.368L999.284 596.368L983.284 596.368L983.284 580.368L967.284 580.368L967.284 564.368L951.284 564.368L951.284 596.368L935.284 596.368ZM951.284 548.368L982.644 548.368L982.644 532.368L951.284 532.368L951.284 548.368Z" fill="#9fd9c3" fill-rule="nonzero" opacity="1" stroke="none"/>
<path d="M1031.28 596.368L1031.28 516.368L1079.28 516.368L1079.28 532.368L1047.28 532.368L1047.28 548.368L1079.28 548.368L1079.28 564.368L1047.28 564.368L1047.28 580.368L1079.28 580.368L1079.28 596.368L1031.28 596.368Z" fill="#9fd9c3" fill-rule="nonzero" opacity="1" stroke="none"/>
<path d="M1127.28 532.368L1127.28 516.368L1175.28 516.368L1175.28 532.368L1127.28 532.368ZM1159.28 580.368L1159.28 564.368L1127.28 564.368L1127.28 548.368L1111.28 548.368L1111.28 532.368L1127.28 532.368L1127.28 548.368L1159.28 548.368L1159.28 564.368L1175.28 564.368L1175.28 580.368L1159.28 580.368ZM1111.28 596.368L1111.28 580.368L1159.28 580.368L1159.28 596.368L1111.28 596.368Z" fill="#9fd9c3" fill-rule="nonzero" opacity="1" stroke="none"/>
</g>
</g>
</svg>
