<?xml version="1.0" encoding="UTF-8" standalone="no"?>
<!DOCTYPE svg PUBLIC "-//W3C//DTD SVG 1.1//EN" "http://www.w3.org/Graphics/SVG/1.1/DTD/svg11.dtd">
<!-- Created with Vectornator (http://vectornator.io/) -->
<svg height="100%" stroke-miterlimit="10" style="fill-rule:nonzero;clip-rule:evenodd;stroke-linecap:round;stroke-linejoin:round;" version="1.1" viewBox="0 0 968.654 627.382" width="100%" xml:space="preserve" xmlns="http://www.w3.org/2000/svg" xmlns:vectornator="http://vectornator.io" xmlns:xlink="http://www.w3.org/1999/xlink">
<defs/>
<path d="M0 0L968.654 0L968.654 627.382L0 627.382L0 0Z" fill="#000000" fill-rule="nonzero" opacity="1" stroke="none"/>
<g id="Layer-1" vectornator:layerName="Layer 1">
<g opacity="1" vectornator:layerName="Group 7">
<g opacity="1" vectornator:layerName="Group 6">
<path d="M346.644 64.9964C347.371 63.6121 347.838 62.5739 348.046 61.8817C348.253 61.1895 348.357 60.532 348.357 59.909C348.357 58.8016 347.994 57.945 347.267 57.3394C346.54 56.7337 345.485 56.4309 344.1 56.4309C343.824 56.4309 343.564 56.4395 343.322 56.4568C343.08 56.4741 342.855 56.5001 342.647 56.5347C342.405 56.5693 342.18 56.5866 341.972 56.5866L341.972 46.9828C342.457 46.879 342.889 46.7925 343.27 46.7233C343.651 46.6541 344.023 46.6021 344.386 46.5675C344.749 46.5329 345.13 46.507 345.528 46.4897C345.926 46.4724 346.385 46.4637 346.904 46.4637C348.565 46.4637 350.2 46.6454 351.809 47.0088C353.419 47.3722 354.864 47.9692 356.144 48.7998C357.425 49.6304 358.463 50.7378 359.259 52.1222C360.055 53.5065 360.453 55.2023 360.453 57.2096C360.453 58.144 360.349 59.0698 360.141 59.9869C359.934 60.904 359.614 61.899 359.181 62.9718C358.748 64.0447 358.195 65.2473 357.52 66.5798C356.845 67.9122 356.058 69.4609 355.158 71.2259L354.483 72.5237L361.024 72.5237L358.065 81.6084L337.923 81.6084L346.644 64.9964Z" fill="#ffde00" fill-rule="nonzero" opacity="1" stroke="none"/>
<path d="M384.575 46.9828L393.348 46.9828L393.348 69.8243L395.425 69.8243L395.425 76.7805L393.348 76.7805L393.348 81.6084L383.121 81.6084L383.121 76.7805L370.455 76.7805L370.455 70.9144L384.575 46.9828ZM378.553 69.8243L383.121 69.8243L383.121 62.1412L378.553 69.8243Z" fill="#ffde00" fill-rule="nonzero" opacity="1" stroke="none"/>
<path d="M422.073 46.9828L433.805 46.9828L437.802 59.0784L441.8 46.9828L449.379 46.9828L453.376 59.0784L457.373 46.9828L469.105 46.9828L457.685 81.6084L449.067 81.6084L445.589 71.1221L442.111 81.6084L433.494 81.6084L422.073 46.9828Z" fill="#ffde00" fill-rule="nonzero" opacity="1" stroke="none"/>
<path d="M477.758 64.3216C477.758 61.8298 478.233 59.4764 479.185 57.2615C480.137 55.0466 481.435 53.1171 483.079 51.4733C484.722 49.8294 486.652 48.5316 488.867 47.5798C491.082 46.6281 493.435 46.1522 495.927 46.1522C498.419 46.1522 500.772 46.6281 502.987 47.5798C505.202 48.5316 507.131 49.8294 508.775 51.4733C510.419 53.1171 511.717 55.0466 512.669 57.2615C513.62 59.4764 514.096 61.8298 514.096 64.3216C514.096 66.8134 513.62 69.1667 512.669 71.3817C511.717 73.5966 510.419 75.526 508.775 77.1699C507.131 78.8138 505.202 80.1116 502.987 81.0633C500.772 82.015 498.419 82.4909 495.927 82.4909C493.435 82.4909 491.082 82.015 488.867 81.0633C486.652 80.1116 484.722 78.8138 483.079 77.1699C481.435 75.526 480.137 73.5966 479.185 71.3817C478.233 69.1667 477.758 66.8134 477.758 64.3216ZM488.659 64.3216C488.659 65.3252 488.849 66.2683 489.23 67.1508C489.611 68.0333 490.13 68.8033 490.788 69.4609C491.445 70.1185 492.215 70.6376 493.098 71.0183C493.98 71.399 494.923 71.5893 495.927 71.5893C496.931 71.5893 497.874 71.399 498.756 71.0183C499.639 70.6376 500.409 70.1185 501.066 69.4609C501.724 68.8033 502.243 68.0333 502.624 67.1508C503.004 66.2683 503.195 65.3252 503.195 64.3216C503.195 63.3179 503.004 62.3749 502.624 61.4923C502.243 60.6098 501.724 59.8398 501.066 59.1822C500.409 58.5247 499.639 58.0056 498.756 57.6249C497.874 57.2442 496.931 57.0538 495.927 57.0538C494.923 57.0538 493.98 57.2442 493.098 57.6249C492.215 58.0056 491.445 58.5247 490.788 59.1822C490.13 59.8398 489.611 60.6098 489.23 61.4923C488.849 62.3749 488.659 63.3179 488.659 64.3216Z" fill="#ffde00" fill-rule="nonzero" opacity="1" stroke="none"/>
<path d="M525.603 46.9828L537.543 46.9828C539.758 46.9828 541.809 47.277 543.695 47.8653C545.581 48.4537 547.216 49.3189 548.601 50.461C549.985 51.603 551.066 53.0133 551.845 54.6918C552.624 56.3703 553.013 58.2997 553.013 60.4801C553.013 62.2105 552.771 63.6813 552.286 64.8926C551.802 66.1039 551.265 67.1075 550.677 67.9035C549.985 68.8033 549.206 69.5647 548.341 70.1877L554.83 81.6084L541.852 81.6084L536.661 72.8352L536.661 81.6084L525.603 81.6084L525.603 46.9828ZM536.661 64.0101L537.232 64.0101C538.547 64.0101 539.663 63.7159 540.58 63.1276C541.497 62.5392 541.956 61.5529 541.956 60.1686C541.956 58.7842 541.497 57.7979 540.58 57.2096C539.663 56.6212 538.547 56.3271 537.232 56.3271L536.661 56.3271L536.661 64.0101Z" fill="#ffde00" fill-rule="nonzero" opacity="1" stroke="none"/>
<path d="M564.52 81.6084L564.52 46.9828L574.124 46.9828C577.377 46.9828 580.276 47.3462 582.82 48.073C585.363 48.7998 587.509 49.8899 589.257 51.3435C591.004 52.797 592.337 54.6053 593.254 56.7683C594.171 58.9313 594.63 61.4318 594.63 64.2697C594.63 67.1075 594.171 69.608 593.254 71.771C592.337 73.934 591.004 75.7423 589.257 77.1958C587.509 78.6494 585.363 79.7482 582.82 80.4923C580.276 81.2364 577.377 81.6084 574.124 81.6084L564.52 81.6084ZM575.578 71.745C578.173 71.745 580.181 71.1307 581.6 69.9021C583.019 68.6736 583.728 66.7961 583.728 64.2697C583.728 61.7433 583.019 59.8744 581.6 58.6631C580.181 57.4518 578.173 56.8462 575.578 56.8462L575.578 71.745Z" fill="#ffde00" fill-rule="nonzero" opacity="1" stroke="none"/>
<path d="M605.202 70.8625C605.964 71.1048 606.76 71.2951 607.59 71.4336C608.283 71.6066 609.07 71.745 609.952 71.8489C610.835 71.9527 611.726 72.0046 612.626 72.0046C614.218 72.0046 615.014 71.4163 615.014 70.2396C615.014 69.7897 614.772 69.3311 614.287 68.8639C613.803 68.3967 613.188 67.8776 612.444 67.3065C611.7 66.7355 610.904 66.1039 610.056 65.4117C609.208 64.7196 608.412 63.9236 607.668 63.0238C606.924 62.1239 606.31 61.1117 605.825 59.9869C605.341 58.8621 605.099 57.573 605.099 56.1194C605.099 54.4928 605.393 53.0566 605.981 51.8107C606.569 50.5648 607.383 49.5265 608.421 48.6959C609.459 47.8653 610.679 47.2337 612.081 46.8011C613.482 46.3685 614.979 46.1522 616.571 46.1522C617.402 46.1522 618.232 46.1955 619.063 46.282C619.894 46.3685 620.638 46.4464 621.295 46.5156C622.057 46.6194 622.801 46.7233 623.528 46.8271L623.528 56.5347C623.251 56.5001 622.939 56.4655 622.593 56.4309C622.316 56.3963 622.005 56.3617 621.659 56.3271C621.313 56.2925 620.949 56.2751 620.569 56.2751C620.361 56.2751 620.101 56.2838 619.79 56.3011C619.478 56.3184 619.184 56.3617 618.907 56.4309C618.63 56.5001 618.388 56.6212 618.181 56.7943C617.973 56.9673 617.869 57.2096 617.869 57.521C617.869 57.7979 618.103 58.144 618.57 58.5593C619.037 58.9746 619.608 59.4591 620.283 60.0128C620.958 60.5666 621.702 61.2068 622.515 61.9336C623.329 62.6604 624.073 63.491 624.747 64.4254C625.422 65.3598 625.993 66.4154 626.461 67.592C626.928 68.7687 627.161 70.0838 627.161 71.5374C627.161 73.0602 626.919 74.4877 626.435 75.8202C625.95 77.1526 625.197 78.312 624.176 79.2983C623.155 80.2846 621.849 81.0633 620.257 81.6343C618.665 82.2054 616.779 82.4909 614.599 82.4909C613.283 82.4909 612.064 82.4303 610.939 82.3092C609.814 82.1881 608.819 82.041 607.954 81.868C606.95 81.6949 606.033 81.4873 605.202 81.245L605.202 70.8625Z" fill="#ffde00" fill-rule="nonzero" opacity="1" stroke="none"/>
</g>
<g opacity="1" vectornator:layerName="Group 5">
<path d="M344.109 561.068C344.87 561.311 345.666 561.501 346.497 561.639C347.189 561.812 347.977 561.951 348.859 562.055C349.742 562.159 350.633 562.21 351.533 562.21C353.125 562.21 353.921 561.622 353.921 560.445C353.921 559.996 353.678 559.537 353.194 559.07C352.709 558.603 352.095 558.083 351.351 557.512C350.607 556.941 349.811 556.31 348.963 555.618C348.115 554.925 347.319 554.129 346.575 553.23C345.831 552.33 345.217 551.318 344.732 550.193C344.248 549.068 344.005 547.779 344.005 546.325C344.005 544.699 344.299 543.262 344.888 542.017C345.476 540.771 346.289 539.732 347.328 538.902C348.366 538.071 349.586 537.44 350.988 537.007C352.389 536.574 353.886 536.358 355.478 536.358C356.309 536.358 357.139 536.401 357.97 536.488C358.8 536.574 359.544 536.652 360.202 536.721C360.963 536.825 361.707 536.929 362.434 537.033L362.434 546.741C362.157 546.706 361.846 546.671 361.5 546.637C361.223 546.602 360.911 546.568 360.565 546.533C360.219 546.498 359.856 546.481 359.475 546.481C359.268 546.481 359.008 546.49 358.696 546.507C358.385 546.524 358.091 546.568 357.814 546.637C357.537 546.706 357.295 546.827 357.087 547C356.88 547.173 356.776 547.415 356.776 547.727C356.776 548.004 357.009 548.35 357.477 548.765C357.944 549.18 358.515 549.665 359.19 550.219C359.865 550.772 360.609 551.413 361.422 552.139C362.235 552.866 362.979 553.697 363.654 554.631C364.329 555.566 364.9 556.621 365.367 557.798C365.834 558.975 366.068 560.29 366.068 561.743C366.068 563.266 365.826 564.694 365.341 566.026C364.857 567.358 364.104 568.518 363.083 569.504C362.062 570.49 360.756 571.269 359.164 571.84C357.572 572.411 355.686 572.697 353.505 572.697C352.19 572.697 350.97 572.636 349.845 572.515C348.721 572.394 347.726 572.247 346.86 572.074C345.857 571.901 344.94 571.693 344.109 571.451L344.109 561.068Z" fill="#ffde00" fill-rule="nonzero" opacity="1" stroke="none"/>
<path d="M368.404 537.189L388.806 537.189L388.806 546.273L379.461 546.273L379.461 550.115L388.65 550.115L388.65 558.732L379.461 558.732L379.461 562.73L389.169 562.73L389.169 571.814L368.404 571.814L368.404 537.189Z" fill="#ffde00" fill-rule="nonzero" opacity="1" stroke="none"/>
<path d="M392.284 537.189L412.685 537.189L412.685 546.273L403.341 546.273L403.341 550.115L412.53 550.115L412.53 558.732L403.341 558.732L403.341 562.73L413.049 562.73L413.049 571.814L392.284 571.814L392.284 537.189Z" fill="#ffde00" fill-rule="nonzero" opacity="1" stroke="none"/>
<path d="M416.164 571.814L416.164 537.189L425.767 537.189C429.02 537.189 431.919 537.552 434.463 538.279C437.006 539.006 439.152 540.096 440.9 541.549C442.647 543.003 443.98 544.811 444.897 546.974C445.814 549.137 446.273 551.638 446.273 554.476C446.273 557.313 445.814 559.814 444.897 561.977C443.98 564.14 442.647 565.948 440.9 567.402C439.152 568.855 437.006 569.954 434.463 570.698C431.919 571.442 429.02 571.814 425.767 571.814L416.164 571.814ZM427.221 561.951C429.816 561.951 431.824 561.337 433.243 560.108C434.662 558.879 435.371 557.002 435.371 554.476C435.371 551.949 434.662 550.08 433.243 548.869C431.824 547.658 429.816 547.052 427.221 547.052L427.221 561.951Z" fill="#ffde00" fill-rule="nonzero" opacity="1" stroke="none"/>
<path d="M486.453 550.374C486.453 552.762 486.038 554.796 485.207 556.474C484.376 558.153 483.243 559.511 481.807 560.549C480.37 561.588 478.692 562.349 476.771 562.833C474.85 563.318 472.783 563.56 470.568 563.56L470.568 571.814L459.51 571.814L459.51 537.189L470.568 537.189C472.783 537.189 474.85 537.431 476.771 537.915C478.692 538.4 480.37 539.161 481.807 540.2C483.243 541.238 484.376 542.596 485.207 544.275C486.038 545.953 486.453 547.986 486.453 550.374ZM470.568 554.216L471.035 554.216C472.488 554.216 473.535 553.879 474.176 553.204C474.816 552.529 475.136 551.586 475.136 550.374C475.136 549.163 474.816 548.22 474.176 547.545C473.535 546.87 472.488 546.533 471.035 546.533L470.568 546.533L470.568 554.216Z" fill="#ffde00" fill-rule="nonzero" opacity="1" stroke="none"/>
<path d="M489.048 537.189L500.106 537.189L500.106 548.973L506.283 548.973L506.283 537.189L517.393 537.189L517.393 571.814L506.283 571.814L506.283 558.992L500.106 558.992L500.106 571.814L489.048 571.814L489.048 537.189Z" fill="#ffde00" fill-rule="nonzero" opacity="1" stroke="none"/>
<path d="M521.027 537.189L532.966 537.189C535.181 537.189 537.232 537.483 539.118 538.071C541.004 538.66 542.639 539.525 544.024 540.667C545.408 541.809 546.49 543.219 547.268 544.898C548.047 546.576 548.436 548.506 548.436 550.686C548.436 552.416 548.194 553.887 547.709 555.098C547.225 556.31 546.689 557.313 546.1 558.109C545.408 559.009 544.629 559.771 543.764 560.394L550.253 571.814L537.275 571.814L532.084 563.041L532.084 571.814L521.027 571.814L521.027 537.189ZM532.084 554.216L532.655 554.216C533.97 554.216 535.086 553.922 536.003 553.333C536.92 552.745 537.379 551.759 537.379 550.374C537.379 548.99 536.92 548.004 536.003 547.415C535.086 546.827 533.97 546.533 532.655 546.533L532.084 546.533L532.084 554.216Z" fill="#ffde00" fill-rule="nonzero" opacity="1" stroke="none"/>
<path d="M563.906 537.189L572.212 537.189L585.346 571.814L574.444 571.814L573.302 568.7L562.816 568.7L561.674 571.814L550.772 571.814L563.906 537.189ZM570.395 561.068L568.059 554.995L565.723 561.068L570.395 561.068Z" fill="#ffde00" fill-rule="nonzero" opacity="1" stroke="none"/>
<path d="M585.969 561.068C586.73 561.311 587.526 561.501 588.357 561.639C589.049 561.812 589.836 561.951 590.719 562.055C591.601 562.159 592.493 562.21 593.392 562.21C594.984 562.21 595.78 561.622 595.78 560.445C595.78 559.996 595.538 559.537 595.054 559.07C594.569 558.603 593.955 558.083 593.211 557.512C592.467 556.941 591.671 556.31 590.823 555.618C589.975 554.925 589.179 554.129 588.435 553.23C587.691 552.33 587.076 551.318 586.592 550.193C586.107 549.068 585.865 547.779 585.865 546.325C585.865 544.699 586.159 543.262 586.748 542.017C587.336 540.771 588.149 539.732 589.187 538.902C590.226 538.071 591.446 537.44 592.847 537.007C594.249 536.574 595.746 536.358 597.338 536.358C598.168 536.358 598.999 536.401 599.83 536.488C600.66 536.574 601.404 536.652 602.062 536.721C602.823 536.825 603.567 536.929 604.294 537.033L604.294 546.741C604.017 546.706 603.706 546.671 603.36 546.637C603.083 546.602 602.771 546.568 602.425 546.533C602.079 546.498 601.716 546.481 601.335 546.481C601.127 546.481 600.868 546.49 600.556 546.507C600.245 546.524 599.951 546.568 599.674 546.637C599.397 546.706 599.155 546.827 598.947 547C598.739 547.173 598.636 547.415 598.636 547.727C598.636 548.004 598.869 548.35 599.336 548.765C599.804 549.18 600.375 549.665 601.049 550.219C601.724 550.772 602.468 551.413 603.282 552.139C604.095 552.866 604.839 553.697 605.514 554.631C606.189 555.566 606.76 556.621 607.227 557.798C607.694 558.975 607.928 560.29 607.928 561.743C607.928 563.266 607.686 564.694 607.201 566.026C606.717 567.358 605.964 568.518 604.943 569.504C603.922 570.49 602.615 571.269 601.024 571.84C599.432 572.411 597.545 572.697 595.365 572.697C594.05 572.697 592.83 572.636 591.705 572.515C590.58 572.394 589.585 572.247 588.72 572.074C587.717 571.901 586.8 571.693 585.969 571.451L585.969 561.068Z" fill="#ffde00" fill-rule="nonzero" opacity="1" stroke="none"/>
<path d="M610.264 537.189L630.665 537.189L630.665 546.273L621.321 546.273L621.321 550.115L630.51 550.115L630.51 558.732L621.321 558.732L621.321 562.73L631.029 562.73L631.029 571.814L610.264 571.814L610.264 537.189Z" fill="#ffde00" fill-rule="nonzero" opacity="1" stroke="none"/>
</g>
<g opacity="1" vectornator:layerName="Group 4">
<g opacity="1" vectornator:layerName="Group 1">
<path d="M294.54 306.778C294.54 200.056 381.055 113.541 487.777 113.541C594.498 113.541 681.013 200.056 681.013 306.778C681.013 413.499 594.498 500.014 487.777 500.014C381.055 500.014 294.54 413.499 294.54 306.778Z" fill="none" opacity="1" stroke="#16a321" stroke-linecap="butt" stroke-linejoin="round" stroke-width="10" vectornator:layerName="Oval 1"/>
<path d="M358.554 176.182L617.347 435.225" fill="none" opacity="1" stroke="#ffde00" stroke-linecap="butt" stroke-linejoin="round" stroke-width="10" vectornator:layerName="Curve 1"/>
<path d="M358.429 435.1L617.472 176.307" fill="none" opacity="1" stroke="#ffde00" stroke-linecap="butt" stroke-linejoin="round" stroke-width="10" vectornator:layerName="Curve 2"/>
<path d="M353.122 172.123L622.432 172.123L622.432 441.433L353.122 441.433L353.122 172.123Z" fill="none" opacity="1" stroke="#de1957" stroke-linecap="butt" stroke-linejoin="round" stroke-width="10" vectornator:layerName="Rectangle 1"/>
</g>
<g opacity="1" vectornator:layerName="Group 2">
<path d="M333.683 169.417C333.683 159.453 341.761 151.375 351.726 151.375C361.691 151.375 369.769 159.453 369.769 169.417C369.769 179.382 361.691 187.46 351.726 187.46C341.761 187.46 333.683 179.382 333.683 169.417Z" fill="#ffde00" fill-rule="nonzero" opacity="1" stroke="none" vectornator:layerName="Oval 1"/>
<path d="M603.373 169.417C603.373 159.453 611.451 151.375 621.416 151.375C631.38 151.375 639.459 159.453 639.459 169.417C639.459 179.382 631.38 187.46 621.416 187.46C611.451 187.46 603.373 179.382 603.373 169.417Z" fill="#ffde00" fill-rule="nonzero" opacity="1" stroke="none" vectornator:layerName="Oval 2"/>
</g>
<g opacity="1" vectornator:layerName="Group 3">
<path d="M333.683 444.276C333.683 434.311 341.761 426.233 351.726 426.233C361.691 426.233 369.769 434.311 369.769 444.276C369.769 454.241 361.691 462.319 351.726 462.319C341.761 462.319 333.683 454.241 333.683 444.276Z" fill="#ffde00" fill-rule="nonzero" opacity="1" stroke="none" vectornator:layerName="Oval 1"/>
<path d="M603.373 444.276C603.373 434.311 611.451 426.233 621.416 426.233C631.38 426.233 639.459 434.311 639.459 444.276C639.459 454.241 631.38 462.319 621.416 462.319C611.451 462.319 603.373 454.241 603.373 444.276Z" fill="#ffde00" fill-rule="nonzero" opacity="1" stroke="none" vectornator:layerName="Oval 2"/>
</g>
<g opacity="1" vectornator:layerName="Group 4">
<path d="M347.74 104.603L356.046 104.603L369.18 139.229L358.278 139.229L357.136 136.114L346.65 136.114L345.508 139.229L334.606 139.229L347.74 104.603ZM354.229 128.483L351.893 122.409L349.557 128.483L354.229 128.483Z" fill="#ffffff" fill-rule="nonzero" opacity="1" stroke="none"/>
</g>
<g opacity="1" vectornator:layerName="Group 7">
<path d="M335.431 496.076C335.431 493.308 335.915 490.807 336.884 488.575C337.853 486.343 339.168 484.431 340.83 482.839C342.491 481.247 344.429 480.027 346.644 479.179C348.859 478.331 351.212 477.907 353.704 477.907C355.677 477.907 357.433 478.097 358.973 478.478C360.513 478.859 361.837 479.291 362.944 479.776C364.225 480.33 365.332 480.935 366.267 481.593L360.816 491.197C360.262 490.781 359.657 490.383 358.999 490.003C358.411 489.726 357.71 489.458 356.897 489.198C356.083 488.938 355.158 488.809 354.119 488.809C353.046 488.809 352.06 488.999 351.16 489.38C350.26 489.76 349.473 490.28 348.798 490.937C348.123 491.595 347.596 492.365 347.215 493.247C346.834 494.13 346.644 495.073 346.644 496.076C346.644 497.08 346.843 498.023 347.241 498.906C347.639 499.788 348.184 500.558 348.876 501.216C349.568 501.873 350.382 502.392 351.316 502.773C352.25 503.154 353.271 503.344 354.379 503.344C355.486 503.344 356.473 503.206 357.338 502.929C358.203 502.652 358.93 502.341 359.518 501.994C360.21 501.614 360.816 501.164 361.335 500.645L366.786 510.249C365.851 511.01 364.744 511.685 363.463 512.273C362.356 512.758 361.024 513.208 359.466 513.623C357.909 514.038 356.127 514.246 354.119 514.246C351.42 514.246 348.928 513.805 346.644 512.922C344.36 512.039 342.387 510.802 340.726 509.21C339.065 507.618 337.767 505.706 336.832 503.474C335.898 501.242 335.431 498.776 335.431 496.076Z" fill="#ffffff" fill-rule="nonzero" opacity="1" stroke="none"/>
</g>
<g opacity="1" vectornator:layerName="Group 6">
<path d="M610.176 513.363L610.176 478.738L619.78 478.738C623.033 478.738 625.932 479.101 628.475 479.828C631.019 480.555 633.165 481.645 634.912 483.098C636.66 484.552 637.993 486.36 638.91 488.523C639.827 490.686 640.285 493.187 640.285 496.025C640.285 498.862 639.827 501.363 638.91 503.526C637.993 505.689 636.66 507.497 634.912 508.951C633.165 510.404 631.019 511.503 628.475 512.247C625.932 512.991 623.033 513.363 619.78 513.363L610.176 513.363ZM621.233 503.5C623.829 503.5 625.836 502.886 627.255 501.657C628.674 500.428 629.384 498.551 629.384 496.025C629.384 493.498 628.674 491.629 627.255 490.418C625.836 489.207 623.829 488.601 621.233 488.601L621.233 503.5Z" fill="#ffffff" fill-rule="nonzero" opacity="1" stroke="none"/>
</g>
<g opacity="1" vectornator:layerName="Group 5">
<path d="M609.074 104.603L622.623 104.603C624.353 104.603 625.937 104.802 627.373 105.2C628.809 105.598 630.038 106.187 631.059 106.965C632.08 107.744 632.876 108.713 633.447 109.872C634.018 111.032 634.303 112.39 634.303 113.947C634.303 115.055 634.165 115.998 633.888 116.777C633.611 117.555 633.317 118.204 633.005 118.723C632.625 119.346 632.192 119.865 631.708 120.281C632.469 120.765 633.161 121.388 633.784 122.15C634.303 122.807 634.779 123.638 635.212 124.641C635.644 125.645 635.861 126.874 635.861 128.327C635.861 129.988 635.566 131.494 634.978 132.844C634.39 134.193 633.55 135.344 632.46 136.296C631.37 137.247 630.038 137.974 628.463 138.476C626.888 138.978 625.132 139.229 623.194 139.229L609.074 139.229L609.074 104.603ZM621.014 131.079C623.644 131.079 624.959 130.075 624.959 128.068C624.959 126.06 623.644 125.057 621.014 125.057L619.768 125.057L619.768 131.079L621.014 131.079ZM623.609 115.141C623.609 113.549 622.744 112.753 621.014 112.753L619.768 112.753L619.768 117.529L621.014 117.529C622.744 117.529 623.609 116.733 623.609 115.141Z" fill="#ffffff" fill-rule="nonzero" opacity="1" stroke="none"/>
</g>
</g>
</g>
</g>
</svg>
