<?xml version="1.0" encoding="UTF-8" standalone="no"?>
<!DOCTYPE svg PUBLIC "-//W3C//DTD SVG 1.1//EN" "http://www.w3.org/Graphics/SVG/1.1/DTD/svg11.dtd">
<!-- Created with Vectornator (http://vectornator.io/) -->
<svg height="100%" stroke-miterlimit="10" style="fill-rule:nonzero;clip-rule:evenodd;stroke-linecap:round;stroke-linejoin:round;" version="1.1" viewBox="0 0 968.654 627.382" width="100%" xml:space="preserve" xmlns="http://www.w3.org/2000/svg" xmlns:vectornator="http://vectornator.io" xmlns:xlink="http://www.w3.org/1999/xlink">
<defs/>
<path d="M0 0L968.654 0L968.654 627.382L0 627.382L0 0Z" fill="#000000" fill-rule="nonzero" opacity="1" stroke="none"/>
<g id="Layer-1" vectornator:layerName="Layer 1">
<g opacity="1" vectornator:layerName="Group 7"/>
<g opacity="1" vectornator:layerName="Group 10">
<g opacity="1" vectornator:layerName="Group 8">
<path d="M212.109 313.691C212.109 270.334 247.257 235.186 290.614 235.186C333.971 235.186 369.118 270.334 369.118 313.691C369.118 357.048 333.971 392.196 290.614 392.196C247.257 392.196 212.109 357.048 212.109 313.691Z" fill="none" opacity="1" stroke="#16a321" stroke-linecap="butt" stroke-linejoin="round" stroke-width="10" vectornator:layerName="Oval 1"/>
<path d="M411.112 244.365L552.658 244.365L552.658 385.911L411.112 385.911L411.112 244.365Z" fill="none" opacity="1" stroke="#de1957" stroke-linecap="butt" stroke-linejoin="round" stroke-width="10" vectornator:layerName="Rectangle 1"/>
<path d="M671.019 239.728L756.545 387.864L585.493 387.864L671.019 239.728Z" fill="none" opacity="1" stroke="#ffde00" stroke-linecap="butt" stroke-linejoin="round" stroke-width="10" vectornator:layerName="Polygon 1"/>
</g>
<g opacity="1" vectornator:layerName="Group 8">
<path d="M330.74 518.463C331.502 518.705 332.298 518.896 333.128 519.034C333.82 519.207 334.608 519.346 335.49 519.45C336.373 519.553 337.264 519.605 338.164 519.605C339.756 519.605 340.552 519.017 340.552 517.84C340.552 517.39 340.31 516.932 339.825 516.465C339.34 515.997 338.726 515.478 337.982 514.907C337.238 514.336 336.442 513.705 335.594 513.012C334.746 512.32 333.95 511.524 333.206 510.624C332.462 509.725 331.848 508.712 331.363 507.588C330.879 506.463 330.636 505.174 330.636 503.72C330.636 502.093 330.931 500.657 331.519 499.411C332.107 498.165 332.921 497.127 333.959 496.297C334.997 495.466 336.217 494.834 337.619 494.402C339.02 493.969 340.517 493.753 342.109 493.753C342.94 493.753 343.77 493.796 344.601 493.883C345.432 493.969 346.176 494.047 346.833 494.116C347.595 494.22 348.339 494.324 349.065 494.428L349.065 504.135C348.789 504.101 348.477 504.066 348.131 504.032C347.854 503.997 347.543 503.962 347.197 503.928C346.85 503.893 346.487 503.876 346.106 503.876C345.899 503.876 345.639 503.884 345.328 503.902C345.016 503.919 344.722 503.962 344.445 504.032C344.168 504.101 343.926 504.222 343.718 504.395C343.511 504.568 343.407 504.81 343.407 505.122C343.407 505.399 343.641 505.745 344.108 506.16C344.575 506.575 345.146 507.06 345.821 507.613C346.496 508.167 347.24 508.807 348.053 509.534C348.866 510.261 349.61 511.092 350.285 512.026C350.96 512.96 351.531 514.016 351.998 515.193C352.466 516.369 352.699 517.684 352.699 519.138C352.699 520.661 352.457 522.088 351.972 523.421C351.488 524.753 350.735 525.913 349.714 526.899C348.693 527.885 347.387 528.664 345.795 529.235C344.203 529.806 342.317 530.092 340.136 530.092C338.821 530.092 337.601 530.031 336.477 529.91C335.352 529.789 334.357 529.642 333.492 529.469C332.488 529.296 331.571 529.088 330.74 528.846L330.74 518.463Z" fill="#ffde00" fill-rule="nonzero" opacity="1" stroke="none"/>
<path d="M355.035 494.583L375.437 494.583L375.437 503.668L366.093 503.668L366.093 507.51L375.281 507.51L375.281 516.127L366.093 516.127L366.093 520.124L375.8 520.124L375.8 529.209L355.035 529.209L355.035 494.583Z" fill="#ffde00" fill-rule="nonzero" opacity="1" stroke="none"/>
<path d="M378.915 494.583L399.317 494.583L399.317 503.668L389.972 503.668L389.972 507.51L399.161 507.51L399.161 516.127L389.972 516.127L389.972 520.124L399.68 520.124L399.68 529.209L378.915 529.209L378.915 494.583Z" fill="#ffde00" fill-rule="nonzero" opacity="1" stroke="none"/>
<path d="M402.795 529.209L402.795 494.583L412.399 494.583C415.652 494.583 418.55 494.947 421.094 495.674C423.638 496.4 425.783 497.491 427.531 498.944C429.279 500.398 430.611 502.206 431.528 504.369C432.445 506.532 432.904 509.032 432.904 511.87C432.904 514.708 432.445 517.209 431.528 519.372C430.611 521.535 429.279 523.343 427.531 524.796C425.783 526.25 423.638 527.349 421.094 528.093C418.55 528.837 415.652 529.209 412.399 529.209L402.795 529.209ZM413.852 519.346C416.448 519.346 418.455 518.731 419.874 517.503C421.293 516.274 422.002 514.397 422.002 511.87C422.002 509.344 421.293 507.475 419.874 506.264C418.455 505.052 416.448 504.447 413.852 504.447L413.852 519.346Z" fill="#ffde00" fill-rule="nonzero" opacity="1" stroke="none"/>
<path d="M473.084 507.769C473.084 510.157 472.669 512.19 471.838 513.869C471.008 515.547 469.874 516.906 468.438 517.944C467.002 518.982 465.323 519.744 463.402 520.228C461.482 520.713 459.414 520.955 457.199 520.955L457.199 529.209L446.142 529.209L446.142 494.583L457.199 494.583C459.414 494.583 461.482 494.826 463.402 495.31C465.323 495.795 467.002 496.556 468.438 497.594C469.874 498.633 471.008 499.991 471.838 501.67C472.669 503.348 473.084 505.381 473.084 507.769ZM457.199 511.611L457.666 511.611C459.12 511.611 460.167 511.273 460.807 510.598C461.447 509.924 461.767 508.981 461.767 507.769C461.767 506.558 461.447 505.615 460.807 504.94C460.167 504.265 459.12 503.928 457.666 503.928L457.199 503.928L457.199 511.611Z" fill="#ffde00" fill-rule="nonzero" opacity="1" stroke="none"/>
<path d="M475.68 494.583L486.737 494.583L486.737 506.368L492.915 506.368L492.915 494.583L504.024 494.583L504.024 529.209L492.915 529.209L492.915 516.387L486.737 516.387L486.737 529.209L475.68 529.209L475.68 494.583Z" fill="#ffde00" fill-rule="nonzero" opacity="1" stroke="none"/>
<path d="M507.658 494.583L519.598 494.583C521.813 494.583 523.863 494.878 525.749 495.466C527.635 496.054 529.271 496.92 530.655 498.062C532.039 499.204 533.121 500.614 533.899 502.292C534.678 503.971 535.067 505.9 535.067 508.081C535.067 509.811 534.825 511.282 534.341 512.493C533.856 513.705 533.32 514.708 532.731 515.504C532.039 516.404 531.261 517.165 530.395 517.788L536.884 529.209L523.906 529.209L518.715 520.436L518.715 529.209L507.658 529.209L507.658 494.583ZM518.715 511.611L519.286 511.611C520.601 511.611 521.717 511.317 522.634 510.728C523.552 510.14 524.01 509.154 524.01 507.769C524.01 506.385 523.552 505.399 522.634 504.81C521.717 504.222 520.601 503.928 519.286 503.928L518.715 503.928L518.715 511.611Z" fill="#ffde00" fill-rule="nonzero" opacity="1" stroke="none"/>
<path d="M550.537 494.583L558.843 494.583L571.977 529.209L561.076 529.209L559.934 526.094L549.447 526.094L548.305 529.209L537.404 529.209L550.537 494.583ZM557.026 518.463L554.69 512.389L552.354 518.463L557.026 518.463Z" fill="#ffde00" fill-rule="nonzero" opacity="1" stroke="none"/>
<path d="M572.6 518.463C573.362 518.705 574.157 518.896 574.988 519.034C575.68 519.207 576.468 519.346 577.35 519.45C578.233 519.553 579.124 519.605 580.024 519.605C581.616 519.605 582.412 519.017 582.412 517.84C582.412 517.39 582.169 516.932 581.685 516.465C581.2 515.997 580.586 515.478 579.842 514.907C579.098 514.336 578.302 513.705 577.454 513.012C576.606 512.32 575.81 511.524 575.066 510.624C574.322 509.725 573.708 508.712 573.223 507.588C572.739 506.463 572.496 505.174 572.496 503.72C572.496 502.093 572.79 500.657 573.379 499.411C573.967 498.165 574.78 497.127 575.819 496.297C576.857 495.466 578.077 494.834 579.479 494.402C580.88 493.969 582.377 493.753 583.969 493.753C584.8 493.753 585.63 493.796 586.461 493.883C587.291 493.969 588.035 494.047 588.693 494.116C589.454 494.22 590.198 494.324 590.925 494.428L590.925 504.135C590.648 504.101 590.337 504.066 589.991 504.032C589.714 503.997 589.402 503.962 589.056 503.928C588.71 503.893 588.347 503.876 587.966 503.876C587.759 503.876 587.499 503.884 587.188 503.902C586.876 503.919 586.582 503.962 586.305 504.032C586.028 504.101 585.786 504.222 585.578 504.395C585.371 504.568 585.267 504.81 585.267 505.122C585.267 505.399 585.5 505.745 585.968 506.16C586.435 506.575 587.006 507.06 587.681 507.613C588.356 508.167 589.1 508.807 589.913 509.534C590.726 510.261 591.47 511.092 592.145 512.026C592.82 512.96 593.391 514.016 593.858 515.193C594.325 516.369 594.559 517.684 594.559 519.138C594.559 520.661 594.317 522.088 593.832 523.421C593.348 524.753 592.595 525.913 591.574 526.899C590.553 527.885 589.247 528.664 587.655 529.235C586.063 529.806 584.177 530.092 581.996 530.092C580.681 530.092 579.461 530.031 578.336 529.91C577.212 529.789 576.217 529.642 575.351 529.469C574.348 529.296 573.431 529.088 572.6 528.846L572.6 518.463Z" fill="#ffde00" fill-rule="nonzero" opacity="1" stroke="none"/>
<path d="M596.895 494.583L617.297 494.583L617.297 503.668L607.952 503.668L607.952 507.51L617.141 507.51L617.141 516.127L607.952 516.127L607.952 520.124L617.66 520.124L617.66 529.209L596.895 529.209L596.895 494.583Z" fill="#ffde00" fill-rule="nonzero" opacity="1" stroke="none"/>
</g>
<g opacity="1" vectornator:layerName="Group 9">
<path d="M343.34 116.135C344.067 114.75 344.534 113.712 344.741 113.02C344.949 112.328 345.053 111.67 345.053 111.047C345.053 109.94 344.689 109.083 343.963 108.477C343.236 107.872 342.18 107.569 340.796 107.569C340.519 107.569 340.26 107.578 340.017 107.595C339.775 107.612 339.55 107.638 339.342 107.673C339.1 107.707 338.875 107.725 338.668 107.725L338.668 98.121C339.152 98.0171 339.585 97.9306 339.965 97.8614C340.346 97.7922 340.718 97.7403 341.082 97.7057C341.445 97.6711 341.826 97.6451 342.224 97.6278C342.622 97.6105 343.08 97.6018 343.599 97.6018C345.26 97.6018 346.896 97.7835 348.505 98.1469C350.114 98.5103 351.559 99.1073 352.84 99.9379C354.12 100.769 355.158 101.876 355.954 103.26C356.75 104.645 357.148 106.34 357.148 108.348C357.148 109.282 357.045 110.208 356.837 111.125C356.629 112.042 356.309 113.037 355.877 114.11C355.444 115.183 354.89 116.385 354.215 117.718C353.541 119.05 352.753 120.599 351.853 122.364L351.178 123.662L357.719 123.662L354.76 132.747L334.618 132.747L343.34 116.135Z" fill="#ffde00" fill-rule="nonzero" opacity="1" stroke="none"/>
<path d="M381.27 98.121L390.044 98.121L390.044 120.962L392.12 120.962L392.12 127.919L390.044 127.919L390.044 132.747L379.817 132.747L379.817 127.919L367.15 127.919L367.15 122.053L381.27 98.121ZM375.249 120.962L379.817 120.962L379.817 113.279L375.249 120.962Z" fill="#ffde00" fill-rule="nonzero" opacity="1" stroke="none"/>
<path d="M418.768 98.121L430.501 98.121L434.498 110.217L438.495 98.121L446.074 98.121L450.072 110.217L454.069 98.121L465.801 98.121L454.38 132.747L445.763 132.747L442.285 122.26L438.807 132.747L430.189 132.747L418.768 98.121Z" fill="#ffde00" fill-rule="nonzero" opacity="1" stroke="none"/>
<path d="M474.453 115.46C474.453 112.968 474.929 110.615 475.881 108.4C476.832 106.185 478.13 104.255 479.774 102.611C481.418 100.968 483.347 99.6697 485.562 98.718C487.777 97.7662 490.131 97.2904 492.622 97.2904C495.114 97.2904 497.468 97.7662 499.683 98.718C501.897 99.6697 503.827 100.968 505.471 102.611C507.115 104.255 508.412 106.185 509.364 108.4C510.316 110.615 510.792 112.968 510.792 115.46C510.792 117.952 510.316 120.305 509.364 122.52C508.412 124.735 507.115 126.664 505.471 128.308C503.827 129.952 501.897 131.25 499.683 132.201C497.468 133.153 495.114 133.629 492.622 133.629C490.131 133.629 487.777 133.153 485.562 132.201C483.347 131.25 481.418 129.952 479.774 128.308C478.13 126.664 476.832 124.735 475.881 122.52C474.929 120.305 474.453 117.952 474.453 115.46ZM485.355 115.46C485.355 116.463 485.545 117.406 485.926 118.289C486.306 119.171 486.826 119.941 487.483 120.599C488.141 121.257 488.911 121.776 489.793 122.156C490.676 122.537 491.619 122.727 492.622 122.727C493.626 122.727 494.569 122.537 495.452 122.156C496.334 121.776 497.104 121.257 497.762 120.599C498.419 119.941 498.938 119.171 499.319 118.289C499.7 117.406 499.89 116.463 499.89 115.46C499.89 114.456 499.7 113.513 499.319 112.63C498.938 111.748 498.419 110.978 497.762 110.32C497.104 109.663 496.334 109.144 495.452 108.763C494.569 108.382 493.626 108.192 492.622 108.192C491.619 108.192 490.676 108.382 489.793 108.763C488.911 109.144 488.141 109.663 487.483 110.32C486.826 110.978 486.306 111.748 485.926 112.63C485.545 113.513 485.355 114.456 485.355 115.46Z" fill="#ffde00" fill-rule="nonzero" opacity="1" stroke="none"/>
<path d="M522.299 98.121L534.239 98.121C536.454 98.121 538.504 98.4151 540.39 99.0035C542.277 99.5918 543.912 100.457 545.296 101.599C546.681 102.741 547.762 104.151 548.541 105.83C549.319 107.508 549.709 109.438 549.709 111.618C549.709 113.349 549.467 114.819 548.982 116.031C548.497 117.242 547.961 118.246 547.373 119.042C546.681 119.941 545.902 120.703 545.037 121.326L551.526 132.747L538.548 132.747L533.356 123.973L533.356 132.747L522.299 132.747L522.299 98.121ZM533.356 115.148L533.927 115.148C535.243 115.148 536.359 114.854 537.276 114.266C538.193 113.677 538.651 112.691 538.651 111.307C538.651 109.922 538.193 108.936 537.276 108.348C536.359 107.759 535.243 107.465 533.927 107.465L533.356 107.465L533.356 115.148Z" fill="#ffde00" fill-rule="nonzero" opacity="1" stroke="none"/>
<path d="M561.216 132.747L561.216 98.121L570.82 98.121C574.073 98.121 576.971 98.4844 579.515 99.2111C582.059 99.9379 584.205 101.028 585.952 102.482C587.7 103.935 589.032 105.743 589.95 107.906C590.867 110.069 591.325 112.57 591.325 115.408C591.325 118.246 590.867 120.746 589.95 122.909C589.032 125.072 587.7 126.88 585.952 128.334C584.205 129.788 582.059 130.886 579.515 131.63C576.971 132.374 574.073 132.747 570.82 132.747L561.216 132.747ZM572.273 122.883C574.869 122.883 576.876 122.269 578.295 121.04C579.714 119.812 580.424 117.934 580.424 115.408C580.424 112.881 579.714 111.013 578.295 109.801C576.876 108.59 574.869 107.984 572.273 107.984L572.273 122.883Z" fill="#ffde00" fill-rule="nonzero" opacity="1" stroke="none"/>
<path d="M601.898 122.001C602.659 122.243 603.455 122.433 604.286 122.572C604.978 122.745 605.765 122.883 606.648 122.987C607.531 123.091 608.422 123.143 609.321 123.143C610.913 123.143 611.709 122.554 611.709 121.378C611.709 120.928 611.467 120.469 610.983 120.002C610.498 119.535 609.884 119.016 609.14 118.445C608.396 117.874 607.6 117.242 606.752 116.55C605.904 115.858 605.108 115.062 604.364 114.162C603.62 113.262 603.005 112.25 602.521 111.125C602.036 110 601.794 108.711 601.794 107.258C601.794 105.631 602.088 104.195 602.677 102.949C603.265 101.703 604.078 100.665 605.117 99.8341C606.155 99.0035 607.375 98.3719 608.776 97.9393C610.178 97.5067 611.675 97.2904 613.267 97.2904C614.097 97.2904 614.928 97.3336 615.759 97.4202C616.589 97.5067 617.333 97.5845 617.991 97.6538C618.752 97.7576 619.496 97.8614 620.223 97.9652L620.223 107.673C619.946 107.638 619.635 107.604 619.289 107.569C619.012 107.534 618.7 107.5 618.354 107.465C618.008 107.431 617.645 107.413 617.264 107.413C617.056 107.413 616.797 107.422 616.485 107.439C616.174 107.457 615.88 107.5 615.603 107.569C615.326 107.638 615.084 107.759 614.876 107.932C614.668 108.105 614.565 108.348 614.565 108.659C614.565 108.936 614.798 109.282 615.265 109.697C615.733 110.113 616.304 110.597 616.979 111.151C617.653 111.705 618.397 112.345 619.211 113.072C620.024 113.799 620.768 114.629 621.443 115.564C622.118 116.498 622.689 117.554 623.156 118.73C623.623 119.907 623.857 121.222 623.857 122.676C623.857 124.198 623.615 125.626 623.13 126.958C622.646 128.291 621.893 129.45 620.872 130.436C619.851 131.423 618.545 132.201 616.953 132.772C615.361 133.344 613.474 133.629 611.294 133.629C609.979 133.629 608.759 133.568 607.634 133.447C606.51 133.326 605.515 133.179 604.649 133.006C603.646 132.833 602.729 132.625 601.898 132.383L601.898 122.001Z" fill="#ffde00" fill-rule="nonzero" opacity="1" stroke="none"/>
</g>
</g>
</g>
</svg>
