<?xml version="1.0" encoding="UTF-8" standalone="no"?>
<!DOCTYPE svg PUBLIC "-//W3C//DTD SVG 1.1//EN" "http://www.w3.org/Graphics/SVG/1.1/DTD/svg11.dtd">
<!-- Created with Vectornator (http://vectornator.io/) -->
<svg height="100%" stroke-miterlimit="10" style="fill-rule:nonzero;clip-rule:evenodd;stroke-linecap:round;stroke-linejoin:round;" version="1.1" viewBox="0 0 623.049 355.621" width="100%" xml:space="preserve" xmlns="http://www.w3.org/2000/svg" xmlns:vectornator="http://vectornator.io" xmlns:xlink="http://www.w3.org/1999/xlink">
<defs/>
<path d="M0 0L623.049 0L623.049 355.621L0 355.621L0 0Z" fill="#000000" fill-rule="nonzero" opacity="1" stroke="none"/>
<g id="Layer-1" vectornator:layerName="Layer 1">
<g opacity="1" vectornator:layerName="Group 1">
<path d="M86.4302 145.239L119.832 145.239L119.832 160.113L104.534 160.113L104.534 166.403L119.578 166.403L119.578 180.511L104.534 180.511L104.534 201.93L86.4302 201.93L86.4302 145.239Z" fill="#ffe587" fill-rule="nonzero" opacity="1" stroke="none"/>
<path d="M136.312 145.239L155.52 145.239L155.52 201.93L136.312 201.93L136.312 145.239Z" fill="#ffe587" fill-rule="nonzero" opacity="1" stroke="none"/>
<path d="M173.274 201.93L173.274 145.239L188.998 145.239C194.324 145.239 199.07 145.834 203.234 147.024C207.399 148.214 210.912 149.999 213.773 152.379C216.635 154.758 218.816 157.719 220.318 161.26C221.819 164.802 222.57 168.896 222.57 173.542C222.57 178.188 221.819 182.282 220.318 185.823C218.816 189.365 216.635 192.325 213.773 194.705C210.912 197.085 207.399 198.884 203.234 200.102C199.07 201.32 194.324 201.93 188.998 201.93L173.274 201.93ZM191.378 185.781C195.627 185.781 198.914 184.775 201.237 182.764C203.56 180.752 204.722 177.678 204.722 173.542C204.722 169.406 203.56 166.346 201.237 164.363C198.914 162.38 195.627 161.388 191.378 161.388L191.378 185.781Z" fill="#ffe587" fill-rule="nonzero" opacity="1" stroke="none"/>
<path d="M239.049 145.239L272.452 145.239L272.452 160.113L257.153 160.113L257.153 166.403L272.197 166.403L272.197 180.511L257.153 180.511L257.153 187.056L273.047 187.056L273.047 201.93L239.049 201.93L239.049 145.239Z" fill="#ffe587" fill-rule="nonzero" opacity="1" stroke="none"/>
<path d="M299.47 186.036L288.676 186.036L288.676 171.927L299.47 171.927L299.47 161.133L313.579 161.133L313.579 171.927L324.373 171.927L324.373 186.036L313.579 186.036L313.579 196.83L299.47 196.83L299.47 186.036ZM307.544 191.73L307.544 180.001L319.273 180.001L319.273 177.962L307.544 177.962L307.544 166.233L305.504 166.233L305.504 177.962L293.775 177.962L293.775 180.001L305.504 180.001L305.504 191.73L307.544 191.73Z" fill="#ffe587" fill-rule="nonzero" opacity="1" stroke="none"/>
<path d="M340.852 201.93L340.852 145.239L356.576 145.239C361.902 145.239 366.647 145.834 370.812 147.024C374.977 148.214 378.49 149.999 381.351 152.379C384.213 154.758 386.394 157.719 387.896 161.26C389.397 164.802 390.148 168.896 390.148 173.542C390.148 178.188 389.397 182.282 387.896 185.823C386.394 189.365 384.213 192.325 381.351 194.705C378.49 197.085 374.977 198.884 370.812 200.102C366.647 201.32 361.902 201.93 356.576 201.93L340.852 201.93ZM351.561 193.09L351.561 154.079L356.576 154.079C363.772 154.079 369.367 155.708 373.362 158.966C377.357 162.224 379.354 167.082 379.354 173.542C379.354 180.001 377.357 184.874 373.362 188.161C369.367 191.447 363.772 193.09 356.576 193.09L351.561 193.09ZM349.351 195.13L356.576 195.13C364.848 195.13 371.095 193.246 375.317 189.478C379.538 185.71 381.649 180.398 381.649 173.542C381.649 166.686 379.538 161.388 375.317 157.648C371.095 153.909 364.848 152.039 356.576 152.039L349.351 152.039L349.351 195.13ZM358.956 185.781C363.205 185.781 366.492 184.775 368.815 182.764C371.138 180.752 372.299 177.678 372.299 173.542C372.299 169.406 371.138 166.346 368.815 164.363C366.492 162.38 363.205 161.388 358.956 161.388L358.956 185.781Z" fill="#ffe587" fill-rule="nonzero" opacity="1" stroke="none"/>
<path d="M406.627 145.239L440.029 145.239L440.029 160.113L424.731 160.113L424.731 166.403L439.774 166.403L439.774 180.511L424.731 180.511L424.731 187.056L440.624 187.056L440.624 201.93L406.627 201.93L406.627 145.239ZM434.335 195.13L434.335 193.09L417.336 193.09L417.336 174.477L433.485 174.477L433.485 172.437L417.336 172.437L417.336 154.079L434.335 154.079L434.335 152.039L415.126 152.039L415.126 195.13L434.335 195.13Z" fill="#ffe587" fill-rule="nonzero" opacity="1" stroke="none"/>
<path d="M457.529 145.239L490.931 145.239L490.931 160.113L475.632 160.113L475.632 166.403L490.676 166.403L490.676 180.511L475.632 180.511L475.632 201.93L457.529 201.93L457.529 145.239ZM468.238 195.13L468.238 174.477L484.386 174.477L484.386 172.437L468.238 172.437L468.238 154.079L485.236 154.079L485.236 152.039L466.028 152.039L466.028 195.13L468.238 195.13Z" fill="#ffe587" fill-rule="nonzero" opacity="1" stroke="none"/>
<path d="M507.41 145.239L526.618 145.239L526.618 201.93L507.41 201.93L507.41 145.239ZM518.119 195.13L518.119 152.039L515.909 152.039L515.909 195.13L518.119 195.13Z" fill="#ffe587" fill-rule="nonzero" opacity="1" stroke="none"/>
</g>
</g>
</svg>
