<?xml version="1.0" encoding="UTF-8" standalone="no"?>
<!DOCTYPE svg PUBLIC "-//W3C//DTD SVG 1.1//EN" "http://www.w3.org/Graphics/SVG/1.1/DTD/svg11.dtd">
<!-- Created with Vectornator (http://vectornator.io/) -->
<svg height="100%" stroke-miterlimit="10" style="fill-rule:nonzero;clip-rule:evenodd;stroke-linecap:round;stroke-linejoin:round;" version="1.1" viewBox="0 0 1486.57 948.736" width="100%" xml:space="preserve" xmlns="http://www.w3.org/2000/svg" xmlns:vectornator="http://vectornator.io" xmlns:xlink="http://www.w3.org/1999/xlink">
<defs/>
<path d="M0 0L1486.57 0L1486.57 948.736L0 948.736L0 0Z" fill="#000000" fill-rule="nonzero" opacity="1" stroke="none"/>
<g id="Layer-1" vectornator:layerName="Layer 1">
<g opacity="1" vectornator:layerName="Group 1">
<path d="M188.609 433.313L188.609 333.82L208.508 333.82L208.508 373.617L248.305 373.617L248.305 333.82L268.204 333.82L268.204 433.313L248.305 433.313L248.305 393.516L208.508 393.516L208.508 433.313L188.609 433.313Z" fill="#9fd9c3" fill-rule="nonzero" opacity="1" stroke="none"/>
<path d="M332.874 433.313L332.874 353.718L352.773 353.718L352.773 333.82L392.57 333.82L392.57 353.718L412.469 353.718L412.469 433.313L392.57 433.313L392.57 393.516L352.773 393.516L352.773 433.313L332.874 433.313ZM352.773 373.617L392.57 373.617L392.57 354.514L352.773 354.514L352.773 373.617Z" fill="#9fd9c3" fill-rule="nonzero" opacity="1" stroke="none"/>
<path d="M497.038 353.718L497.038 333.82L556.734 333.82L556.734 353.718L497.038 353.718ZM536.836 413.414L536.836 393.516L497.038 393.516L497.038 373.617L477.14 373.617L477.14 353.718L497.038 353.718L497.038 373.617L536.836 373.617L536.836 393.516L556.734 393.516L556.734 413.414L536.836 413.414ZM477.14 433.313L477.14 413.414L536.836 413.414L536.836 433.313L477.14 433.313Z" fill="#9fd9c3" fill-rule="nonzero" opacity="1" stroke="none"/>
<path d="M621.405 433.313L621.405 333.82L641.303 333.82L641.303 373.617L681.101 373.617L681.101 333.82L700.999 333.82L700.999 433.313L681.101 433.313L681.101 393.516L641.303 393.516L641.303 433.313L621.405 433.313Z" fill="#9fd9c3" fill-rule="nonzero" opacity="1" stroke="none"/>
<path d="M890.036 433.313L890.036 413.414L870.138 413.414L870.138 393.516L890.036 393.516L890.036 373.617L870.138 373.617L870.138 353.718L890.036 353.718L890.036 333.82L909.935 333.82L909.935 353.718L929.834 353.718L929.834 333.82L949.732 333.82L949.732 353.718L969.631 353.718L969.631 373.617L949.732 373.617L949.732 393.516L969.631 393.516L969.631 413.414L949.732 413.414L949.732 433.313L929.834 433.313L929.834 413.414L909.935 413.414L909.935 433.313L890.036 433.313ZM909.935 393.516L929.834 393.516L929.834 373.617L909.935 373.617L909.935 393.516Z" fill="#9fd9c3" fill-rule="nonzero" opacity="1" stroke="none"/>
<path d="M1054.2 433.313L1054.2 413.414L1034.3 413.414L1034.3 393.516L1054.2 393.516L1054.2 373.617L1034.3 373.617L1034.3 353.718L1054.2 353.718L1054.2 333.82L1074.1 333.82L1074.1 353.718L1094 353.718L1094 333.82L1113.9 333.82L1113.9 353.718L1133.79 353.718L1133.79 373.617L1113.9 373.617L1113.9 393.516L1133.79 393.516L1133.79 413.414L1113.9 413.414L1113.9 433.313L1094 433.313L1094 413.414L1074.1 413.414L1074.1 433.313L1054.2 433.313ZM1074.1 393.516L1094 393.516L1094 373.617L1074.1 373.617L1074.1 393.516Z" fill="#9fd9c3" fill-rule="nonzero" opacity="1" stroke="none"/>
<path d="M1218.36 433.313L1218.36 413.414L1198.47 413.414L1198.47 393.516L1218.36 393.516L1218.36 373.617L1198.47 373.617L1198.47 353.718L1218.36 353.718L1218.36 333.82L1238.26 333.82L1238.26 353.718L1258.16 353.718L1258.16 333.82L1278.06 333.82L1278.06 353.718L1297.96 353.718L1297.96 373.617L1278.06 373.617L1278.06 393.516L1297.96 393.516L1297.96 413.414L1278.06 413.414L1278.06 433.313L1258.16 433.313L1258.16 413.414L1238.26 413.414L1238.26 433.313L1218.36 433.313ZM1238.26 393.516L1258.16 393.516L1258.16 373.617L1238.26 373.617L1238.26 393.516Z" fill="#9fd9c3" fill-rule="nonzero" opacity="1" stroke="none"/>
<path d="M176.173 637.274L176.173 537.781L235.869 537.781L235.869 557.679L196.071 557.679L196.071 577.578L235.869 577.578L235.869 597.477L196.071 597.477L196.071 637.274L176.173 637.274Z" fill="#9fd9c3" fill-rule="nonzero" opacity="1" stroke="none"/>
<path d="M295.565 637.274L295.565 617.375L275.666 617.375L275.666 537.781L295.565 537.781L295.565 617.375L335.362 617.375L335.362 637.274L295.565 637.274ZM335.362 617.375L335.362 537.781L355.26 537.781L355.26 617.375L335.362 617.375Z" fill="#9fd9c3" fill-rule="nonzero" opacity="1" stroke="none"/>
<path d="M395.058 637.274L395.058 537.781L414.956 537.781L414.956 557.679L434.855 557.679L434.855 577.578L454.754 577.578L454.754 597.477L474.652 597.477L474.652 537.781L494.551 537.781L494.551 637.274L474.652 637.274L474.652 617.375L454.754 617.375L454.754 597.477L434.855 597.477L434.855 577.578L414.956 577.578L414.956 637.274L395.058 637.274Z" fill="#9fd9c3" fill-rule="nonzero" opacity="1" stroke="none"/>
<path d="M594.044 577.578L594.044 557.679L554.247 557.679L554.247 537.781L594.044 537.781L594.044 557.679L613.943 557.679L613.943 577.578L594.044 577.578ZM554.247 637.274L554.247 617.375L534.348 617.375L534.348 557.679L554.247 557.679L554.247 617.375L594.044 617.375L594.044 637.274L554.247 637.274ZM594.044 617.375L594.044 597.477L613.943 597.477L613.943 617.375L594.044 617.375Z" fill="#9fd9c3" fill-rule="nonzero" opacity="1" stroke="none"/>
<path d="M673.639 637.274L673.639 557.679L653.74 557.679L653.74 537.781L713.436 537.781L713.436 557.679L693.537 557.679L693.537 637.274L673.639 637.274Z" fill="#9fd9c3" fill-rule="nonzero" opacity="1" stroke="none"/>
<path d="M753.233 637.274L753.233 537.781L773.132 537.781L773.132 637.274L753.233 637.274Z" fill="#9fd9c3" fill-rule="nonzero" opacity="1" stroke="none"/>
<path d="M832.828 637.274L832.828 617.375L812.929 617.375L812.929 557.679L832.828 557.679L832.828 537.781L872.625 537.781L872.625 557.679L892.524 557.679L892.524 617.375L872.625 617.375L872.625 637.274L832.828 637.274ZM832.828 616.579L872.625 616.579L872.625 558.475L832.828 558.475L832.828 616.579Z" fill="#9fd9c3" fill-rule="nonzero" opacity="1" stroke="none"/>
<path d="M932.321 637.274L932.321 537.781L952.22 537.781L952.22 557.679L972.118 557.679L972.118 577.578L992.017 577.578L992.017 597.477L1011.92 597.477L1011.92 537.781L1031.81 537.781L1031.81 637.274L1011.92 637.274L1011.92 617.375L992.017 617.375L992.017 597.477L972.118 597.477L972.118 577.578L952.22 577.578L952.22 637.274L932.321 637.274Z" fill="#9fd9c3" fill-rule="nonzero" opacity="1" stroke="none"/>
<path d="M1091.51 557.679L1091.51 537.781L1151.21 537.781L1151.21 557.679L1091.51 557.679ZM1131.31 617.375L1131.31 597.477L1091.51 597.477L1091.51 577.578L1071.61 577.578L1071.61 557.679L1091.51 557.679L1091.51 577.578L1131.31 577.578L1131.31 597.477L1151.21 597.477L1151.21 617.375L1131.31 617.375ZM1071.61 637.274L1071.61 617.375L1131.31 617.375L1131.31 637.274L1071.61 637.274Z" fill="#9fd9c3" fill-rule="nonzero" opacity="1" stroke="none"/>
<path d="M1210.9 557.679L1210.9 537.781L1230.8 537.781L1230.8 557.679L1210.9 557.679ZM1210.9 637.274L1210.9 617.375L1191 617.375L1191 557.679L1210.9 557.679L1210.9 617.375L1230.8 617.375L1230.8 637.274L1210.9 637.274Z" fill="#9fd9c3" fill-rule="nonzero" opacity="1" stroke="none"/>
<path d="M1290.5 617.375L1290.5 557.679L1270.6 557.679L1270.6 537.781L1290.5 537.781L1290.5 557.679L1310.4 557.679L1310.4 617.375L1290.5 617.375ZM1270.6 637.274L1270.6 617.375L1290.5 617.375L1290.5 637.274L1270.6 637.274Z" fill="#9fd9c3" fill-rule="nonzero" opacity="1" stroke="none"/>
</g>
</g>
</svg>
