<?xml version="1.0" encoding="UTF-8" standalone="no"?>
<!DOCTYPE svg PUBLIC "-//W3C//DTD SVG 1.1//EN" "http://www.w3.org/Graphics/SVG/1.1/DTD/svg11.dtd">
<!-- Created with Vectornator (http://vectornator.io/) -->
<svg height="100%" stroke-miterlimit="10" style="fill-rule:nonzero;clip-rule:evenodd;stroke-linecap:round;stroke-linejoin:round;" version="1.1" viewBox="0 0 1486.57 934.05" width="100%" xml:space="preserve" xmlns="http://www.w3.org/2000/svg" xmlns:vectornator="http://vectornator.io" xmlns:xlink="http://www.w3.org/1999/xlink">
<defs/>
<path d="M0 0L1486.57 0L1486.57 934.05L0 934.05L0 0Z" fill="#ffffff" fill-rule="nonzero" opacity="1" stroke="none"/>
<g id="Layer-1" vectornator:layerName="Layer 1">
<g opacity="1" vectornator:layerName="Group 5">
<g opacity="1" vectornator:layerName="Group 1">
<path d="M2 7C2 4.23858 4.23858 2 7 2L1478.28 2C1481.04 2 1483.28 4.23858 1483.28 7L1483.28 926.869C1483.28 929.63 1481.04 931.869 1478.28 931.869L7 931.869C4.23858 931.869 2 929.63 2 926.869L2 7Z" fill="#000000" fill-rule="nonzero" opacity="1" stroke="none" vectornator:layerName="Rectangle 1"/>
</g>
<g opacity="1" vectornator:layerName="Group 2">
<path d="M1111.11 421.709C1096.49 406.313 1096.49 382.159 1111.11 366.764C1126.28 351.592 1150.88 351.592 1166.06 366.764C1181.23 381.937 1181.23 406.536 1166.06 421.709C1150.66 436.334 1126.51 436.334 1111.11 421.709ZM1175.21 302.662C1119.29 247.734 1029.67 247.734 973.75 302.662C956.497 321.036 943.382 342.894 935.289 366.764L653.241 366.764L616.611 403.394L689.871 476.653L726.5 440.023L763.13 476.653L799.76 440.023L836.389 476.653L953.604 476.653C959.265 486.539 966.024 495.754 973.75 504.125C1029.67 559.054 1119.29 559.054 1175.21 504.125C1230.14 448.203 1230.14 358.585 1175.21 302.662Z" fill="#9fd9c3" fill-rule="nonzero" opacity="1" stroke="none" vectornator:layerName="path"/>
<path d="M374.169 527.007C388.794 542.402 388.794 566.556 374.169 581.951C358.997 597.124 334.397 597.124 319.225 581.951C304.052 566.779 304.052 542.179 319.225 527.007C334.62 512.382 358.774 512.382 374.169 527.007ZM310.067 646.053C365.99 700.981 455.608 700.981 511.531 646.053C528.784 627.679 541.898 605.821 549.992 581.951L832.04 581.951L868.67 545.321L795.41 472.062L758.781 508.692L722.151 472.062L685.521 508.692L648.892 472.062L531.677 472.062C526.016 462.177 519.257 452.961 511.531 444.59C455.608 389.662 365.99 389.662 310.067 444.59C255.139 500.512 255.139 590.131 310.067 646.053Z" fill="#9fd9c3" fill-rule="nonzero" opacity="1" stroke="none" vectornator:layerName="path 1"/>
</g>
<g opacity="1" vectornator:layerName="Group 3">
<path d="M137.699 224.415L137.699 135.871L148.835 133.747L148.963 133.747L148.963 224.415L137.699 224.415ZM148.963 185.643L148.963 174.735L172.481 174.735L172.481 185.643L148.963 185.643ZM172.481 185.643L172.481 144.655L183.745 144.655L183.745 176.501L172.609 185.643L172.481 185.643ZM148.963 144.655L148.963 133.747L174.425 133.747L183.745 144.527L183.745 144.655L148.963 144.655Z" fill="#9fd9c3" fill-rule="nonzero" opacity="1" stroke="none"/>
<path d="M267.367 224.415L267.367 133.747L278.631 133.747L278.631 224.415L267.367 224.415ZM303.211 224.415L292.209 185.643L301.179 178.239L316.689 224.291L316.689 224.415L303.211 224.415ZM278.631 185.643L278.631 174.735L301.699 174.735L301.699 185.643L278.631 185.643ZM301.699 185.643L301.699 144.655L312.963 144.655L312.963 176.501L301.827 185.643L301.699 185.643ZM278.631 144.655L278.631 133.747L303.645 133.747L312.963 144.527L312.963 144.655L278.631 144.655Z" fill="#9fd9c3" fill-rule="nonzero" opacity="1" stroke="none"/>
<path d="M412.797 224.415L412.797 144.655L422.117 133.747L424.061 133.747L424.061 213.507L414.741 224.415L412.797 224.415ZM397.535 224.415L397.535 213.507L412.797 213.507L412.797 224.415L397.535 224.415ZM414.741 224.415L424.061 213.507L437.671 213.507L437.671 224.415L414.741 224.415ZM397.443 144.655L397.443 133.747L422.117 133.747L412.797 144.655L397.443 144.655ZM424.061 144.655L424.061 133.747L437.543 133.747L437.543 144.655L424.061 144.655Z" fill="#9fd9c3" fill-rule="nonzero" opacity="1" stroke="none"/>
<path d="M536.976 224.415L517.532 133.875L517.532 133.747L529.866 133.747L546.188 217.391L537.104 224.415L536.976 224.415ZM537.104 224.415L556.784 133.747L569.116 133.747L569.116 133.875L549.344 224.415L537.104 224.415Z" fill="#9fd9c3" fill-rule="nonzero" opacity="1" stroke="none"/>
<path d="M649.533 224.415L649.533 143.245L660.669 133.747L660.797 133.747L660.797 224.415L649.533 224.415ZM660.797 185.643L660.797 174.735L684.221 174.735L684.221 185.643L660.797 185.643ZM684.221 224.415L684.221 144.655L695.485 144.655L695.485 224.415L684.221 224.415ZM660.797 144.655L660.797 133.747L686.167 133.747L695.485 144.527L695.485 144.655L660.797 144.655Z" fill="#9fd9c3" fill-rule="nonzero" opacity="1" stroke="none"/>
<path d="M797.879 224.415L797.915 144.655L807.235 133.747L809.179 133.747L809.179 224.415L797.879 224.415ZM776.729 144.655L776.729 133.747L807.235 133.747L797.915 144.655L776.729 144.655ZM809.179 144.655L809.179 133.747L830.985 133.747L830.985 144.655L809.179 144.655Z" fill="#9fd9c3" fill-rule="nonzero" opacity="1" stroke="none"/>
<path d="M924.555 224.415L915.143 213.635L915.143 213.507L957.855 213.507L957.855 224.415L924.555 224.415ZM915.143 213.507L915.143 133.747L926.407 133.747L926.407 213.507L915.143 213.507ZM926.407 182.437L926.407 172.953L951.969 172.953L951.969 182.437L926.407 182.437ZM926.407 144.655L926.407 133.747L959.671 133.747L959.671 133.875L950.351 144.655L926.407 144.655Z" fill="#9fd9c3" fill-rule="nonzero" opacity="1" stroke="none"/>
<path d="M1081.42 224.415L1067.39 183.255L1076.86 177.027L1094.9 224.287L1094.9 224.415L1081.42 224.415ZM1041.95 224.415L1041.95 133.747L1053.21 133.747L1053.21 224.415L1041.95 224.415ZM1053.21 183.861L1053.21 172.953L1074.86 172.953L1074.86 183.861L1053.21 183.861ZM1074.86 183.861L1074.86 133.747L1086.12 133.747L1086.12 174.719L1074.98 183.861L1074.86 183.861Z" fill="#9fd9c3" fill-rule="nonzero" opacity="1" stroke="none"/>
<path d="M1185.44 224.415L1176.03 213.635L1176.03 213.507L1218.74 213.507L1218.74 224.415L1185.44 224.415ZM1176.03 213.507L1176.03 133.747L1187.29 133.747L1187.29 213.507L1176.03 213.507ZM1187.29 182.437L1187.29 172.953L1212.85 172.953L1212.85 182.437L1187.29 182.437ZM1187.29 144.655L1187.29 133.747L1220.56 133.747L1220.56 133.875L1211.24 144.655L1187.29 144.655Z" fill="#9fd9c3" fill-rule="nonzero" opacity="1" stroke="none"/>
<path d="M1317.76 181.931L1298.82 133.885L1298.82 133.747L1310.76 133.747L1325.15 174.893L1317.89 181.931L1317.76 181.931ZM1317.76 224.415L1317.76 181.931L1329.38 181.931L1329.38 224.415L1317.76 224.415ZM1317.89 181.931L1335.61 133.747L1347.58 133.747L1347.58 133.875L1329.38 181.931L1317.89 181.931Z" fill="#9fd9c3" fill-rule="nonzero" opacity="1" stroke="none"/>
</g>
<g opacity="1" vectornator:layerName="Group 4">
<path d="M202.984 809.947L202.984 721.403L214.12 719.279L214.248 719.279L214.248 809.947L202.984 809.947ZM214.248 771.175L214.248 760.267L237.766 760.267L237.766 771.175L214.248 771.175ZM237.766 771.175L237.766 730.187L249.03 730.187L249.03 762.033L237.894 771.175L237.766 771.175ZM214.248 730.187L214.248 719.279L239.71 719.279L249.03 730.059L249.03 730.187L214.248 730.187Z" fill="#9fd9c3" fill-rule="nonzero" opacity="1" stroke="none"/>
<path d="M366.984 809.947L366.984 719.279L378.248 719.279L378.248 800.449L367.112 809.947L366.984 809.947ZM341.972 809.947L332.652 799.167L332.652 799.039L366.984 799.039L366.984 809.947L341.972 809.947ZM332.652 799.039L332.652 719.279L343.916 719.279L343.916 799.039L332.652 799.039Z" fill="#9fd9c3" fill-rule="nonzero" opacity="1" stroke="none"/>
<path d="M476.441 730.187L476.441 719.279L493.877 719.279L493.877 730.187L476.441 730.187ZM465.177 809.947L465.177 799.039L506.199 799.039L506.199 809.947L465.177 809.947ZM465.177 799.039L465.177 719.279L476.441 719.279L476.441 799.039L465.177 799.039ZM505.853 761.727L500.691 758.485L493.877 758.485L493.877 719.279L494.005 719.279L505.853 728.419L505.853 761.727ZM492.399 767.969L484.825 758.521L493.877 758.485L506.199 758.485L506.199 767.969L492.399 767.969ZM506.199 809.947L506.199 758.485L506.327 758.485L517.463 767.485L517.463 800.949L506.327 809.947L506.199 809.947Z" fill="#9fd9c3" fill-rule="nonzero" opacity="1" stroke="none"/>
<path d="M610.974 809.911L601.654 799.131L601.654 799.003L646.516 799.003L646.516 809.911L610.974 809.911ZM601.654 799.003L601.654 719.279L612.918 719.279L612.918 799.003L601.654 799.003Z" fill="#9fd9c3" fill-rule="nonzero" opacity="1" stroke="none"/>
<path d="M740.498 809.947L740.498 730.187L749.818 719.279L751.762 719.279L751.762 799.039L742.442 809.947L740.498 809.947ZM725.236 809.947L725.236 799.039L740.498 799.039L740.498 809.947L725.236 809.947ZM742.442 809.947L751.762 799.039L765.372 799.039L765.372 809.947L742.442 809.947ZM725.144 730.187L725.144 719.279L749.818 719.279L740.498 730.187L725.144 730.187ZM751.762 730.187L751.762 719.279L765.244 719.279L765.244 730.187L751.762 730.187Z" fill="#9fd9c3" fill-rule="nonzero" opacity="1" stroke="none"/>
<path d="M858.216 809.947L848.896 799.167L848.896 799.039L894.136 799.039L894.136 799.167L884.816 809.947L858.216 809.947ZM848.896 799.039L848.896 728.777L860.032 719.279L860.16 719.279L860.16 799.039L848.896 799.039ZM860.16 730.187L860.16 719.279L884.816 719.279L894.136 730.059L894.136 730.187L860.16 730.187Z" fill="#9fd9c3" fill-rule="nonzero" opacity="1" stroke="none"/>
<path d="M1016.14 809.947L1002.11 768.787L1011.58 762.559L1029.61 809.819L1029.61 809.947L1016.14 809.947ZM976.664 809.947L976.664 719.279L987.928 719.279L987.928 809.947L976.664 809.947ZM987.928 769.393L987.928 758.485L1009.57 758.485L1009.57 769.393L987.928 769.393ZM1009.57 769.393L1009.57 719.279L1020.84 719.279L1020.84 760.251L1009.7 769.393L1009.57 769.393Z" fill="#9fd9c3" fill-rule="nonzero" opacity="1" stroke="none"/>
<path d="M1120.16 809.947L1110.74 799.167L1110.74 799.039L1153.46 799.039L1153.46 809.947L1120.16 809.947ZM1110.74 799.039L1110.74 719.279L1122.01 719.279L1122.01 799.039L1110.74 799.039ZM1122.01 767.969L1122.01 758.485L1147.57 758.485L1147.57 767.969L1122.01 767.969ZM1122.01 730.187L1122.01 719.279L1155.27 719.279L1155.27 719.407L1145.95 730.187L1122.01 730.187Z" fill="#9fd9c3" fill-rule="nonzero" opacity="1" stroke="none"/>
<path d="M1252.47 767.463L1233.53 719.417L1233.53 719.279L1245.47 719.279L1259.87 760.425L1252.6 767.463L1252.47 767.463ZM1252.47 809.947L1252.47 767.463L1264.09 767.463L1264.09 809.947L1252.47 809.947ZM1252.6 767.463L1270.32 719.279L1282.3 719.279L1282.3 719.407L1264.09 767.463L1252.6 767.463Z" fill="#9fd9c3" fill-rule="nonzero" opacity="1" stroke="none"/>
</g>
</g>
</g>
</svg>
