<?xml version="1.0" encoding="UTF-8" standalone="no"?>
<!DOCTYPE svg PUBLIC "-//W3C//DTD SVG 1.1//EN" "http://www.w3.org/Graphics/SVG/1.1/DTD/svg11.dtd">
<!-- Created with Vectornator (http://vectornator.io/) -->
<svg height="100%" stroke-miterlimit="10" style="fill-rule:nonzero;clip-rule:evenodd;stroke-linecap:round;stroke-linejoin:round;" version="1.1" viewBox="0 0 1486.57 934.05" width="100%" xml:space="preserve" xmlns="http://www.w3.org/2000/svg" xmlns:vectornator="http://vectornator.io" xmlns:xlink="http://www.w3.org/1999/xlink">
<defs/>
<path d="M0 0L1486.57 0L1486.57 934.05L0 934.05L0 0Z" fill="#000000" fill-rule="nonzero" opacity="1" stroke="none"/>
<g id="Layer-1" vectornator:layerName="Layer 1">
<g opacity="1" vectornator:layerName="Group 3">
<g opacity="1" vectornator:layerName="Group 2">
<path d="M1030.42 432.688C1019 420.665 1019 401.8 1030.42 389.776C1042.27 377.927 1061.48 377.927 1073.33 389.776C1085.18 401.626 1085.18 420.839 1073.33 432.688C1061.31 444.111 1042.44 444.111 1030.42 432.688ZM1080.48 339.712C1036.81 296.813 966.815 296.813 923.139 339.712C909.665 354.062 899.422 371.134 893.101 389.776L672.819 389.776L644.211 418.384L701.427 475.601L730.035 446.993L758.643 475.601L787.251 446.993L815.859 475.601L907.405 475.601C911.826 483.321 917.105 490.519 923.139 497.057C966.815 539.956 1036.81 539.956 1080.48 497.057C1123.38 453.381 1123.38 383.388 1080.48 339.712Z" fill="#9fd9c3" fill-rule="nonzero" opacity="1" stroke="none" vectornator:layerName="path"/>
<path d="M454.861 514.927C466.284 526.951 466.284 545.815 454.861 557.839C443.012 569.689 423.799 569.689 411.949 557.839C400.099 545.989 400.099 526.777 411.949 514.927C423.973 503.505 442.838 503.505 454.861 514.927ZM404.797 607.903C448.473 650.803 518.466 650.803 562.142 607.903C575.616 593.553 585.859 576.482 592.18 557.839L812.462 557.839L841.07 529.231L783.854 472.015L755.246 500.623L726.638 472.015L698.03 500.623L669.422 472.015L577.876 472.015C573.455 464.294 568.176 457.097 562.142 450.559C518.466 407.66 448.473 407.66 404.797 450.559C361.898 494.235 361.898 564.227 404.797 607.903Z" fill="#9fd9c3" fill-rule="nonzero" opacity="1" stroke="none" vectornator:layerName="path 1"/>
</g>
<g fill="#9fd9c3" opacity="1" stroke="none" vectornator:layerName="Text 1">
<path d="M271.284 220.015L271.284 140.015L319.284 140.015L319.284 156.015L335.284 156.015L335.284 172.015L319.284 172.015L319.284 188.015L287.284 188.015L287.284 220.015L271.284 220.015ZM287.284 172.015L318.644 172.015L318.644 156.015L287.284 156.015L287.284 172.015Z"/>
<path d="M367.284 220.015L367.284 140.015L415.284 140.015L415.284 156.015L431.284 156.015L431.284 172.015L415.284 172.015L415.284 204.015L431.284 204.015L431.284 220.015L415.284 220.015L415.284 204.015L399.284 204.015L399.284 188.015L383.284 188.015L383.284 220.015L367.284 220.015ZM383.284 172.015L414.644 172.015L414.644 156.015L383.284 156.015L383.284 172.015Z"/>
<path d="M463.284 220.015L463.284 140.015L479.284 140.015L479.284 220.015L463.284 220.015Z"/>
<path d="M543.284 220.015L543.284 204.015L527.284 204.015L527.284 172.015L511.284 172.015L511.284 140.015L527.284 140.015L527.284 172.015L543.284 172.015L543.284 204.015L559.284 204.015L559.284 220.015L543.284 220.015ZM575.284 172.015L575.284 140.015L591.284 140.015L591.284 172.015L575.284 172.015ZM559.284 204.015L559.284 172.015L575.284 172.015L575.284 204.015L559.284 204.015Z"/>
<path d="M623.284 220.015L623.284 156.015L639.284 156.015L639.284 140.015L671.284 140.015L671.284 156.015L687.284 156.015L687.284 220.015L671.284 220.015L671.284 188.015L639.284 188.015L639.284 220.015L623.284 220.015ZM639.284 172.015L671.284 172.015L671.284 156.655L639.284 156.655L639.284 172.015Z"/>
<path d="M735.284 220.015L735.284 156.015L719.284 156.015L719.284 140.015L767.284 140.015L767.284 156.015L751.284 156.015L751.284 220.015L735.284 220.015Z"/>
<path d="M799.284 220.015L799.284 140.015L847.284 140.015L847.284 156.015L815.284 156.015L815.284 172.015L847.284 172.015L847.284 188.015L815.284 188.015L815.284 204.015L847.284 204.015L847.284 220.015L799.284 220.015Z"/>
<path d="M943.284 220.015L943.284 140.015L959.284 140.015L959.284 172.015L975.284 172.015L975.284 188.015L991.284 188.015L991.284 204.015L1007.28 204.015L1007.28 220.015L991.284 220.015L991.284 204.015L975.284 204.015L975.284 188.015L959.284 188.015L959.284 220.015L943.284 220.015ZM991.284 156.015L991.284 140.015L1007.28 140.015L1007.28 156.015L991.284 156.015ZM975.284 172.015L975.284 156.015L991.284 156.015L991.284 172.015L975.284 172.015Z"/>
<path d="M1039.28 220.015L1039.28 140.015L1087.28 140.015L1087.28 156.015L1055.28 156.015L1055.28 172.015L1087.28 172.015L1087.28 188.015L1055.28 188.015L1055.28 204.015L1087.28 204.015L1087.28 220.015L1039.28 220.015Z"/>
<path d="M1151.28 220.015L1151.28 172.015L1135.28 172.015L1135.28 156.015L1119.28 156.015L1119.28 140.015L1135.28 140.015L1135.28 156.015L1151.28 156.015L1151.28 172.015L1167.28 172.015L1167.28 220.015L1151.28 220.015ZM1183.28 156.015L1183.28 140.015L1199.28 140.015L1199.28 156.015L1183.28 156.015ZM1167.28 172.015L1167.28 156.015L1183.28 156.015L1183.28 172.015L1167.28 172.015Z"/>
</g>
<g fill="#9fd9c3" opacity="1" stroke="none" vectornator:layerName="Text 2">
<path d="M327.284 830.163L327.284 750.163L375.284 750.163L375.284 766.163L391.284 766.163L391.284 782.163L375.284 782.163L375.284 798.163L343.284 798.163L343.284 830.163L327.284 830.163ZM343.284 782.163L374.644 782.163L374.644 766.163L343.284 766.163L343.284 782.163Z"/>
<path d="M439.284 830.163L439.284 814.163L423.284 814.163L423.284 750.163L439.284 750.163L439.284 814.163L471.284 814.163L471.284 830.163L439.284 830.163ZM471.284 814.163L471.284 750.163L487.284 750.163L487.284 814.163L471.284 814.163Z"/>
<path d="M519.284 830.163L519.284 750.163L567.284 750.163L567.284 766.163L583.284 766.163L583.284 814.163L567.284 814.163L567.284 830.163L519.284 830.163ZM535.284 782.163L566.644 782.163L566.644 766.163L535.284 766.163L535.284 782.163ZM535.284 814.163L566.644 814.163L566.644 798.163L535.284 798.163L535.284 814.163Z"/>
<path d="M615.284 830.163L615.284 750.163L631.284 750.163L631.284 814.163L663.284 814.163L663.284 830.163L615.284 830.163Z"/>
<path d="M695.284 830.163L695.284 750.163L711.284 750.163L711.284 830.163L695.284 830.163Z"/>
<path d="M791.284 782.163L791.284 766.163L759.284 766.163L759.284 750.163L791.284 750.163L791.284 766.163L807.284 766.163L807.284 782.163L791.284 782.163ZM759.284 830.163L759.284 814.163L743.284 814.163L743.284 766.163L759.284 766.163L759.284 814.163L791.284 814.163L791.284 830.163L759.284 830.163ZM791.284 814.163L791.284 798.163L807.284 798.163L807.284 814.163L791.284 814.163Z"/>
<path d="M903.284 830.163L903.284 750.163L919.284 750.163L919.284 782.163L935.284 782.163L935.284 798.163L951.284 798.163L951.284 814.163L967.284 814.163L967.284 830.163L951.284 830.163L951.284 814.163L935.284 814.163L935.284 798.163L919.284 798.163L919.284 830.163L903.284 830.163ZM951.284 766.163L951.284 750.163L967.284 750.163L967.284 766.163L951.284 766.163ZM935.284 782.163L935.284 766.163L951.284 766.163L951.284 782.163L935.284 782.163Z"/>
<path d="M999.284 830.163L999.284 750.163L1047.28 750.163L1047.28 766.163L1015.28 766.163L1015.28 782.163L1047.28 782.163L1047.28 798.163L1015.28 798.163L1015.28 814.163L1047.28 814.163L1047.28 830.163L999.284 830.163Z"/>
<path d="M1111.28 830.163L1111.28 782.163L1095.28 782.163L1095.28 766.163L1079.28 766.163L1079.28 750.163L1095.28 750.163L1095.28 766.163L1111.28 766.163L1111.28 782.163L1127.28 782.163L1127.28 830.163L1111.28 830.163ZM1143.28 766.163L1143.28 750.163L1159.28 750.163L1159.28 766.163L1143.28 766.163ZM1127.28 782.163L1127.28 766.163L1143.28 766.163L1143.28 782.163L1127.28 782.163Z"/>
</g>
</g>
</g>
</svg>
