<?xml version="1.0" encoding="UTF-8" standalone="no"?>
<!DOCTYPE svg PUBLIC "-//W3C//DTD SVG 1.1//EN" "http://www.w3.org/Graphics/SVG/1.1/DTD/svg11.dtd">
<!-- Created with Vectornator (http://vectornator.io/) -->
<svg height="100%" stroke-miterlimit="10" style="fill-rule:nonzero;clip-rule:evenodd;stroke-linecap:round;stroke-linejoin:round;" version="1.1" viewBox="0 0 1486.57 948.736" width="100%" xml:space="preserve" xmlns="http://www.w3.org/2000/svg" xmlns:vectornator="http://vectornator.io" xmlns:xlink="http://www.w3.org/1999/xlink">
<defs/>
<path d="M0 0L1486.57 0L1486.57 948.736L0 948.736L0 0Z" fill="#000000" fill-rule="nonzero" opacity="1" stroke="none"/>
<g id="Layer-1" vectornator:layerName="Layer 1">
<g opacity="1" vectornator:layerName="Group 1">
<g opacity="1" vectornator:layerName="Group 1">
<path d="M326.8 417.469L326.8 399.477L370.71 399.477L386.082 417.258L386.082 417.469L326.8 417.469ZM308.221 549.259L308.221 531.267L367.503 531.267L367.503 549.259L308.221 549.259ZM308.221 531.267L308.221 399.477L326.8 399.477L326.8 531.267L308.221 531.267ZM367.503 549.259L367.503 417.469L386.082 417.469L386.082 534.183L367.715 549.259L367.503 549.259Z" fill="#9fd9c3" fill-rule="nonzero" opacity="1" stroke="none"/>
<path d="M602.714 549.024L587.19 531.244L587.19 531.033L657.639 531.033L657.639 549.024L602.714 549.024ZM587.19 531.033L587.19 399.477L605.769 399.477L605.769 531.033L587.19 531.033ZM605.769 479.786L605.769 464.143L647.931 464.143L647.931 479.786L605.769 479.786ZM605.769 417.469L605.769 399.477L660.634 399.477L660.634 399.688L645.262 417.469L605.769 417.469Z" fill="#9fd9c3" fill-rule="nonzero" opacity="1" stroke="none"/>
<path d="M872.649 417.469L872.649 399.477L926.34 399.477L926.34 399.688L910.968 417.469L872.649 417.469ZM854.071 549.024L854.071 467.35L872.649 482.782L872.649 549.024L854.071 549.024ZM872.649 482.782L854.071 467.35L854.071 467.139L913.637 467.139L913.637 482.782L872.649 482.782ZM854.071 467.139L854.071 399.477L872.649 399.477L872.649 467.139L854.071 467.139Z" fill="#9fd9c3" fill-rule="nonzero" opacity="1" stroke="none"/>
<path d="M1137.32 549.024L1137.32 417.469L1152.69 399.477L1155.9 399.477L1155.9 531.033L1140.53 549.024L1137.32 549.024ZM1112.15 549.024L1112.15 531.033L1137.32 531.033L1137.32 549.024L1112.15 549.024ZM1140.53 549.024L1155.9 531.033L1178.35 531.033L1178.35 549.024L1140.53 549.024ZM1112 417.469L1112 399.477L1152.69 399.477L1137.32 417.469L1112 417.469ZM1155.9 417.469L1155.9 399.477L1178.14 399.477L1178.14 417.469L1155.9 417.469Z" fill="#9fd9c3" fill-rule="nonzero" opacity="1" stroke="none"/>
</g>
</g>
</g>
</svg>
