<?xml version="1.0" encoding="UTF-8" standalone="no"?>
<!DOCTYPE svg PUBLIC "-//W3C//DTD SVG 1.1//EN" "http://www.w3.org/Graphics/SVG/1.1/DTD/svg11.dtd">
<!-- Created with Vectornator (http://vectornator.io/) -->
<svg height="100%" stroke-miterlimit="10" style="fill-rule:nonzero;clip-rule:evenodd;stroke-linecap:round;stroke-linejoin:round;" version="1.1" viewBox="0 0 1486.57 948.736" width="100%" xml:space="preserve" xmlns="http://www.w3.org/2000/svg" xmlns:vectornator="http://vectornator.io" xmlns:xlink="http://www.w3.org/1999/xlink">
<defs/>
<path d="M0 0L1486.57 0L1486.57 948.736L0 948.736L0 0Z" fill="#000000" fill-rule="nonzero" opacity="1" stroke="none"/>
<g id="Layer-1" vectornator:layerName="Layer 1">
<g fill="#9fd9c3" opacity="1" stroke="none" vectornator:layerName="Text 1">
<path d="M463.284 443.547L463.284 363.547L479.284 363.547L479.284 395.547L511.284 395.547L511.284 363.547L527.284 363.547L527.284 443.547L511.284 443.547L511.284 411.547L479.284 411.547L479.284 443.547L463.284 443.547Z"/>
<path d="M595.284 443.547L595.284 427.547L579.284 427.547L579.284 363.547L595.284 363.547L595.284 427.547L627.284 427.547L627.284 443.547L595.284 443.547ZM627.284 427.547L627.284 363.547L643.284 363.547L643.284 427.547L627.284 427.547Z"/>
<path d="M695.284 443.547L695.284 363.547L711.284 363.547L711.284 379.547L727.284 379.547L727.284 395.547L743.284 395.547L743.284 411.547L727.284 411.547L727.284 395.547L711.284 395.547L711.284 443.547L695.284 443.547ZM759.284 443.547L759.284 395.547L743.284 395.547L743.284 379.547L759.284 379.547L759.284 363.547L775.284 363.547L775.284 443.547L759.284 443.547Z"/>
<path d="M827.284 443.547L827.284 379.547L843.284 379.547L843.284 363.547L875.284 363.547L875.284 379.547L891.284 379.547L891.284 443.547L875.284 443.547L875.284 411.547L843.284 411.547L843.284 443.547L827.284 443.547ZM843.284 395.547L875.284 395.547L875.284 380.187L843.284 380.187L843.284 395.547Z"/>
<path d="M943.284 443.547L943.284 363.547L959.284 363.547L959.284 379.547L975.284 379.547L975.284 395.547L991.284 395.547L991.284 411.547L1007.28 411.547L1007.28 363.547L1023.28 363.547L1023.28 443.547L1007.28 443.547L1007.28 427.547L991.284 427.547L991.284 411.547L975.284 411.547L975.284 395.547L959.284 395.547L959.284 443.547L943.284 443.547Z"/>
<path d="M452.284 607.547L452.284 527.547L468.284 527.547L468.284 543.547L484.284 543.547L484.284 559.547L500.284 559.547L500.284 575.547L484.284 575.547L484.284 559.547L468.284 559.547L468.284 607.547L452.284 607.547ZM516.284 607.547L516.284 559.547L500.284 559.547L500.284 543.547L516.284 543.547L516.284 527.547L532.284 527.547L532.284 607.547L516.284 607.547Z"/>
<path d="M574.284 607.547L574.284 527.547L590.284 527.547L590.284 607.547L574.284 607.547Z"/>
<path d="M632.284 607.547L632.284 527.547L680.284 527.547L680.284 543.547L696.284 543.547L696.284 559.547L680.284 559.547L680.284 591.547L696.284 591.547L696.284 607.547L680.284 607.547L680.284 591.547L664.284 591.547L664.284 575.547L648.284 575.547L648.284 607.547L632.284 607.547ZM648.284 559.547L679.644 559.547L679.644 543.547L648.284 543.547L648.284 559.547Z"/>
<path d="M738.284 607.547L738.284 527.547L786.284 527.547L786.284 543.547L802.284 543.547L802.284 559.547L786.284 559.547L786.284 591.547L802.284 591.547L802.284 607.547L786.284 607.547L786.284 591.547L770.284 591.547L770.284 575.547L754.284 575.547L754.284 607.547L738.284 607.547ZM754.284 559.547L785.644 559.547L785.644 543.547L754.284 543.547L754.284 559.547Z"/>
<path d="M860.284 607.547L860.284 591.547L844.284 591.547L844.284 543.547L860.284 543.547L860.284 527.547L892.284 527.547L892.284 543.547L908.284 543.547L908.284 591.547L892.284 591.547L892.284 607.547L860.284 607.547ZM860.284 590.907L892.284 590.907L892.284 544.187L860.284 544.187L860.284 590.907Z"/>
<path d="M950.284 607.547L950.284 527.547L998.284 527.547L998.284 543.547L1014.28 543.547L1014.28 559.547L998.284 559.547L998.284 591.547L1014.28 591.547L1014.28 607.547L998.284 607.547L998.284 591.547L982.284 591.547L982.284 575.547L966.284 575.547L966.284 607.547L950.284 607.547ZM966.284 559.547L997.644 559.547L997.644 543.547L966.284 543.547L966.284 559.547Z"/>
</g>
</g>
</svg>
