<?xml version="1.0" encoding="UTF-8" standalone="no"?>
<!DOCTYPE svg PUBLIC "-//W3C//DTD SVG 1.1//EN" "http://www.w3.org/Graphics/SVG/1.1/DTD/svg11.dtd">
<!-- Created with Vectornator (http://vectornator.io/) -->
<svg height="100%" stroke-miterlimit="10" style="fill-rule:nonzero;clip-rule:evenodd;stroke-linecap:round;stroke-linejoin:round;" version="1.1" viewBox="0 0 1486.57 948.736" width="100%" xml:space="preserve" xmlns="http://www.w3.org/2000/svg" xmlns:vectornator="http://vectornator.io" xmlns:xlink="http://www.w3.org/1999/xlink">
<defs/>
<path d="M0 0L1486.57 0L1486.57 948.736L0 948.736L0 0Z" fill="#000000" fill-rule="nonzero" opacity="1" stroke="none"/>
<g id="Layer-1" vectornator:layerName="Layer 1">
<g fill="#9fd9c3" opacity="1" stroke="none" vectornator:layerName="Text 1">
<path d="M361.284 443.547L361.284 363.547L409.284 363.547L409.284 379.547L377.284 379.547L377.284 395.547L409.284 395.547L409.284 411.547L377.284 411.547L377.284 443.547L361.284 443.547Z"/>
<path d="M434.284 443.547L434.284 379.547L450.284 379.547L450.284 363.547L482.284 363.547L482.284 379.547L498.284 379.547L498.284 443.547L482.284 443.547L482.284 411.547L450.284 411.547L450.284 443.547L434.284 443.547ZM450.284 395.547L482.284 395.547L482.284 380.187L450.284 380.187L450.284 395.547Z"/>
<path d="M523.284 443.547L523.284 363.547L539.284 363.547L539.284 443.547L523.284 443.547Z"/>
<path d="M580.284 443.547L580.284 379.547L564.284 379.547L564.284 363.547L612.284 363.547L612.284 379.547L596.284 379.547L596.284 443.547L580.284 443.547Z"/>
<path d="M637.284 443.547L637.284 363.547L653.284 363.547L653.284 395.547L685.284 395.547L685.284 363.547L701.284 363.547L701.284 443.547L685.284 443.547L685.284 411.547L653.284 411.547L653.284 443.547L637.284 443.547Z"/>
<path d="M783.284 459.547L783.284 347.547L799.284 347.547L799.284 459.547L783.284 459.547Z"/>
<path d="M881.284 443.547L881.284 363.547L929.284 363.547L929.284 379.547L945.284 379.547L945.284 427.547L929.284 427.547L929.284 443.547L881.284 443.547ZM897.284 427.547L928.644 427.547L928.644 379.547L897.284 379.547L897.284 427.547Z"/>
<path d="M970.284 443.547L970.284 363.547L1018.28 363.547L1018.28 379.547L986.284 379.547L986.284 395.547L1018.28 395.547L1018.28 411.547L986.284 411.547L986.284 427.547L1018.28 427.547L1018.28 443.547L970.284 443.547Z"/>
<path d="M1043.28 443.547L1043.28 363.547L1091.28 363.547L1091.28 379.547L1059.28 379.547L1059.28 395.547L1091.28 395.547L1091.28 411.547L1059.28 411.547L1059.28 443.547L1043.28 443.547Z"/>
<path d="M1116.28 443.547L1116.28 363.547L1132.28 363.547L1132.28 443.547L1116.28 443.547Z"/>
<path d="M341.784 607.547L341.784 527.547L389.784 527.547L389.784 543.547L357.784 543.547L357.784 559.547L389.784 559.547L389.784 575.547L357.784 575.547L357.784 607.547L341.784 607.547Z"/>
<path d="M414.784 607.547L414.784 543.547L430.784 543.547L430.784 527.547L462.784 527.547L462.784 543.547L478.784 543.547L478.784 607.547L462.784 607.547L462.784 575.547L430.784 575.547L430.784 607.547L414.784 607.547ZM430.784 559.547L462.784 559.547L462.784 544.187L430.784 544.187L430.784 559.547Z"/>
<path d="M503.784 607.547L503.784 527.547L519.784 527.547L519.784 607.547L503.784 607.547Z"/>
<path d="M560.784 607.547L560.784 543.547L544.784 543.547L544.784 527.547L592.784 527.547L592.784 543.547L576.784 543.547L576.784 607.547L560.784 607.547Z"/>
<path d="M617.784 607.547L617.784 527.547L633.784 527.547L633.784 559.547L665.784 559.547L665.784 527.547L681.784 527.547L681.784 607.547L665.784 607.547L665.784 575.547L633.784 575.547L633.784 607.547L617.784 607.547Z"/>
<path d="M763.784 559.547L763.784 543.547L811.784 543.547L811.784 559.547L763.784 559.547ZM763.784 591.547L763.784 575.547L811.784 575.547L811.784 591.547L763.784 591.547Z"/>
<path d="M893.784 607.547L893.784 527.547L941.784 527.547L941.784 543.547L957.784 543.547L957.784 591.547L941.784 591.547L941.784 607.547L893.784 607.547ZM909.784 591.547L941.144 591.547L941.144 543.547L909.784 543.547L909.784 591.547Z"/>
<path d="M982.784 607.547L982.784 527.547L1030.78 527.547L1030.78 543.547L998.784 543.547L998.784 559.547L1030.78 559.547L1030.78 575.547L998.784 575.547L998.784 591.547L1030.78 591.547L1030.78 607.547L982.784 607.547Z"/>
<path d="M1055.78 607.547L1055.78 527.547L1103.78 527.547L1103.78 543.547L1071.78 543.547L1071.78 559.547L1103.78 559.547L1103.78 575.547L1071.78 575.547L1071.78 607.547L1055.78 607.547Z"/>
<path d="M1128.78 607.547L1128.78 527.547L1144.78 527.547L1144.78 607.547L1128.78 607.547Z"/>
</g>
</g>
</svg>
